<?xml version="1.0" encoding="UTF-8"?>
<svg version="1.1" xmlns="http://www.w3.org/2000/svg" width="132" height="118">
<path d="M0 0 C43.56 0 87.12 0 132 0 C132 38.94 132 77.88 132 118 C88.44 118 44.88 118 0 118 C0 79.06 0 40.12 0 0 Z " fill="#FEFEFC" transform="translate(0,0)"/>
<path d="M0 0 C5.75 -0.125 5.75 -0.125 8 1 C7.95875 2.19625 7.9175 3.3925 7.875 4.625 C7.89078788 9.12454553 8.7156817 12.75843178 10.98168945 16.71337891 C13.98899609 22.02475355 14.60859879 26.32808874 14.4375 32.375 C14.42066162 33.21571045 14.40382324 34.0564209 14.38647461 34.92260742 C13.86521139 50.97595864 5.39836225 63.26719193 -5.48046875 74.6640625 C-9.34856278 78.25029541 -13.24487862 80.74612744 -18 83 C-18.93328125 83.4846875 -19.8665625 83.969375 -20.828125 84.46875 C-34.39492018 90.4835853 -53.08343335 90.77996267 -66.9375 85.4375 C-75.51013959 81.77832544 -84.97652948 77.1414867 -90 69 C-90.625 65.8125 -90.625 65.8125 -90 63 C-87.9375 61.0625 -87.9375 61.0625 -85 60 C-82.66153655 60.29520207 -80.32867639 60.63555268 -78 61 C-75.19064973 61.24531606 -72.37801185 61.40536713 -69.5625 61.5625 C-68.83095703 61.60568359 -68.09941406 61.64886719 -67.34570312 61.69335938 C-65.56395285 61.79816821 -63.78199598 61.89945521 -62 62 C-62.64066406 61.72027344 -63.28132813 61.44054687 -63.94140625 61.15234375 C-70.39349094 58.16188423 -76.69975351 54.60049298 -80 48 C-80.203125 46.125 -80.203125 46.125 -80.25 44 C-80.28867188 42.948125 -80.28867188 42.948125 -80.328125 41.875 C-80.21984375 41.25625 -80.1115625 40.6375 -80 40 C-76.57795284 37.71863523 -76.02029941 37.84970634 -72.1328125 38.359375 C-65.701415 39.07468015 -59.34231748 39.21988444 -52.875 39.25 C-51.20244141 39.2809375 -51.20244141 39.2809375 -49.49609375 39.3125 C-40.07193824 39.3569012 -33.1251331 37.28365665 -24.75 33.0625 C-23.77546875 32.57910156 -22.8009375 32.09570312 -21.796875 31.59765625 C-18.91178855 30.04604344 -18.91178855 30.04604344 -16.265625 27.80859375 C-14 26 -14 26 -12 26 C-11.62875 24.9171875 -11.62875 24.9171875 -11.25 23.8125 C-9.87730408 20.72393418 -8.27646704 18.48988582 -6 16 C-5.34 16 -4.68 16 -4 16 C-3.81824219 15.14728516 -3.81824219 15.14728516 -3.6328125 14.27734375 C-2.58677946 9.45754536 -1.40795516 4.7267066 0 0 Z " fill="#FCEA41" transform="translate(104,14)"/>
<path d="M0 0 C5.75 -0.125 5.75 -0.125 8 1 C7.95875 2.19625 7.9175 3.3925 7.875 4.625 C7.89078788 9.12454553 8.7156817 12.75843178 10.98168945 16.71337891 C13.98899609 22.02475355 14.60859879 26.32808874 14.4375 32.375 C14.42066162 33.21571045 14.40382324 34.0564209 14.38647461 34.92260742 C13.86521139 50.97595864 5.39836225 63.26719193 -5.48046875 74.6640625 C-9.34856278 78.25029541 -13.24487862 80.74612744 -18 83 C-18.93328125 83.4846875 -19.8665625 83.969375 -20.828125 84.46875 C-34.39492018 90.4835853 -53.08343335 90.77996267 -66.9375 85.4375 C-75.51013959 81.77832544 -84.97652948 77.1414867 -90 69 C-90.5 65.75 -90.5 65.75 -90 63 C-87 61 -87 61 -85.25 61.125 C-83 62 -83 62 -80.125 63.875 C-70.63035502 69.42197809 -58.67973232 69.65740513 -48 69 C-47.00355469 68.94199219 -46.00710937 68.88398437 -44.98046875 68.82421875 C-31.72692345 67.35160261 -19.97637414 59.55086208 -11 50 C-10.45859375 49.25234375 -9.9171875 48.5046875 -9.359375 47.734375 C-8.91078125 47.16203125 -8.4621875 46.5896875 -8 46 C-7.34 46 -6.68 46 -6 46 C-9.10242188 55.06488892 -16.55259127 61.27624954 -24.640625 65.94140625 C-27.09528483 67.04275197 -29.3494692 67.58174248 -32 68 C-32 68.66 -32 69.32 -32 70 C-30.06213915 69.52229477 -28.12472326 69.04278429 -26.1875 68.5625 C-25.10855469 68.29566406 -24.02960938 68.02882813 -22.91796875 67.75390625 C-20.9259157 67.23922588 -18.95188476 66.65062825 -17 66 C-17 65.34 -17 64.68 -17 64 C-11.52380952 59 -11.52380952 59 -9 59 C-8.5978125 57.9171875 -8.5978125 57.9171875 -8.1875 56.8125 C-7 54 -7 54 -5.375 51.4375 C-3.67245254 48.88577713 -3.67245254 48.88577713 -4 45 C-2.35 45 -0.7 45 1 45 C1 42.69 1 40.38 1 38 C0.01 38 -0.98 38 -2 38 C-1.22767029 29.50437317 1.3906348 21.19060971 6 14 C3.36 14 0.72 14 -2 14 C-2.21192221 8.80790596 -1.5912689 4.873261 0 0 Z " fill="#FBC517" transform="translate(104,14)"/>
<path d="M0 0 C5.75 -0.125 5.75 -0.125 8 1 C7.95875 2.19625 7.9175 3.3925 7.875 4.625 C7.89078788 9.12454553 8.7156817 12.75843178 10.98168945 16.71337891 C13.98899609 22.02475355 14.60859879 26.32808874 14.4375 32.375 C14.42066162 33.21571045 14.40382324 34.0564209 14.38647461 34.92260742 C13.86521139 50.97595864 5.39836225 63.26719193 -5.48046875 74.6640625 C-9.34856278 78.25029541 -13.24487862 80.74612744 -18 83 C-18.93328125 83.4846875 -19.8665625 83.969375 -20.828125 84.46875 C-34.39492018 90.4835853 -53.08343335 90.77996267 -66.9375 85.4375 C-75.51013959 81.77832544 -84.97652948 77.1414867 -90 69 C-90.5 65.75 -90.5 65.75 -90 63 C-87 61 -87 61 -84 61 C-84.05800781 61.61488281 -84.11601563 62.22976562 -84.17578125 62.86328125 C-84.31325613 65.32604553 -84.36924973 67.55860768 -84 70 C-81.6273026 72.00864359 -81.6273026 72.00864359 -79 73 C-79 73.66 -79 74.32 -79 75 C-78.2884375 75.12246094 -77.576875 75.24492188 -76.84375 75.37109375 C-73.91566209 76.01865165 -71.30602644 77.01024009 -68.5 78.0625 C-62.37377705 79.98349351 -56.71875206 80.37896426 -50.3125 80.375 C-49.44625 80.37636963 -48.58 80.37773926 -47.6875 80.37915039 C-41.60649799 80.27706984 -35.91420604 79.38753577 -30 78 C-28.57300781 77.66548828 -28.57300781 77.66548828 -27.1171875 77.32421875 C-22.03628546 75.8813842 -17.93850803 74.00646357 -13.59375 70.98828125 C-12 70 -12 70 -10 70 C-10 69.34 -10 68.68 -10 68 C-9.01 67.67 -8.02 67.34 -7 67 C-5.98812105 65.34051852 -4.9873454 63.67419438 -4 62 C-3.34 62 -2.68 62 -2 62 C-2 61.01 -2 60.02 -2 59 C-1.01 58.34 -0.02 57.68 1 57 C2.20450304 54.44816596 2.20450304 54.44816596 3 52 C3.66 52 4.32 52 5 52 C5.13277344 51.27554688 5.26554687 50.55109375 5.40234375 49.8046875 C5.96549222 47.16193848 6.73411032 44.69420856 7.5625 42.125 C9.50189936 35.13745817 10.84954114 25.42897782 7.98046875 18.55859375 C7.65691406 18.04425781 7.33335938 17.52992187 7 17 C6.0030363 21.49450847 5.71538443 25.88866758 5.4765625 30.4765625 C4.94131478 33.31074303 4.21957156 34.23146438 2 36 C2.66 36 3.32 36 4 36 C4.33 36.99 4.66 37.98 5 39 C4.34 39 3.68 39 3 39 C3 39.99 3 40.98 3 42 C2.34 42 1.68 42 1 42 C1 40.68 1 39.36 1 38 C0.01 38 -0.98 38 -2 38 C-1.22767029 29.50437317 1.3906348 21.19060971 6 14 C3.36 14 0.72 14 -2 14 C-2.21192221 8.80790596 -1.5912689 4.873261 0 0 Z " fill="#DDA404" transform="translate(104,14)"/>
<path d="M0 0 C0.99 0 1.98 0 3 0 C0.8483049 12.43201616 -7.2065025 23.80477835 -17 31.58984375 C-25.56899553 37.27371377 -34.87991183 39.80175846 -45 41 C-46.155 41.144375 -47.31 41.28875 -48.5 41.4375 C-58.28664033 40.21416996 -65.86540609 35.61361929 -72 28 C-73.60725635 24.78548731 -73.05748185 21.56387464 -73 18 C-67.84316238 16.64939967 -65.5778099 17.42498193 -61 20 C-55.95052426 22.0783132 -51.44181074 22.38424654 -46.0625 22.375 C-44.81702393 22.37584595 -44.81702393 22.37584595 -43.54638672 22.37670898 C-35.53019047 22.23627591 -28.61545315 20.38822145 -21 18 C-19.33857872 17.64143589 -17.67339847 17.29770197 -16 17 C-15.505 17.99 -15.505 17.99 -15 19 C-14.01 18.01 -13.02 17.02 -12 16 C-12.66 15.67 -13.32 15.34 -14 15 C-13.23816406 14.50693359 -13.23816406 14.50693359 -12.4609375 14.00390625 C-7.42644944 10.52501843 -4.37833548 7.06094928 -1.32421875 1.7578125 C-0.88722656 1.17773438 -0.45023437 0.59765625 0 0 Z " fill="#FBC61E" transform="translate(97,36)"/>
<path d="M0 0 C-0.05800781 0.61488281 -0.11601562 1.22976562 -0.17578125 1.86328125 C-0.31325613 4.32604553 -0.36924973 6.55860768 0 9 C2.3726974 11.00864359 2.3726974 11.00864359 5 12 C5 12.66 5 13.32 5 14 C5.7115625 14.12246094 6.423125 14.24492188 7.15625 14.37109375 C10.08433791 15.01865165 12.69397356 16.01024009 15.5 17.0625 C21.62622295 18.98349351 27.28124794 19.37896426 33.6875 19.375 C34.55375 19.37636963 35.42 19.37773926 36.3125 19.37915039 C42.39350201 19.27706984 48.08579396 18.38753577 54 17 C55.42699219 16.66548828 55.42699219 16.66548828 56.8828125 16.32421875 C61.96371454 14.8813842 66.06149197 13.00646357 70.40625 9.98828125 C72 9 72 9 74 9 C74 8.34 74 7.68 74 7 C74.99 7 75.98 7 77 7 C77.99 8.98 77.99 8.98 79 11 C78.443125 10.773125 77.88625 10.54625 77.3125 10.3125 C74.86922151 9.78642565 74.86922151 9.78642565 72.25 11.125 C71.5075 11.74375 70.765 12.3625 70 13 C69.957279 14.66611905 69.95936168 16.33382885 70 18 C64.7727183 24.31992016 56.95914308 26.46701569 49.06054688 27.31591797 C29.96426681 28.57715794 14.40403569 25.95982348 -1 14 C-4.16290523 11.21858553 -5.84081409 9.03470843 -6.5 4.75 C-6.335 3.8425 -6.17 2.935 -6 2 C-3 0 -3 0 0 0 Z " fill="#DAA308" transform="translate(20,75)"/>
<path d="M0 0 C0.495 0.99 0.495 0.99 1 2 C-8.36154057 14.67761761 -18.51592332 22.4691162 -34.3125 25.3125 C-36.20572284 25.56231724 -38.1014768 25.79430349 -40 26 C-41.155 26.144375 -42.31 26.28875 -43.5 26.4375 C-53.28664033 25.21416996 -60.86540609 20.61361929 -67 13 C-68.60725635 9.78548731 -68.05748185 6.56387464 -68 3 C-66.35 2.67 -64.7 2.34 -63 2 C-62.609375 4.01822917 -62.21875 6.03645833 -61.828125 8.0546875 C-61.16428996 10.12323066 -61.16428996 10.12323066 -59.28125 11.09375 C-58.5284375 11.3928125 -57.775625 11.691875 -57 12 C-55.67742188 12.63808594 -55.67742188 12.63808594 -54.328125 13.2890625 C-42.13755901 18.5798919 -30.4347726 18.68081397 -17.90625 14.26171875 C-10.26696859 10.94520276 -5.09119062 6.52716746 0 0 Z " fill="#D7A509" transform="translate(92,51)"/>
<path d="M0 0 C0.66 0 1.32 0 2 0 C1.17791532 4.71517534 -0.19264236 9.23479645 -1.5625 13.8125 C-1.91344727 14.99489258 -1.91344727 14.99489258 -2.27148438 16.20117188 C-2.84568404 18.13470136 -3.42257333 20.06743177 -4 22 C-3.01 22 -2.02 22 -1 22 C-1 24.31 -1 26.62 -1 29 C-2.32 29.33 -3.64 29.66 -5 30 C-5.0928125 30.99 -5.0928125 30.99 -5.1875 32 C-7.06132658 38.91874431 -11.23860413 43.90300738 -17 48 C-17.66 48 -18.32 48 -19 48 C-19 48.66 -19 49.32 -19 50 C-23.44428622 53.70357185 -28.46325415 53.68822208 -34 54 C-34 53.34 -34 52.68 -34 52 C-33.21496094 51.63648438 -32.42992187 51.27296875 -31.62109375 50.8984375 C-20.53879169 45.59525001 -14.68798171 40.28607522 -8 30 C-8.680625 30.680625 -9.36125 31.36125 -10.0625 32.0625 C-10.52914062 32.52140625 -10.99578125 32.9803125 -11.4765625 33.453125 C-12.48256815 34.47460766 -13.45806925 35.5271635 -14.3984375 36.609375 C-23.04544125 46.17814057 -37.12085283 53.32658054 -50 54 C-66.53956835 54.63309353 -66.53956835 54.63309353 -74 52 C-74.33 51.34 -74.66 50.68 -75 50 C-73.741875 49.979375 -72.48375 49.95875 -71.1875 49.9375 C-70.12595703 49.92009766 -70.12595703 49.92009766 -69.04296875 49.90234375 C-67 50 -67 50 -64 51 C-55.95201863 51.47021914 -48.34574072 51.75781662 -40.7734375 48.66796875 C-38.47247763 47.80130766 -36.43172379 47.76467189 -34 48 C-34 47.34 -34 46.68 -34 46 C-31.09399739 44.74335022 -29.20395416 44 -26 44 C-25.67 43.01 -25.34 42.02 -25 41 C-24.4225 40.731875 -23.845 40.46375 -23.25 40.1875 C-19.10349225 37.99906535 -16.46337965 34.39013896 -15 30 C-14.01 30 -13.02 30 -12 30 C-11.01 27.03 -10.02 24.06 -9 21 C-8.34 21 -7.68 21 -7 21 C-6.81824219 20.29875 -6.63648437 19.5975 -6.44921875 18.875 C-4.73794505 12.41603875 -3.00104081 6.00208162 0 0 Z " fill="#FEE76B" transform="translate(106,30)"/>
<path d="M0 0 C0.495 1.485 0.495 1.485 1 3 C1.99 3.495 1.99 3.495 3 4 C2.34644531 4.72703125 2.34644531 4.72703125 1.6796875 5.46875 C-1.41947449 8.95698427 -4.36340168 12.44119283 -7.0625 16.25 C-8.95668669 18.86407974 -10.60598439 20.5898876 -13.375 22.25 C-14.24125 22.8275 -15.1075 23.405 -16 24 C-16 25.32 -16 26.64 -16 28 C-16.99 28.33 -17.98 28.66 -19 29 C-19 28.01 -19 27.02 -19 26 C-19.68964844 26.26554687 -20.37929687 26.53109375 -21.08984375 26.8046875 C-22.02957031 27.15789063 -22.96929687 27.51109375 -23.9375 27.875 C-24.85402344 28.22304688 -25.77054688 28.57109375 -26.71484375 28.9296875 C-33.93315656 31.28143269 -40.78489538 32.38976221 -48.375 32.375 C-49.61455444 32.37367065 -49.61455444 32.37367065 -50.87915039 32.37231445 C-59.43970901 32.20709156 -66.17432694 30.21721708 -73 25 C-72.03731201 25.10393066 -72.03731201 25.10393066 -71.05517578 25.20996094 C-63.65242629 25.95274709 -56.31258592 26.21536631 -48.875 26.25 C-47.75996094 26.270625 -46.64492188 26.29125 -45.49609375 26.3125 C-36.07193824 26.3569012 -29.1251331 24.28365665 -20.75 20.0625 C-19.77546875 19.57910156 -18.8009375 19.09570312 -17.796875 18.59765625 C-14.91178855 17.04604344 -14.91178855 17.04604344 -12.265625 14.80859375 C-10 13 -10 13 -8 13 C-7.62875 11.9171875 -7.62875 11.9171875 -7.25 10.8125 C-5.87730408 7.72393418 -4.27646704 5.48988582 -2 3 C-1.34 3 -0.68 3 0 3 C0 2.01 0 1.02 0 0 Z " fill="#FBEE67" transform="translate(100,27)"/>
<path d="M0 0 C2.8708851 2.8708851 2.30029698 4.93084323 2.3125 8.9375 C2.27695947 17.64074892 0.27180189 25.0054232 -3 33 C-3.66 33 -4.32 33 -5 33 C-5.268125 33.969375 -5.53625 34.93875 -5.8125 35.9375 C-6.4003125 37.4534375 -6.4003125 37.4534375 -7 39 C-8.485 39.495 -8.485 39.495 -10 40 C-10 40.99 -10 41.98 -10 43 C-10.66 43 -11.32 43 -12 43 C-12.37125 44.2065625 -12.37125 44.2065625 -12.75 45.4375 C-14 48 -14 48 -16.125 48.8125 C-17.053125 48.9053125 -17.053125 48.9053125 -18 49 C-18 49.66 -18 50.32 -18 51 C-33.27953242 61.89519923 -50.75400781 63.42144497 -69 62 C-73.52939822 61.23329697 -77.76060695 59.7493881 -82 58 C-82.9178125 57.68804687 -83.835625 57.37609375 -84.78125 57.0546875 C-85.87953125 56.53261719 -85.87953125 56.53261719 -87 56 C-87.495 54.515 -87.495 54.515 -88 53 C-85.17775378 53.9153231 -82.38416037 54.84075862 -79.64233398 55.97729492 C-72.74591691 58.75456778 -66.78244142 59.67329377 -59.375 59.5625 C-58.3331958 59.55226807 -57.2913916 59.54203613 -56.21801758 59.53149414 C-43.14314132 59.17659746 -31.93228468 56.20384765 -21.19921875 48.453125 C-19 47 -19 47 -16.78515625 46.45703125 C-16.19605469 46.30621094 -15.60695313 46.15539062 -15 46 C-13.70339566 43.50965614 -13.70339566 43.50965614 -13 41 C-12.34 41 -11.68 41 -11 41 C-10.731875 40.30519531 -10.46375 39.61039063 -10.1875 38.89453125 C-8.90338951 35.76451194 -7.46155433 32.73849466 -6 29.6875 C-1.42799864 19.73143863 -0.53647995 10.84254221 0 0 Z " fill="#F1B80C" transform="translate(112,33)"/>
<path d="M0 0 C0.99 0 1.98 0 3 0 C1.22894171 8.41252688 -1.55284397 14.03638068 -8 20 C-8.721875 20.763125 -9.44375 21.52625 -10.1875 22.3125 C-12 24 -12 24 -14 24 C-14.495 23.01 -14.495 23.01 -15 22 C-19.59337489 22.54683034 -22.91772893 23.87011944 -27 26 C-30.08416646 26.9719012 -32.89942586 27.13462858 -36.125 27.125 C-37.42824219 27.12886719 -37.42824219 27.12886719 -38.7578125 27.1328125 C-41 27 -41 27 -43 26 C-43 25.34 -43 24.68 -43 24 C-44.98 24 -46.96 24 -49 24 C-49 23.67 -49 23.34 -49 23 C-47.27716797 22.85304688 -47.27716797 22.85304688 -45.51953125 22.703125 C-36.75067568 21.88341117 -28.75926804 20.69449425 -20.40625 17.8046875 C-18 17 -18 17 -16 17 C-15.505 17.99 -15.505 17.99 -15 19 C-14.01 18.01 -13.02 17.02 -12 16 C-12.66 15.67 -13.32 15.34 -14 15 C-13.23816406 14.50693359 -13.23816406 14.50693359 -12.4609375 14.00390625 C-7.42644944 10.52501843 -4.37833548 7.06094928 -1.32421875 1.7578125 C-0.88722656 1.17773438 -0.45023438 0.59765625 0 0 Z " fill="#F1C639" transform="translate(97,36)"/>
<path d="M0 0 C5.75 -0.125 5.75 -0.125 8 1 C7.95875 2.155 7.9175 3.31 7.875 4.5 C7.85244226 7.6693621 8.25506263 10.3302192 9.125 13.375 C9.41375 14.57125 9.7025 15.7675 10 17 C9.34 17.66 8.68 18.32 8 19 C7.67 18.34 7.34 17.68 7 17 C6.0030363 21.49450847 5.71538443 25.88866758 5.4765625 30.4765625 C4.94131478 33.31074303 4.21957156 34.23146438 2 36 C2.66 36 3.32 36 4 36 C4.33 36.99 4.66 37.98 5 39 C4.34 39 3.68 39 3 39 C3 39.99 3 40.98 3 42 C2.34 42 1.68 42 1 42 C1 40.68 1 39.36 1 38 C0.01 38 -0.98 38 -2 38 C-1.22767029 29.50437317 1.3906348 21.19060971 6 14 C3.36 14 0.72 14 -2 14 C-2.21192221 8.80790596 -1.5912689 4.873261 0 0 Z " fill="#FCC517" transform="translate(104,14)"/>
<path d="M0 0 C0.33 0.66 0.66 1.32 1 2 C1.99 2 2.98 2 4 2 C4 4.31 4 6.62 4 9 C2.68 9.33 1.36 9.66 0 10 C-0.0928125 10.99 -0.0928125 10.99 -0.1875 12 C-2.06132658 18.91874431 -6.23860413 23.90300738 -12 28 C-12.66 28 -13.32 28 -14 28 C-14 28.66 -14 29.32 -14 30 C-18.44428622 33.70357185 -23.46325415 33.68822208 -29 34 C-29 33.34 -29 32.68 -29 32 C-28.21496094 31.63648437 -27.42992188 31.27296875 -26.62109375 30.8984375 C-15.53879169 25.59525001 -9.68798171 20.28607522 -3 10 C-3.66 9.67 -4.32 9.34 -5 9 C-3.35 6.03 -1.7 3.06 0 0 Z " fill="#FCD55A" transform="translate(101,50)"/>
<path d="M0 0 C0.37125 1.918125 0.37125 1.918125 0.75 3.875 C1.49180676 7.12277717 1.49180676 7.12277717 3.8125 9.375 C4.534375 9.58125 5.25625 9.7875 6 10 C6.9075 10.37125 7.815 10.7425 8.75 11.125 C9.86375 11.558125 9.86375 11.558125 11 12 C9.68 12.33 8.36 12.66 7 13 C7.309375 13.763125 7.61875 14.52625 7.9375 15.3125 C8.67893593 17.18789677 9.36228217 19.08684652 10 21 C3.66584936 19.73316987 0.09866112 15.69536357 -4 11 C-5.60725635 7.78548731 -5.05748185 4.56387464 -5 1 C-3 0 -3 0 0 0 Z " fill="#D7A614" transform="translate(29,53)"/>
<path d="M0 0 C-0.90871893 2.93246055 -1.5140688 4.63198557 -3.99609375 6.51171875 C-10.24207396 9.51978282 -16.12497298 11.12428363 -23 12 C-26 8.25 -26 8.25 -26 6 C-24.85724609 5.85304688 -24.85724609 5.85304688 -23.69140625 5.703125 C-17.56055661 4.81526163 -12.47039065 3.5479645 -6.9140625 0.8203125 C-4.53385595 -0.19977602 -2.55950504 -0.33025871 0 0 Z " fill="#F3C027" transform="translate(84,57)"/>
<path d="M0 0 C0.99 0 1.98 0 3 0 C-0.09137486 9.01379827 -8.15939302 17.66099996 -16 23 C-18.23046875 23.6796875 -18.23046875 23.6796875 -20 24 C-19.9375 20.75 -19.9375 20.75 -19 17 C-16.7768466 15.1455908 -14.67169663 14.21440756 -12 13 C-12 13.66 -12 14.32 -12 15 C-11.34 14.67 -10.68 14.34 -10 14 C-10.33 12.68 -10.66 11.36 -11 10 C-10.05125 9.4225 -9.1025 8.845 -8.125 8.25 C-5.23865902 6.17183449 -4.15904259 5.24531925 -3 2 C-2.01 2 -1.02 2 0 2 C0 1.34 0 0.68 0 0 Z " fill="#D5A824" transform="translate(108,71)"/>
<path d="M0 0 C0.66 0 1.32 0 2 0 C-1.10242188 9.06488892 -8.55259127 15.27624954 -16.640625 19.94140625 C-19.09528483 21.04275197 -21.3494692 21.58174248 -24 22 C-24 22.66 -24 23.32 -24 24 C-23.16855469 23.7834375 -22.33710937 23.566875 -21.48046875 23.34375 C-20.39378906 23.0653125 -19.30710937 22.786875 -18.1875 22.5 C-17.10855469 22.2215625 -16.02960938 21.943125 -14.91796875 21.65625 C-12 21 -12 21 -9 21 C-11.80277208 24.22318789 -14.08879403 24.85975792 -18.2890625 25.16796875 C-19.05992188 25.17441406 -19.83078125 25.18085937 -20.625 25.1875 C-21.78902344 25.20876953 -21.78902344 25.20876953 -22.9765625 25.23046875 C-25 25 -25 25 -27 23 C-29.58354218 22.83312552 -29.58354218 22.83312552 -32 23 C-29.56379338 21.78189669 -27.12509483 20.57078181 -24.6796875 19.37109375 C-15.75375905 14.88233204 -7.35027028 10.0075161 -1.359375 1.734375 C-0.91078125 1.16203125 -0.4621875 0.5896875 0 0 Z " fill="#F7C82E" transform="translate(96,60)"/>
<path d="M0 0 C0.99 0.144375 1.98 0.28875 3 0.4375 C3.96679688 0.57285156 3.96679688 0.57285156 4.953125 0.7109375 C6.88696596 0.98403718 8.81857812 1.27278672 10.75 1.5625 C15.82099788 2.20136587 20.8983232 2.08440274 26 2 C26.33 2.66 26.66 3.32 27 4 C26.34 4 25.68 4 25 4 C25 4.66 25 5.32 25 6 C30.94 6 36.88 6 43 6 C38.68464325 8.15767838 35.60521533 8.26732591 30.9375 8.1875 C30.21755859 8.18685547 29.49761719 8.18621094 28.75585938 8.18554688 C25.58250863 8.15902862 23.02950606 8.00983535 20 7 C18.26972939 7.05590535 16.54034946 7.14277098 14.8125 7.25 C9.05365821 7.32647864 5.30987862 5.80283408 1 2 C0.67 1.34 0.34 0.68 0 0 Z " fill="#FAEB55" transform="translate(19,74)"/>
<path d="M0 0 C-0.05800781 0.61488281 -0.11601562 1.22976562 -0.17578125 1.86328125 C-0.31325613 4.32604553 -0.36924973 6.55860768 0 9 C2.3726974 11.00864359 2.3726974 11.00864359 5 12 C5 12.66 5 13.32 5 14 C6.65 14.33 8.3 14.66 10 15 C10 15.33 10 15.66 10 16 C1.57912999 16.11649425 1.57912999 16.11649425 -2 13.5859375 C-4.69141755 10.64866931 -5.88861636 8.65592589 -6.5625 4.6875 C-5.71681527 0.64700629 -3.9828474 0 0 0 Z " fill="#D7A615" transform="translate(20,75)"/>
<path d="M0 0 C2 1 2 1 3.10546875 2.98828125 C4.32462596 7.09295465 4.3408117 10.9265888 4.3125 15.1875 C4.30831055 16.03521973 4.30412109 16.88293945 4.29980469 17.75634766 C4.14589411 26.28856089 3.16087892 33.62667698 -3 40 C-3 38.35 -3 36.7 -3 35 C-2.34 35 -1.68 35 -1 35 C-1 34.34 -1 33.68 -1 33 C-1.66 33 -2.32 33 -3 33 C-2.54738642 31.56068883 -2.08767021 30.12361001 -1.625 28.6875 C-1.36976562 27.88699219 -1.11453125 27.08648437 -0.8515625 26.26171875 C0 24 0 24 2 21 C2.31892002 18.00170208 2.31892002 18.00170208 2.25 14.6875 C2.25515625 13.57761719 2.2603125 12.46773437 2.265625 11.32421875 C1.99321041 7.91503028 1.16378128 5.20039852 0 2 C0 1.34 0 0.68 0 0 Z " fill="#D9A315" transform="translate(114,31)"/>
<path d="M0 0 C0.99 0 1.98 0 3 0 C1.79522645 5.72267437 0.50576496 10.26247978 -3 15 C-5.38806565 16.15551564 -7.34842726 16.54107395 -10 17 C-9.71492241 12.29621974 -7.52973305 10.03213127 -4.48828125 6.71484375 C-2.81842646 4.90172399 -2.81842646 4.90172399 -1.3125 2.0625 C-0.6628125 1.0415625 -0.6628125 1.0415625 0 0 Z " fill="#F4C41B" transform="translate(97,36)"/>
<path d="M0 0 C0.49628906 0.32613281 0.99257813 0.65226562 1.50390625 0.98828125 C5.88567579 3.80691479 10.15590098 6.08254414 15 8 C15 8.33 15 8.66 15 9 C8.85038369 9.23551722 3.34210681 8.79179173 -2.66015625 7.4453125 C-5.841428 6.83986178 -8.77189457 6.85964759 -12 7 C-12 6.34 -12 5.68 -12 5 C-8.37 5 -4.74 5 -1 5 C-0.67 3.35 -0.34 1.7 0 0 Z " fill="#FDFDED" transform="translate(29,68)"/>
<path d="M0 0 C2.97 0.33 5.94 0.66 9 1 C9 1.99 9 2.98 9 4 C9.969375 4.12375 10.93875 4.2475 11.9375 4.375 C13.4534375 4.684375 13.4534375 4.684375 15 5 C15.33 5.66 15.66 6.32 16 7 C18.08611558 7.650539 18.08611558 7.650539 20.5 8.0625 C24.90606654 8.90606654 24.90606654 8.90606654 26 10 C27.77869726 10.15764405 29.56318476 10.25100677 31.34765625 10.31640625 C32.42724609 10.35830078 33.50683594 10.40019531 34.61914062 10.44335938 C36.32360352 10.50233398 36.32360352 10.50233398 38.0625 10.5625 C39.20267578 10.60568359 40.34285156 10.64886719 41.51757812 10.69335938 C44.34492195 10.79982839 47.17235738 10.90184207 50 11 C50 11.33 50 11.66 50 12 C31.11752349 12.8429677 15.72292312 12.46463144 0 1 C0 0.67 0 0.34 0 0 Z " fill="#D7AD3B" transform="translate(22,90)"/>
<path d="M0 0 C1.98 0 3.96 0 6 0 C-0.71982376 6.15983845 -10.2487257 5.2805439 -18.75 5.1875 C-19.8534375 5.18685547 -20.956875 5.18621094 -22.09375 5.18554688 C-29.43820174 5.14675576 -36.69156758 4.71811712 -44 4 C-44 3.34 -44 2.68 -44 2 C-41.85423363 1.97314062 -39.70837355 1.95366912 -37.5625 1.9375 C-36.36753906 1.92589844 -35.17257813 1.91429687 -33.94140625 1.90234375 C-31 2 -31 2 -30 3 C-28.62916279 3.09905163 -27.25331587 3.1307966 -25.87890625 3.1328125 C-25.02973633 3.13474609 -24.18056641 3.13667969 -23.30566406 3.13867188 C-22.40041992 3.13416016 -21.49517578 3.12964844 -20.5625 3.125 C-19.65338867 3.12306641 -18.74427734 3.12113281 -17.80761719 3.11914062 C-11.81100579 3.08046667 -5.94984016 2.79331202 0 2 C0 1.34 0 0.68 0 0 Z " fill="#FEFBCF" transform="translate(70,49)"/>
<path d="M0 0 C0.66 0 1.32 0 2 0 C1.04407385 2.40973049 0.46868673 3.72929301 -1.8125 5.046875 C-7.65726416 6.9255492 -12.87889836 7.34503078 -19 7 C-19.33 6.01 -19.66 5.02 -20 4 C-19.42967041 3.91435791 -18.85934082 3.82871582 -18.27172852 3.74047852 C-15.70132184 3.352072 -13.13192106 2.95737171 -10.5625 2.5625 C-9.66466797 2.42779297 -8.76683594 2.29308594 -7.84179688 2.15429688 C-6.98779297 2.02216797 -6.13378906 1.89003906 -5.25390625 1.75390625 C-4.46314697 1.63345947 -3.6723877 1.5130127 -2.85766602 1.38891602 C-0.99297383 1.17537558 -0.99297383 1.17537558 0 0 Z " fill="#FED460" transform="translate(75,56)"/>
<path d="M0 0 C0.99 0 1.98 0 3 0 C1.53942013 4.51451961 -0.73058619 7.57852044 -4 11 C-6.8125 12.375 -6.8125 12.375 -9 13 C-9.66 12.01 -10.32 11.02 -11 10 C-10.05125 9.4225 -9.1025 8.845 -8.125 8.25 C-5.23865902 6.17183449 -4.15904259 5.24531925 -3 2 C-2.01 2 -1.02 2 0 2 C0 1.34 0 0.68 0 0 Z " fill="#D6A21A" transform="translate(108,71)"/>
<path d="M0 0 C5.75 -0.125 5.75 -0.125 8 1 C7.67 4.3 7.34 7.6 7 11 C6.34 11 5.68 11 5 11 C4.67 10.01 4.34 9.02 4 8 C3.34 8 2.68 8 2 8 C0.23537317 4.91190305 0 3.76687864 0 0 Z " fill="#92741C" transform="translate(104,14)"/>
<path d="M0 0 C0.33 0.99 0.66 1.98 1 3 C1.66 3.33 2.32 3.66 3 4 C1.76110404 5.48847937 0.5084328 6.96550105 -0.75 8.4375 C-1.44609375 9.26121094 -2.1421875 10.08492187 -2.859375 10.93359375 C-5.01343015 13.01296451 -6.08310781 13.63867326 -9 14 C-9 14.66 -9 15.32 -9 16 C-11.375 17.6875 -11.375 17.6875 -14 19 C-14.66 18.67 -15.32 18.34 -16 18 C-10.25 13 -10.25 13 -8 13 C-7.62875 11.9171875 -7.62875 11.9171875 -7.25 10.8125 C-5.87730408 7.72393418 -4.27646704 5.48988582 -2 3 C-1.34 3 -0.68 3 0 3 C0 2.01 0 1.02 0 0 Z " fill="#F9EF7F" transform="translate(100,27)"/>
<path d="M0 0 C0.66 0 1.32 0 2 0 C2.67812114 1.8708878 3.3419946 3.74694293 4 5.625 C4.37125 6.66914062 4.7425 7.71328125 5.125 8.7890625 C6.00965036 12.03541338 6.23552626 14.65356437 6 18 C5.67 18.33 5.34 18.66 5 19 C4.76712992 20.68183948 4.58735834 22.3712416 4.4375 24.0625 C4.31181641 25.44115234 4.31181641 25.44115234 4.18359375 26.84765625 C4.12300781 27.55792969 4.06242187 28.26820312 4 29 C3.34 29 2.68 29 2 29 C2.01047363 28.33468262 2.02094727 27.66936523 2.03173828 26.98388672 C2.07350465 23.9476301 2.09939152 20.91143414 2.125 17.875 C2.14175781 16.82828125 2.15851563 15.7815625 2.17578125 14.703125 C2.20929909 9.40730664 2.17213685 4.9428941 0 0 Z " fill="#F9F0CA" transform="translate(115,31)"/>
<path d="M0 0 C10.56 0.66 21.12 1.32 32 2 C32 2.33 32 2.66 32 3 C27.79284906 3.25594323 23.58455162 3.47500935 19.375 3.6875 C18.18519531 3.76033203 16.99539062 3.83316406 15.76953125 3.90820312 C4.87831038 4.425384 4.87831038 4.425384 0 1 C0 0.67 0 0.34 0 0 Z " fill="#F9EB77" transform="translate(27,52)"/>
<path d="M0 0 C2 1 2 1 3.109375 2.98046875 C4.3336348 7.13113904 4.29019266 11.00853592 4.25 15.3125 C4.25773437 16.12912109 4.26546875 16.94574219 4.2734375 17.78710938 C4.25625035 23.17957721 3.50204333 27.82033469 2 33 C1.67 33 1.34 33 1 33 C1.165 31.845 1.33 30.69 1.5 29.5 C2.00009243 24.94118639 2.14537889 20.39527729 2.1875 15.8125 C2.20039062 15.13574219 2.21328125 14.45898438 2.2265625 13.76171875 C2.23503202 9.44226388 1.50978959 6.02809475 0 2 C0 1.34 0 0.68 0 0 Z " fill="#D1AB37" transform="translate(114,31)"/>
<path d="M0 0 C-1.75 7.625 -1.75 7.625 -4 11 C-6.30019361 7.54970958 -6.43132515 6.05445642 -6 2 C-3 0 -3 0 0 0 Z " fill="#B0972E" transform="translate(20,75)"/>
<path d="M0 0 C0.75 2.25 0.75 2.25 1 5 C-0.8125 7.3125 -0.8125 7.3125 -3 9 C-3.66 9 -4.32 9 -5 9 C-5 6.36 -5 3.72 -5 1 C-3 0 -3 0 0 0 Z " fill="#BC9D1F" transform="translate(29,53)"/>
<path d="M0 0 C3 3.75 3 3.75 3 6 C3.99 5.67 4.98 5.34 6 5 C6 6.32 6 7.64 6 9 C6.66 9.33 7.32 9.66 8 10 C2.375 10.25 2.375 10.25 -1 8 C-0.67 5.36 -0.34 2.72 0 0 Z " fill="#BDA71F" transform="translate(103,16)"/>
<path d="M0 0 C0.99 0.144375 1.98 0.28875 3 0.4375 C6.99409465 1.00925179 10.99532937 1.50819834 15 2 C13.02 2.99 13.02 2.99 11 4 C11 4.66 11 5.32 11 6 C5.64951939 5.62671065 3.49087093 4.0042343 0 0 Z " fill="#F8E964" transform="translate(19,74)"/>
<path d="M0 0 C0.66 0.66 1.32 1.32 2 2 C-0.31 4.64 -2.62 7.28 -5 10 C-6.98 9.34 -8.96 8.68 -11 8 C-10.38125 7.71125 -9.7625 7.4225 -9.125 7.125 C-6.86674235 6.06279958 -6.86674235 6.06279958 -5 4 C-4.01 4 -3.02 4 -2 4 C-2 3.34 -2 2.68 -2 2 C-1.34 2 -0.68 2 0 2 C0 1.34 0 0.68 0 0 Z " fill="#FDEA62" transform="translate(93,39)"/>
<path d="M0 0 C0.33 0 0.66 0 1 0 C1.38922918 1.28745036 1.76098036 2.58019597 2.125 3.875 C2.33382812 4.59429688 2.54265625 5.31359375 2.7578125 6.0546875 C2.83773437 6.69664063 2.91765625 7.33859375 3 8 C2.34 8.66 1.68 9.32 1 10 C0.67 8.35 0.34 6.7 0 5 C-2.97 5 -5.94 5 -9 5 C-9 3.68 -9 2.36 -9 1 C-4.545 1.99 -4.545 1.99 0 3 C0 2.01 0 1.02 0 0 Z " fill="#DDC22A" transform="translate(111,23)"/>
<path d="M0 0 C0.66 0.99 1.32 1.98 2 3 C1.505 3.45375 1.01 3.9075 0.5 4.375 C-1.22609337 5.87635519 -1.22609337 5.87635519 -1 8 C-2.53125 9.2890625 -2.53125 9.2890625 -4.5 10.625 C-5.1496875 11.07101563 -5.799375 11.51703125 -6.46875 11.9765625 C-6.9740625 12.31429687 -7.479375 12.65203125 -8 13 C-8.66 12.67 -9.32 12.34 -10 12 C-9.44570312 11.38511719 -8.89140625 10.77023438 -8.3203125 10.13671875 C-7.59585938 9.32847656 -6.87140625 8.52023438 -6.125 7.6875 C-5.40570313 6.88699219 -4.68640625 6.08648437 -3.9453125 5.26171875 C-1.88394498 2.95810917 -1.88394498 2.95810917 0 0 Z " fill="#FCF3D5" transform="translate(108,76)"/>
<path d="M0 0 C1 3 1 3 -0.25 5.5625 C-0.8275 6.696875 -1.405 7.83125 -2 9 C-3.1017517 12.30525511 -4.06487559 15.64416348 -5 19 C-5.66 19 -6.32 19 -7 19 C-5.48616831 12.01573108 -3.95346348 5.99835839 0 0 Z " fill="#F7C92C" transform="translate(110,28)"/>
<path d="M0 0 C2.58396679 -0.08112454 5.16537568 -0.14054748 7.75 -0.1875 C8.47960938 -0.21263672 9.20921875 -0.23777344 9.9609375 -0.26367188 C13.34486604 -0.30981636 15.57858557 -0.25324128 18.515625 1.51171875 C19.00546875 2.00285156 19.4953125 2.49398437 20 3 C13.04958914 3.26618595 6.76485645 2.6120509 0 1 C0 0.67 0 0.34 0 0 Z " fill="#FDF8B4" transform="translate(24,74)"/>
<path d="M0 0 C3.63 0 7.26 0 11 0 C11 0.99 11 1.98 11 3 C7.7 3 4.4 3 1 3 C0.67 2.01 0.34 1.02 0 0 Z " fill="#FED96E" transform="translate(55,60)"/>
<path d="M0 0 C0.33 0.99 0.66 1.98 1 3 C-1.83430453 6.2542015 -3.68607774 7.5206753 -8 8 C-8 6.68 -8 5.36 -8 4 C-6.865625 3.525625 -5.73125 3.05125 -4.5625 2.5625 C-1.24259834 1.36377917 -1.24259834 1.36377917 0 0 Z " fill="#EFBD17" transform="translate(95,45)"/>
<path d="M0 0 C0.33 0.66 0.66 1.32 1 2 C-0.07421875 4.34765625 -0.07421875 4.34765625 -1.6875 7.0625 C-2.20699219 7.96097656 -2.72648437 8.85945313 -3.26171875 9.78515625 C-5 12 -5 12 -7.20703125 12.80859375 C-7.79871094 12.87175781 -8.39039062 12.93492188 -9 13 C-8.60167969 12.48050781 -8.20335938 11.96101563 -7.79296875 11.42578125 C-4.97822677 7.72073158 -2.28614026 4.06424935 0 0 Z " fill="#F4C729" transform="translate(97,36)"/>
<path d="M0 0 C-0.804375 0.45375 -1.60875 0.9075 -2.4375 1.375 C-5.08856572 2.74725665 -5.08856572 2.74725665 -6 5 C-7.97888961 5.72693904 -9.97954558 6.39816251 -12 7 C-12 6.34 -12 5.68 -12 5 C-11.360625 4.896875 -10.72125 4.79375 -10.0625 4.6875 C-9.381875 4.460625 -8.70125 4.23375 -8 4 C-7.67 3.01 -7.34 2.02 -7 1 C-4.05697101 -0.96201933 -3.48011144 -1.16003715 0 0 Z " fill="#FBED55" transform="translate(86,69)"/>
<path d="M0 0 C0.66 1.98 1.32 3.96 2 6 C-3.75 4.375 -3.75 4.375 -6 1 C-3.92446352 0.4465236 -2.15634036 0 0 0 Z " fill="#DAAB35" transform="translate(37,68)"/>
<path d="M0 0 C-0.33 0.99 -0.66 1.98 -1 3 C-1.804375 3.12375 -2.60875 3.2475 -3.4375 3.375 C-4.7059375 3.684375 -4.7059375 3.684375 -6 4 C-6.33 4.66 -6.66 5.32 -7 6 C-7.33 4.35 -7.66 2.7 -8 1 C-5.07175348 0.02391783 -3.04386724 -0.08226668 0 0 Z " fill="#EFBD1D" transform="translate(84,57)"/>
<path d="M0 0 C0.33 0.99 0.66 1.98 1 3 C3.64 3 6.28 3 9 3 C8.67 3.99 8.34 4.98 8 6 C6.68 5.67 5.36 5.34 4 5 C3.67 5.66 3.34 6.32 3 7 C1 6 1 6 0 5 C-0.04063832 3.33382885 -0.042721 1.66611905 0 0 Z " fill="#F6DF4B" transform="translate(101,25)"/>
<path d="M0 0 C0.33 0.99 0.66 1.98 1 3 C2.65 2.67 4.3 2.34 6 2 C6.33 2.99 6.66 3.98 7 5 C6.34 5 5.68 5 5 5 C5 5.99 5 6.98 5 8 C4.34 8 3.68 8 3 8 C3 6.68 3 5.36 3 4 C2.01 4 1.02 4 0 4 C0 2.68 0 1.36 0 0 Z " fill="#FBC52A" transform="translate(102,48)"/>
<path d="M0 0 C0.99 0 1.98 0 3 0 C2.67 1.65 2.34 3.3 2 5 C1.01 5.33 0.02 5.66 -1 6 C-1.042721 4.33388095 -1.04063832 2.66617115 -1 1 C-0.67 0.67 -0.34 0.34 0 0 Z " fill="#6D5933" transform="translate(15,76)"/>
<path d="M0 0 C1.33597652 0.80814651 2.668725 1.62163181 4 2.4375 C5.11375 3.11619141 5.11375 3.11619141 6.25 3.80859375 C6.8275 4.20175781 7.405 4.59492187 8 5 C8 5.33 8 5.66 8 6 C6.35 6 4.7 6 3 6 C3 5.34 3 4.68 3 4 C1.68 4.33 0.36 4.66 -1 5 C-0.67 3.35 -0.34 1.7 0 0 Z " fill="#FDF7DC" transform="translate(29,68)"/>
<path d="M0 0 C1.5 1.25 1.5 1.25 3 3 C3 4.32 3 5.64 3 7 C1.68 6.67 0.36 6.34 -1 6 C-0.67 4.02 -0.34 2.04 0 0 Z " fill="#D9A405" transform="translate(29,58)"/>
<path d="M0 0 C1 3 1 3 0.22265625 4.82421875 C-0.8515625 6.54947917 -1.92578125 8.27473958 -3 10 C-3.66 10 -4.32 10 -5 10 C-3.66511872 6.40608886 -2.03977277 3.24509304 0 0 Z " fill="#F5C927" transform="translate(100,63)"/>
<path d="M0 0 C0.99 0 1.98 0 3 0 C2.67 1.65 2.34 3.3 2 5 C1.01 5.33 0.02 5.66 -1 6 C-0.67 4.02 -0.34 2.04 0 0 Z " fill="#FEE798" transform="translate(102,52)"/>
<path d="M0 0 C2.875 -0.125 2.875 -0.125 6 0 C6.66 0.66 7.32 1.32 8 2 C5.36 2.33 2.72 2.66 0 3 C0 2.01 0 1.02 0 0 Z " fill="#9E8564" transform="translate(104,14)"/>
<path d="M0 0 C-0.33 1.65 -0.66 3.3 -1 5 C-1.99 5 -2.98 5 -4 5 C-4 3.68 -4 2.36 -4 1 C-2 0 -2 0 0 0 Z " fill="#77632E" transform="translate(28,53)"/>
</svg>
