<?xml version="1.0" encoding="UTF-8"?>
<svg version="1.1" xmlns="http://www.w3.org/2000/svg" width="48" height="48">
<path d="M0 0 C3.0625 0.5625 3.0625 0.5625 4.9375 3.0625 C6.73864257 5.73703438 6.73864257 5.73703438 9.05078125 5.859375 C11.05667384 5.81662063 13.06045153 5.69378187 15.0625 5.5625 C16.91642146 7.41642146 16.29794204 9.98703037 16.390625 12.45703125 C16.0625 14.5625 16.0625 14.5625 14.453125 16.5234375 C13.99421875 17.19632813 13.5353125 17.86921875 13.0625 18.5625 C13.46728596 20.96739901 13.46728596 20.96739901 14.5625 23.375 C15.79253773 26.93369891 16.40406296 29.0294165 14.9375 32.5625 C13.0625 35.5625 13.0625 35.5625 10.0625 37.5625 C7.5390625 37.58203125 7.5390625 37.58203125 4.6875 37.375 C1.75350646 37.24060729 1.75350646 37.24060729 -0.9375 37.5625 C-2.62461423 39.2084651 -4.2920622 40.87487149 -5.9375 42.5625 C-10.91167479 43.6420371 -14.69626054 43.30724368 -19.0625 40.6875 C-21.65273135 36.37044774 -21.73133407 32.49262739 -20.9375 27.5625 C-19.9475 26.0775 -19.9475 26.0775 -18.9375 24.5625 C-18.66723629 22.44705136 -18.66723629 22.44705136 -18.625 20.1875 C-18.28379695 16.64245818 -17.93644695 15.56098237 -15.8125 12.5 C-12.27074208 10.11316314 -10.12524791 10.15193648 -5.9375 10.5625 C-5.999375 9.655 -6.06125 8.7475 -6.125 7.8125 C-5.9375 4.5625 -5.9375 4.5625 -4.8125 2.1875 C-2.9375 0.5625 -2.9375 0.5625 0 0 Z " fill="#138DE4" transform="translate(26.9375,2.4375)"/>
<path d="M0 0 C2.57523785 1.93142838 4.04585233 3.53997521 4.62109375 6.7734375 C4.74122945 10.9145859 4.584282 13.14150606 2.375 16.75 C-2.03457603 19.48393714 -5.69498499 19.68192918 -10.75 18.6875 C-13.875 16.8125 -13.875 16.8125 -15.75 13.6875 C-16.48987876 8.69132943 -16.58953044 4.94679566 -13.75 0.6875 C-9.04793394 -1.79414597 -4.85534276 -2.31732268 0 0 Z " fill="#74CFFA" transform="translate(21.75,26.3125)"/>
<path d="M0 0 C3.0625 0.5625 3.0625 0.5625 4.9375 3.0625 C6.73864257 5.73703438 6.73864257 5.73703438 9.05078125 5.859375 C11.05667384 5.81662063 13.06045153 5.69378187 15.0625 5.5625 C16.0625 6.5625 16.0625 6.5625 16.375 10.3125 C16.30034082 13.27753617 15.97289603 14.76730908 14.75 17.5625 C10.52750229 20.70482387 6.14921389 19.95715884 1.0625 19.5625 C0.65 18.61375 0.2375 17.665 -0.1875 16.6875 C-1.9415131 13.55533376 -2.64601757 12.69749394 -5.9375 11.5625 C-6.29647436 5.34027778 -6.29647436 5.34027778 -4.8125 2.125 C-2.9375 0.5625 -2.9375 0.5625 0 0 Z " fill="#21A367" transform="translate(26.9375,2.4375)"/>
<path d="M0 0 C3.5386994 1.65139305 4.81070153 2.71605229 7 6 C6.74309434 9.85358487 4.44365371 12.1622086 2 15 C1.46375 14.67 0.9275 14.34 0.375 14 C-3.84082647 12.22491517 -7.69849331 12.84118893 -12 14 C-12.47138774 9.19184502 -12.70477383 6.04648236 -9.9375 1.9375 C-6.24975797 -0.49484049 -4.34495691 -0.62070813 0 0 Z " fill="#2A6CCC" transform="translate(21,13)"/>
<path d="M0 0 C0.721875 0.00257813 1.44375 0.00515625 2.1875 0.0078125 C2.909375 0.00523437 3.63125 0.00265625 4.375 0 C6.1875 0.1328125 6.1875 0.1328125 7.1875 1.1328125 C7.5647864 5.66024934 7.69988679 8.12853439 5.625 12.1953125 C3.1875 14.1328125 3.1875 14.1328125 -0.5625 13.9453125 C-1.635 13.6771875 -2.7075 13.4090625 -3.8125 13.1328125 C-3.67216889 11.15324809 -3.5250877 9.17416109 -3.375 7.1953125 C-3.29378906 6.09316406 -3.21257813 4.99101562 -3.12890625 3.85546875 C-2.70387825 0.19812901 -2.70387825 0.19812901 0 0 Z " fill="#175E39" transform="translate(35.8125,7.8671875)"/>
<path d="M0 0 C0 4.62 0 9.24 0 14 C-1.98 13.01 -3.96 12.02 -6 11 C-6.36476427 4.67741935 -6.36476427 4.67741935 -4.6875 1.5625 C-3 0 -3 0 0 0 Z " fill="#32C381" transform="translate(27,3)"/>
<path d="M0 0 C2.625 0.375 2.625 0.375 5 1 C5.625 3.375 5.625 3.375 6 6 C5.34 6.66 4.68 7.32 4 8 C1.375 7.625 1.375 7.625 -1 7 C-1.625 4.625 -1.625 4.625 -2 2 C-1.34 1.34 -0.68 0.68 0 0 Z " fill="#4C94DF" transform="translate(12,30)"/>
<path d="M0 0 C2.625 0.375 2.625 0.375 5 1 C5.625 3.375 5.625 3.375 6 6 C5.34 6.66 4.68 7.32 4 8 C1.375 7.625 1.375 7.625 -1 7 C-1.625 4.625 -1.625 4.625 -2 2 C-1.34 1.34 -0.68 0.68 0 0 Z " fill="#166ECF" transform="translate(34,26)"/>
<path d="M0 0 C2.05078125 0.03255208 4.1015625 0.06510417 6.15234375 0.09765625 C3.83351162 4.60649651 1.08782806 7.03672401 -2.84765625 10.09765625 C-2.87454841 8.61858733 -2.89400246 7.13938142 -2.91015625 5.66015625 C-2.92175781 4.83644531 -2.93335938 4.01273438 -2.9453125 3.1640625 C-2.8198894 0.51010975 -2.66068535 0.14062819 0 0 Z " fill="#0F753E" transform="translate(35.84765625,7.90234375)"/>
<path d="M0 0 C2.625 0.9375 2.625 0.9375 5 2 C4.67 3.65 4.34 5.3 4 7 C1.625 7.625 1.625 7.625 -1 8 C-1.66 7.34 -2.32 6.68 -3 6 C-2.75 3.4375 -2.75 3.4375 -2 1 C-1.34 0.67 -0.68 0.34 0 0 Z " fill="#1F62C6" transform="translate(17,15)"/>
</svg>
