<?xml version="1.0" encoding="UTF-8"?>
<svg version="1.1" xmlns="http://www.w3.org/2000/svg" width="121" height="102">
<path d="M0 0 C39.93 0 79.86 0 121 0 C121 33.66 121 67.32 121 102 C81.07 102 41.14 102 0 102 C0 68.34 0 34.68 0 0 Z " fill="#FEFDFC" transform="translate(0,0)"/>
<path d="M0 0 C1.44016479 0.0153479 1.44016479 0.0153479 2.90942383 0.03100586 C15.3862052 0.40089784 26.49934296 4.62628561 36.25 12.5625 C41.97965862 18.67482536 45.38361506 23.60519407 45.5 32.0625 C45.60824717 36.48961244 45.60824717 36.48961244 47.609375 40.23046875 C49.41860199 41.40902239 49.41860199 41.40902239 52.25 42.5625 C55.31784807 48.69819614 53.75218232 58.14639531 51.6875 64.4375 C48.60543069 71.70390646 44.62606879 76.91698478 37.25 80.0625 C28.01202888 82.87570931 18.61139886 83.12166394 9.75 79.0625 C3.30819715 75.39883315 -1.83838029 70.46719816 -4.75 63.5625 C-4.75 62.5725 -4.75 61.5825 -4.75 60.5625 C-5.43964844 60.41554687 -6.12929688 60.26859375 -6.83984375 60.1171875 C-16.60751374 57.78580948 -25.75871744 52.91304408 -31.75 44.5625 C-34.44794218 38.63085408 -35.25305606 33.53384738 -35.4375 27.0625 C-35.47166016 26.24007812 -35.50582031 25.41765625 -35.54101562 24.5703125 C-35.6224988 22.5681545 -35.68794575 20.56535432 -35.75 18.5625 C-34.7909375 18.38642212 -34.7909375 18.38642212 -33.8125 18.20678711 C-33.131875 17.99417236 -32.45125 17.78155762 -31.75 17.5625 C-31.03650746 15.91533558 -30.3751979 14.24516153 -29.75 12.5625 C-27.9375 10.46484375 -27.9375 10.46484375 -25.75 8.5 C-25.04875 7.84902344 -24.3475 7.19804687 -23.625 6.52734375 C-16.18913869 1.44549832 -8.90329255 -0.14417331 0 0 Z " fill="#8A460B" transform="translate(52.75,8.4375)"/>
<path d="M0 0 C2.3671875 1.41796875 2.3671875 1.41796875 4 3 C4 4.32 4 5.64 4 7 C4.66 7 5.32 7 6 7 C6.17760064 11.52881629 6.09143803 14.93331494 4 19 C2 21 2 21 -1.125 21.125 C-2.07375 21.08375 -3.0225 21.0425 -4 21 C-4.33451172 21.9590625 -4.33451172 21.9590625 -4.67578125 22.9375 C-6 25 -6 25 -8.35546875 25.6875 C-9.29003906 25.790625 -10.22460938 25.89375 -11.1875 26 C-14.92044281 26.53746559 -17.72580522 27.12816368 -20.9375 29.125 C-24 31 -24 31 -28 31 C-28.433125 31.928125 -28.433125 31.928125 -28.875 32.875 C-30 35 -30 35 -32 37 C-38.26481742 38.86160945 -44.83025636 37.79921341 -51 36 C-54.87848836 33.22342567 -57.36475818 30.15429833 -58.71875 25.5625 C-59.02717789 22.75237919 -58.7682072 20.57399251 -58.1875 17.8125 C-57.93033203 16.52279297 -57.93033203 16.52279297 -57.66796875 15.20703125 C-57 13 -57 13 -55 11 C-55.66 10.67 -56.32 10.34 -57 10 C-43.06156405 -7.55371777 -19.75466844 -10.22289693 0 0 Z " fill="#A5600E" transform="translate(78,14)"/>
<path d="M0 0 C0.33 0 0.66 0 1 0 C1.01417969 0.90363281 1.02835938 1.80726562 1.04296875 2.73828125 C1.09066406 3.91777344 1.13835937 5.09726562 1.1875 6.3125 C1.23970703 8.07013672 1.23970703 8.07013672 1.29296875 9.86328125 C1.68863053 13.19681715 1.68863053 13.19681715 4.55078125 14.91796875 C5.35902344 15.27503906 6.16726562 15.63210937 7 16 C4 17 4 17 1.8125 16.0625 C1.214375 15.711875 0.61625 15.36125 0 15 C-0.33 17.31 -0.66 19.62 -1 22 C-1.99 22.33 -2.98 22.66 -4 23 C-4 22.34 -4 21.68 -4 21 C-6.97 21.495 -6.97 21.495 -10 22 C-6.6136749 23.50930183 -6.6136749 23.50930183 -3 24 C-4.66498733 28.8624257 -6.52015099 31.11493249 -10.8515625 33.8203125 C-19.87907393 37.20282919 -31.09770035 36.23596522 -39.9375 32.75 C-43.64504362 31.02159118 -46.36523254 29.15220486 -49 26 C-49.95800171 21.05032448 -49.95800171 21.05032448 -49 18 C-44.28301 12.43668989 -36.8160335 9.59848444 -29.70336914 8.71459961 C-27.37713661 8.59934593 -25.07862845 8.58453981 -22.75 8.625 C-21.93168701 8.63080078 -21.11337402 8.63660156 -20.27026367 8.64257812 C-13.14627509 8.79327654 -6.87830844 10.05788938 0 12 C0 8.04 0 4.08 0 0 Z " fill="#9EC725" transform="translate(97,34)"/>
<path d="M0 0 C1.53333984 0.01353516 1.53333984 0.01353516 3.09765625 0.02734375 C5.60701522 0.0507957 8.11588336 0.08361645 10.625 0.125 C10.625 0.455 10.625 0.785 10.625 1.125 C8.315 1.455 6.005 1.785 3.625 2.125 C4.429375 2.475625 5.23375 2.82625 6.0625 3.1875 C8.625 5.125 8.625 5.125 9.625 8.4375 C9.625 13.28194836 8.23418228 16.16599549 5.1875 19.875 C2.31337325 22.1743014 0.33690262 23.125 -3.375 23.125 C-3.375 23.785 -3.375 24.445 -3.375 25.125 C-11.793897 27.05720587 -20.16842362 28.82600503 -28.375 25.125 C-30.01704595 22.78325062 -30.569578 20.94397701 -31.375 18.125 C-31.045 17.465 -30.715 16.805 -30.375 16.125 C-31.035 15.795 -31.695 15.465 -32.375 15.125 C-23.23945893 3.61992796 -14.62005528 -0.24523964 0 0 Z " fill="#B77C0E" transform="translate(53.375,8.875)"/>
<path d="M0 0 C0.86625 1.11375 0.86625 1.11375 1.75 2.25 C7.24219405 8.96268161 11.42537948 10.7438454 20 12 C30.71222336 12.87175335 43.26076947 13.26318731 52.63671875 7.33203125 C53.41660156 6.89246094 54.19648437 6.45289062 55 6 C55.99 6.33 56.98 6.66 58 7 C50.6704934 11.11812484 44.49484137 13.96241221 36 14 C35.83312552 16.41645782 35.83312552 16.41645782 36 19 C36.66 19.66 37.32 20.32 38 21 C37.67 21.66 37.34 22.32 37 23 C36.01 23 35.02 23 34 23 C33.9071875 23.8971875 33.9071875 23.8971875 33.8125 24.8125 C33 27 33 27 30.875 28.6875 C26.54802479 30.66285825 23.25674154 31.72317482 18.57421875 30.22265625 C11.1417039 26.87294925 5.19489158 21.63394768 2 14 C2 13.01 2 12.02 2 11 C1.34 10.67 0.68 10.34 0 10 C0 6.7 0 3.4 0 0 Z " fill="#9D560D" transform="translate(46,58)"/>
<path d="M0 0 C0.33 0 0.66 0 1 0 C1.01417969 0.90363281 1.02835938 1.80726562 1.04296875 2.73828125 C1.09066406 3.91777344 1.13835937 5.09726562 1.1875 6.3125 C1.23970703 8.07013672 1.23970703 8.07013672 1.29296875 9.86328125 C1.68863053 13.19681715 1.68863053 13.19681715 4.55078125 14.91796875 C5.35902344 15.27503906 6.16726562 15.63210937 7 16 C4 17 4 17 1.8125 16.0625 C1.214375 15.711875 0.61625 15.36125 0 15 C-0.33 17.31 -0.66 19.62 -1 22 C-1.99 22.33 -2.98 22.66 -4 23 C-4 22.34 -4 21.68 -4 21 C-5.43793392 21.31049726 -6.8753318 21.6234776 -8.3125 21.9375 C-9.51326172 22.19853516 -9.51326172 22.19853516 -10.73828125 22.46484375 C-13.145401 22.99886159 -13.145401 22.99886159 -16 24 C-16.33 24.99 -16.66 25.98 -17 27 C-17.33 27.99 -17.66 28.98 -18 30 C-19.98 30 -21.96 30 -24 30 C-23.67 28.35 -23.34 26.7 -23 25 C-24.65 25 -26.3 25 -28 25 C-28 25.66 -28 26.32 -28 27 C-28.66 27 -29.32 27 -30 27 C-30.33 26.67 -30.66 26.34 -31 26 C-32.32594105 25.63837971 -33.65938457 25.30271961 -35 25 C-34.01 24.34 -33.02 23.68 -32 23 C-30.98377342 21.00819591 -29.98287008 19.00847365 -29 17 C-28.34 16.67 -27.68 16.34 -27 16 C-27 15.34 -27 14.68 -27 14 C-27.66 13.67 -28.32 13.34 -29 13 C-29 12.34 -29 11.68 -29 11 C-30.32 11.33 -31.64 11.66 -33 12 C-30.525 13.98 -30.525 13.98 -28 16 C-30.31 16 -32.62 16 -35 16 C-35 15.01 -35 14.02 -35 13 C-35.66 12.67 -36.32 12.34 -37 12 C-36.34 12 -35.68 12 -35 12 C-35 11.34 -35 10.68 -35 10 C-24.21961015 6.40653672 -10.61862663 9.00179954 0 12 C0 8.04 0 4.08 0 0 Z " fill="#90AC1F" transform="translate(97,34)"/>
<path d="M0 0 C0.33 0 0.66 0 1 0 C0.57906984 8.69922325 -1.7349986 16.31642892 -8.25 22.4375 C-16.7098582 28.81854689 -25.83835007 28.36148162 -36 28 C-36 27.34 -36 26.68 -36 26 C-35.37351562 25.82984375 -34.74703125 25.6596875 -34.1015625 25.484375 C-33.28429687 25.24203125 -32.46703125 24.9996875 -31.625 24.75 C-30.81289062 24.51796875 -30.00078125 24.2859375 -29.1640625 24.046875 C-26.54214546 22.7785108 -26.00617682 21.67576692 -25 19 C-24.01 19 -23.02 19 -22 19 C-22 18.34 -22 17.68 -22 17 C-22.66 16.34 -23.32 15.68 -24 15 C-23.625 12.375 -23.625 12.375 -23 10 C-22.16597656 9.84144531 -21.33195312 9.68289062 -20.47265625 9.51953125 C-13.3527171 8.04334685 -6.93187241 6.36251782 -1 2 C-0.67 1.34 -0.34 0.68 0 0 Z " fill="#884308" transform="translate(105,62)"/>
<path d="M0 0 C1.33333333 0.33333333 2.66666667 0.66666667 4 1 C4.721875 1.144375 5.44375 1.28875 6.1875 1.4375 C6.785625 1.623125 7.38375 1.80875 8 2 C9.18306728 4.36613456 9.13354608 5.86780736 9.125 8.5 C9.12886719 9.69109375 9.12886719 9.69109375 9.1328125 10.90625 C9 13 9 13 8 15 C5.67640798 16.09066564 3.38647543 17.06835671 1 18 C0.3296875 18.27199219 -0.340625 18.54398438 -1.03125 18.82421875 C-12.96287531 23.52803257 -28.20435375 23.74683262 -40.49609375 20.10546875 C-44.63289716 18.27907972 -47.68054736 15.91357817 -50 12 C-50.4375 8.0625 -50.4375 8.0625 -50 5 C-49.67 5 -49.34 5 -49 5 C-48.835 6.051875 -48.67 7.10375 -48.5 8.1875 C-47.30528053 12.403153 -44.94329516 13.83585535 -41.265625 15.95703125 C-32.67785741 19.91036564 -23.31537062 20.27368338 -14 19 C-9.42098197 17.26313109 -6.17042553 15.12257235 -3.78515625 10.796875 C-3.52605469 10.20390625 -3.26695313 9.6109375 -3 9 C-3.556875 9.20625 -4.11375 9.4125 -4.6875 9.625 C-7.659538 10.10695211 -9.31979941 9.26565028 -12 8 C-10 6 -10 6 -6.875 5.875 C-5.92625 5.91625 -4.9775 5.9575 -4 6 C-4 6.66 -4 7.32 -4 8 C-1.10067643 5.60490662 -0.49831724 3.68754757 0 0 Z " fill="#7EAE0C" transform="translate(97,49)"/>
<path d="M0 0 C6.73995003 2.18057207 11.50094559 6.61079921 15.09765625 12.59765625 C16.84396712 17.24692544 16.36611757 22.11843237 16 27 C14.865625 26.72285156 13.73125 26.44570313 12.5625 26.16015625 C11.04172152 25.79404291 9.52088505 25.42817037 8 25.0625 C7.25621094 24.88009766 6.51242188 24.69769531 5.74609375 24.50976562 C0.8385724 23.33622791 -3.98254788 22.54165676 -9 22 C-8.4375 20.125 -8.4375 20.125 -7 18 C-5.2675 17.5359375 -5.2675 17.5359375 -3.5 17.0625 C0.08763492 16.39103759 0.08763492 16.39103759 1.375 13.8125 C2.09914905 10.55382929 2.61001278 7.31489138 3 4 C2.34 4 1.68 4 1 4 C0.67 2.68 0.34 1.36 0 0 Z " fill="#8D4D14" transform="translate(81,17)"/>
<path d="M0 0 C0.7115625 0.1652417 1.423125 0.3304834 2.15625 0.50073242 C4.1640625 1.01953125 4.1640625 1.01953125 7.375 2.1875 C7.87 3.6725 7.87 3.6725 8.375 5.1875 C7.65699219 5.043125 6.93898437 4.89875 6.19921875 4.75 C-8.8434173 2.05244136 -24.21733463 0.81545998 -37.6875 9.0625 C-42.4594766 14.29628079 -41.86219376 20.51971995 -41.625 27.1875 C-44.0625 26.8125 -44.0625 26.8125 -46.625 26.1875 C-48.49246183 22.45257634 -46.07869647 18.24087502 -44.84375 14.4609375 C-42.88603792 9.20272364 -41.25675032 5.51977236 -36.1171875 2.91796875 C-34.34147643 2.20211942 -32.54690982 1.53075334 -30.734375 0.9140625 C-28.66507289 0.37366531 -28.66507289 0.37366531 -27.625 -0.8125 C-18.09613405 -2.40064432 -9.39041227 -2.25048248 0 0 Z " fill="#7B3F08" transform="translate(88.625,40.8125)"/>
<path d="M0 0 C0.86625 1.11375 0.86625 1.11375 1.75 2.25 C5.68918673 7.06456156 8.03148919 9.39814982 14.25 10.75 C15.86648437 11.11351563 15.86648437 11.11351563 17.515625 11.484375 C18.33546875 11.65453125 19.1553125 11.8246875 20 12 C20 12.33 20 12.66 20 13 C17.69 13 15.38 13 13 13 C14.22836439 20.04351948 14.22836439 20.04351948 18 26 C18 26.66 18 27.32 18 28 C19.65 28.66 21.3 29.32 23 30 C22.34 30.33 21.68 30.66 21 31 C12.90233794 28.29091013 7.05514781 23.29625952 2.8125 15.94140625 C2 14 2 14 2 11 C1.34 10.67 0.68 10.34 0 10 C0 6.7 0 3.4 0 0 Z " fill="#B68126" transform="translate(46,58)"/>
<path d="M0 0 C0.33 0 0.66 0 1 0 C0.61396188 7.97812125 -1.23666341 14.83283505 -6.7109375 20.89453125 C-9.81688592 23.68174697 -12.89037299 25.97259325 -17 27 C-17.99 26.67 -18.98 26.34 -20 26 C-19 24 -19 24 -16 23 C-14.64691687 21.68671343 -13.31129922 20.35500919 -12 19 C-11.67 19 -11.34 19 -11 19 C-10.22596442 14.93631321 -9.9015298 11.13574827 -10 7 C-9.36191406 6.66226563 -8.72382812 6.32453125 -8.06640625 5.9765625 C-7.24011719 5.53054687 -6.41382812 5.08453125 -5.5625 4.625 C-4.32693359 3.96371094 -4.32693359 3.96371094 -3.06640625 3.2890625 C-0.86533422 2.16581441 -0.86533422 2.16581441 0 0 Z " fill="#773B11" transform="translate(105,62)"/>
<path d="M0 0 C-0.66 1.98 -1.32 3.96 -2 6 C2.455 5.505 2.455 5.505 7 5 C7 5.66 7 6.32 7 7 C4.03 7 1.06 7 -2 7 C-1.36071232 11.61360259 -1.36071232 11.61360259 0 16 C2.91382515 17.55514887 2.91382515 17.55514887 6 18 C6.66 18.66 7.32 19.32 8 20 C1.08346812 19.56771676 -4.08638517 16.91361483 -9 12 C-9.33953612 8.99268012 -9.56731553 6.89961271 -9 4 C-5.87254514 0.52505016 -4.73718042 0 0 0 Z " fill="#B3DA32" transform="translate(57,48)"/>
<path d="M0 0 C0 1.32 0 2.64 0 4 C-1.65 4.33 -3.3 4.66 -5 5 C-5 5.99 -5 6.98 -5 8 C-9.20406102 11.54717649 -12.76933149 11.2659662 -18 11 C-18.6875 9.25 -18.6875 9.25 -19 7 C-17.52572126 3.75658678 -15.48113265 2.57858023 -12.3125 1.25 C-8.09113397 -0.19889187 -4.43349174 -0.23750849 0 0 Z " fill="#C29113" transform="translate(50,14)"/>
<path d="M0 0 C0.33 0 0.66 0 1 0 C1.165 1.051875 1.33 2.10375 1.5 3.1875 C2.69471947 7.403153 5.05670484 8.83585535 8.734375 10.95703125 C15.47704466 14.06098435 21.35164164 14.36594897 28.6875 14.375 C29.71294922 14.39949219 30.73839844 14.42398438 31.79492188 14.44921875 C39.20524137 14.47730587 48.07935243 13.81083985 53.68237305 8.36474609 C54.11718994 7.91437988 54.55200684 7.46401367 55 7 C55.66 7 56.32 7 57 7 C57.33 4.69 57.66 2.38 58 0 C58.33 0 58.66 0 59 0 C59.125 7.75 59.125 7.75 58 10 C55.67640798 11.09066564 53.38647543 12.06835671 51 13 C50.3296875 13.27199219 49.659375 13.54398438 48.96875 13.82421875 C37.03712469 18.52803257 21.79564625 18.74683262 9.50390625 15.10546875 C5.36710284 13.27907972 2.31945264 10.91357817 0 7 C-0.4375 3.0625 -0.4375 3.0625 0 0 Z " fill="#728A06" transform="translate(47,54)"/>
<path d="M0 0 C0.66 1.32 1.32 2.64 2 4 C2.99 3.34 3.98 2.68 5 2 C5 2.99 5 3.98 5 5 C5.66 5 6.32 5 7 5 C7 4.34 7 3.68 7 3 C7.99 2.67 8.98 2.34 10 2 C9.566875 2.7734375 9.566875 2.7734375 9.125 3.5625 C7.84450737 6.14213157 7.84450737 6.14213157 7.0625 9.6875 C6.711875 10.780625 6.36125 11.87375 6 13 C2.47005387 14.17664871 -0.29455413 14.19850603 -4 14 C-4.99 13.34 -5.98 12.68 -7 12 C-6.67 10.68 -6.34 9.36 -6 8 C-4.35 7.67 -2.7 7.34 -1 7 C-0.67 4.69 -0.34 2.38 0 0 Z " fill="#ADC041" transform="translate(76,44)"/>
<path d="M0 0 C0.99 0.33 1.98 0.66 3 1 C-10.44081635 8.3439512 -21.98264541 9.37836659 -37 10 C-36.79503906 10.61359375 -36.59007813 11.2271875 -36.37890625 11.859375 C-36.19134766 12.91898438 -36.19134766 12.91898438 -36 14 C-37.9375 16.25 -37.9375 16.25 -40 18 C-42.3349917 14.35157547 -42.07914039 11.23895694 -42 7 C-41.30551758 6.98541748 -40.61103516 6.97083496 -39.89550781 6.95581055 C-36.67984235 6.88030164 -33.46510173 6.78398946 -30.25 6.6875 C-29.15816406 6.66494141 -28.06632812 6.64238281 -26.94140625 6.61914062 C-18.61686093 6.34822347 -9.56785137 5.86477696 -2.34472656 1.3347168 C-1.18408691 0.67403198 -1.18408691 0.67403198 0 0 Z " fill="#9C7316" transform="translate(101,64)"/>
<path d="M0 0 C0 1.32 0 2.64 0 4 C1.65 3.67 3.3 3.34 5 3 C3.68 2.01 2.36 1.02 1 0 C2.65 -0.33 4.3 -0.66 6 -1 C6 -0.34 6 0.32 6 1 C6.99 1.33 7.98 1.66 9 2 C7.9545437 5.13636891 7.23811043 5.76188957 5 8 C4.54625 8.86625 4.0925 9.7325 3.625 10.625 C2 13 2 13 -0.6875 13.8125 C-1.450625 13.874375 -2.21375 13.93625 -3 14 C-3 13.34 -3 12.68 -3 12 C0 10 0 10 3 10 C2.67 9.34 2.34 8.68 2 8 C-0.97 8 -3.94 8 -7 8 C-6 4 -6 4 -5 2 C-5.99 1.67 -6.98 1.34 -8 1 C-4.93251126 -0.86240388 -3.40254489 -1.2151946 0 0 Z " fill="#B6D345" transform="translate(62,46)"/>
<path d="M0 0 C0.33 0.66 0.66 1.32 1 2 C-0.98 2.66 -2.96 3.32 -5 4 C-5 4.66 -5 5.32 -5 6 C-4.01 5.67 -3.02 5.34 -2 5 C0.1875 5.4375 0.1875 5.4375 2 6 C2 5.34 2 4.68 2 4 C2.66 4.33 3.32 4.66 4 5 C3.34 7.31 2.68 9.62 2 12 C2.66 12.33 3.32 12.66 4 13 C-3.22222222 12.51851852 -3.22222222 12.51851852 -6.4375 10.375 C-8.46510657 7.29303801 -8.72001908 4.63975198 -9 1 C-4.545 0.505 -4.545 0.505 0 0 Z " fill="#9CC71A" transform="translate(64,54)"/>
<path d="M0 0 C1.53333984 0.01353516 1.53333984 0.01353516 3.09765625 0.02734375 C5.60701522 0.0507957 8.11588336 0.08361645 10.625 0.125 C10.625 0.455 10.625 0.785 10.625 1.125 C9.69433716 1.16258423 9.69433716 1.16258423 8.74487305 1.20092773 C5.93387603 1.31696721 3.12320759 1.43965759 0.3125 1.5625 C-0.66396484 1.60181641 -1.64042969 1.64113281 -2.64648438 1.68164062 C-3.58427734 1.72353516 -4.52207031 1.76542969 -5.48828125 1.80859375 C-6.78439331 1.86358032 -6.78439331 1.86358032 -8.10668945 1.91967773 C-10.7590037 2.15975913 -12.73780427 2.45594449 -14.625 4.4375 C-17.43028688 7.14259806 -21.40417179 10.125 -25.375 10.125 C-25.705 11.115 -26.035 12.105 -26.375 13.125 C-28.4375 13.8125 -28.4375 13.8125 -30.375 14.125 C-30.375 14.785 -30.375 15.445 -30.375 16.125 C-31.035 15.795 -31.695 15.465 -32.375 15.125 C-23.23945893 3.61992796 -14.62005528 -0.24523964 0 0 Z " fill="#B27E38" transform="translate(53.375,8.875)"/>
<path d="M0 0 C0.99 0.33 1.98 0.66 3 1 C3.6875 3.0625 3.6875 3.0625 4 5 C3.01 4.67 2.02 4.34 1 4 C0.3503125 4.99 0.3503125 4.99 -0.3125 6 C-0.869375 6.66 -1.42625 7.32 -2 8 C-2.99 8 -3.98 8 -5 8 C-5.66 9.32 -6.32 10.64 -7 12 C-11.95 12 -16.9 12 -22 12 C-22 11.34 -22 10.68 -22 10 C-19.03 10 -16.06 10 -13 10 C-12.67 9.34 -12.34 8.68 -12 8 C-10.02 8 -8.04 8 -6 8 C-5.731875 7.360625 -5.46375 6.72125 -5.1875 6.0625 C-4 4 -4 4 -1 3 C-0.67 2.01 -0.34 1.02 0 0 Z " fill="#8A4A18" transform="translate(91,78)"/>
<path d="M0 0 C0.56891054 4.83573957 -1.11578192 7.20931338 -4 11 C-4.4125 11.598125 -4.825 12.19625 -5.25 12.8125 C-8.21451569 14.82413564 -11.47478745 14.71104815 -15 15 C-14.278125 14.443125 -13.55625 13.88625 -12.8125 13.3125 C-7.7209959 9.23802428 -7.7209959 9.23802428 -4 4 C-4.556875 4.20625 -5.11375 4.4125 -5.6875 4.625 C-8.659538 5.10695211 -10.31979941 4.26565028 -13 3 C-11 1 -11 1 -7.875 0.875 C-6.92625 0.91625 -5.9775 0.9575 -5 1 C-5 1.66 -5 2.32 -5 3 C-4.54625 2.505 -4.0925 2.01 -3.625 1.5 C-2 0 -2 0 0 0 Z " fill="#81B008" transform="translate(98,54)"/>
<path d="M0 0 C0.91652344 -0.01611328 1.83304688 -0.03222656 2.77734375 -0.04882812 C8.79946851 -0.05312351 13.24341666 0.86297525 18.75 3.3125 C18.75 3.9725 18.75 4.6325 18.75 5.3125 C18.04359375 5.17972656 17.3371875 5.04695313 16.609375 4.91015625 C6.35479317 3.1452345 -3.86630713 2.70590013 -14.25 2.3125 C-9.58732095 -0.36914097 -5.25603159 -0.01817438 0 0 Z " fill="#665302" transform="translate(78.25,40.6875)"/>
<path d="M0 0 C0.33 0.99 0.66 1.98 1 3 C0.01 3.33 -0.98 3.66 -2 4 C-2.22119939 6.62450086 -2.42746669 9.24870486 -2.625 11.875 C-2.68945312 12.62136719 -2.75390625 13.36773437 -2.8203125 14.13671875 C-2.96087365 16.0870047 -2.98759849 18.04469467 -3 20 C-2.34 20.66 -1.68 21.32 -1 22 C-0.73008094 24.68839385 -0.91262643 27.29141936 -1 30 C-4.29020944 25.99452764 -5.06124876 22.77502476 -5.31640625 17.671875 C-5.35830078 16.87265625 -5.40019531 16.0734375 -5.44335938 15.25 C-5.48267578 14.425 -5.52199219 13.6 -5.5625 12.75 C-5.60568359 11.90953125 -5.64886719 11.0690625 -5.69335938 10.203125 C-5.79908543 8.13559329 -5.90001295 6.06781719 -6 4 C-4.02 3.34 -2.04 2.68 0 2 C0 1.34 0 0.68 0 0 Z " fill="#955E22" transform="translate(23,23)"/>
<path d="M0 0 C0.66 0 1.32 0 2 0 C0.60744324 5.26076997 -2.73229773 7.93979017 -7 11 C-9.75 12.4375 -9.75 12.4375 -12 13 C-12.99 12.67 -13.98 12.34 -15 12 C-14 10 -14 10 -11 9 C-9.64691687 7.68671343 -8.31129922 6.35500919 -7 5 C-6.67 5 -6.34 5 -6 5 C-5.67 3.68 -5.34 2.36 -5 1 C-3.68 1 -2.36 1 -1 1 C-0.67 0.67 -0.34 0.34 0 0 Z " fill="#703F1A" transform="translate(100,76)"/>
<path d="M0 0 C3.68743234 -0.05850924 7.3747437 -0.09376673 11.0625 -0.125 C12.10083984 -0.14175781 13.13917969 -0.15851562 14.20898438 -0.17578125 C19.88711284 -0.21183286 24.64391054 0.07028834 30 2 C27.61426621 3.89213369 25.92824652 5.02391783 23 6 C22.67 5.34 22.34 4.68 22 4 C21.67 4.66 21.34 5.32 21 6 C20.34 6 19.68 6 19 6 C19 5.34 19 4.68 19 4 C14.86581409 2.05543072 11.230003 1.62971979 6.6875 1.375 C4.80611328 1.26285156 4.80611328 1.26285156 2.88671875 1.1484375 C1.45779297 1.07496094 1.45779297 1.07496094 0 1 C0 0.67 0 0.34 0 0 Z " fill="#AB6D19" transform="translate(43,10)"/>
<path d="M0 0 C1.28197266 -0.00386719 1.28197266 -0.00386719 2.58984375 -0.0078125 C4.88930852 0.11569746 6.85890348 0.48079313 9.0625 1.125 C9.0625 1.785 9.0625 2.445 9.0625 3.125 C7.4125 3.455 5.7625 3.785 4.0625 4.125 C4.0625 4.785 4.0625 5.445 4.0625 6.125 C3.4025 6.125 2.7425 6.125 2.0625 6.125 C1.7325 5.465 1.4025 4.805 1.0625 4.125 C0.0725 4.785 -0.9175 5.445 -1.9375 6.125 C-2.5975 5.465 -3.2575 4.805 -3.9375 4.125 C-4.2675 4.785 -4.5975 5.445 -4.9375 6.125 C-5.5975 6.125 -6.2575 6.125 -6.9375 6.125 C-7.2675 4.475 -7.5975 2.825 -7.9375 1.125 C-5.0043642 0.14728807 -3.05571006 -0.00919011 0 0 Z " fill="#95B723" transform="translate(78.9375,42.875)"/>
<path d="M0 0 C3.05082939 1.01694313 3.90372675 1.72144212 6 4 C6.66 4.66 7.32 5.32 8 6 C7.01 6 6.02 6 5 6 C5.22816406 6.62648438 5.45632812 7.25296875 5.69140625 7.8984375 C6.12259766 9.12433594 6.12259766 9.12433594 6.5625 10.375 C6.85253906 11.18710938 7.14257812 11.99921875 7.44140625 12.8359375 C8 15 8 15 7 17 C5.99157547 15.56839732 4.99352109 14.12948547 4 12.6875 C3.443125 11.88699219 2.88625 11.08648437 2.3125 10.26171875 C1 8 1 8 1 5 C0.34 4.67 -0.32 4.34 -1 4 C-0.67 2.68 -0.34 1.36 0 0 Z " fill="#CDA047" transform="translate(47,64)"/>
<path d="M0 0 C1.32 0 2.64 0 4 0 C3.34 1.98 2.68 3.96 2 6 C6.455 5.505 6.455 5.505 11 5 C11 5.66 11 6.32 11 7 C8.03 7 5.06 7 2 7 C2.33 9.64 2.66 12.28 3 15 C2.01 14.67 1.02 14.34 0 14 C-1.86987216 10.26025568 -1.30641834 5.53209172 -0.5 1.5 C-0.335 1.005 -0.17 0.51 0 0 Z " fill="#C0E44A" transform="translate(53,48)"/>
<path d="M0 0 C0 1.32 0 2.64 0 4 C1.32 4.33 2.64 4.66 4 5 C3.67 5.66 3.34 6.32 3 7 C0.71484375 7.4140625 0.71484375 7.4140625 -2.0625 7.625 C-2.98160156 7.69976562 -3.90070312 7.77453125 -4.84765625 7.8515625 C-5.91306641 7.92503906 -5.91306641 7.92503906 -7 8 C-6.49396008 5.83125748 -6.00016187 4.00032373 -5 2 C-5.99 1.67 -6.98 1.34 -8 1 C-4.93251126 -0.86240388 -3.40254489 -1.2151946 0 0 Z " fill="#A0C429" transform="translate(62,46)"/>
<path d="M0 0 C0.86625 1.11375 0.86625 1.11375 1.75 2.25 C5.68918673 7.06456156 8.03148919 9.39814982 14.25 10.75 C15.86648437 11.11351563 15.86648437 11.11351563 17.515625 11.484375 C18.33546875 11.65453125 19.1553125 11.8246875 20 12 C20 12.33 20 12.66 20 13 C15.38 13.33 10.76 13.66 6 14 C6.33 13.01 6.66 12.02 7 11 C5.18777466 8.9375006 5.18777466 8.9375006 3 7 C2.01 7 1.02 7 0 7 C0 4.69 0 2.38 0 0 Z " fill="#B09226" transform="translate(46,58)"/>
<path d="M0 0 C0.33 0 0.66 0 1 0 C1.33 5.28 1.66 10.56 2 16 C0.35 15.67 -1.3 15.34 -3 15 C-4.57156655 11.8568669 -3.11705576 9.634536 -2.0625 6.375 C-1.68222656 5.18648437 -1.30195312 3.99796875 -0.91015625 2.7734375 C-0.60980469 1.85820313 -0.30945312 0.94296875 0 0 Z " fill="#703907" transform="translate(45,52)"/>
<path d="M0 0 C0.5625 1.9375 0.5625 1.9375 1 4 C0 5 0 5 -1.84765625 5.09765625 C-3.8984375 5.06510417 -5.94921875 5.03255208 -8 5 C-8.33 3.68 -8.66 2.36 -9 1 C-5.64919071 -1.10976881 -3.77897651 -1.0497157 0 0 Z " fill="#E5E06F" transform="translate(78,52)"/>
<path d="M0 0 C2.05078125 0.03255208 4.1015625 0.06510417 6.15234375 0.09765625 C6.15234375 1.41765625 6.15234375 2.73765625 6.15234375 4.09765625 C3.19569856 5.57597885 0.41004638 5.15798408 -2.84765625 5.09765625 C-2.84765625 0.15051037 -2.84765625 0.15051037 0 0 Z " fill="#DFBA52" transform="translate(43.84765625,13.90234375)"/>
<path d="M0 0 C2.31289806 1.15644903 4.60213585 2.32724775 6.875 3.5625 C9.98467949 4.99295257 12.61772053 5.59734768 16 6 C16 7.32 16 8.64 16 10 C9.46746236 8.3113168 4.64602707 5.98962392 0 1 C0 0.67 0 0.34 0 0 Z " fill="#7C4823" transform="translate(26,57)"/>
<path d="M0 0 C0.94875 0.04125 1.8975 0.0825 2.875 0.125 C1.885 0.62 1.885 0.62 0.875 1.125 C0.59914063 1.79015625 0.32328125 2.4553125 0.0390625 3.140625 C-1.125 5.125 -1.125 5.125 -3.2890625 5.734375 C-4.10117188 5.78078125 -4.91328125 5.8271875 -5.75 5.875 C-6.56726563 5.93171875 -7.38453125 5.9884375 -8.2265625 6.046875 C-8.85304688 6.07265625 -9.47953125 6.0984375 -10.125 6.125 C-10.125 5.465 -10.125 4.805 -10.125 4.125 C-8.949375 3.691875 -8.949375 3.691875 -7.75 3.25 C-0.18382353 0.00735294 -0.18382353 0.00735294 0 0 Z " fill="#A25F1E" transform="translate(73.125,33.875)"/>
<path d="M0 0 C0.66 0.33 1.32 0.66 2 1 C2 2.65 2 4.3 2 6 C2.66 6.33 3.32 6.66 4 7 C1.65147472 8.17426264 0.26225935 8.11508173 -2.3515625 8.09765625 C-3.20234375 8.09443359 -4.053125 8.09121094 -4.9296875 8.08789062 C-5.81914063 8.07951172 -6.70859375 8.07113281 -7.625 8.0625 C-8.97078125 8.05573242 -8.97078125 8.05573242 -10.34375 8.04882812 C-12.56256648 8.03702591 -14.78125018 8.02056155 -17 8 C-17 7.67 -17 7.34 -17 7 C-15.41058594 6.90912109 -15.41058594 6.90912109 -13.7890625 6.81640625 C-12.40102779 6.73199873 -11.01300768 6.64735083 -9.625 6.5625 C-8.92632812 6.52318359 -8.22765625 6.48386719 -7.5078125 6.44335938 C-3.62639508 6.25719866 -3.62639508 6.25719866 0 5 C0 3.35 0 1.7 0 0 Z " fill="#93C31A" transform="translate(81,61)"/>
<path d="M0 0 C1.98 0.66 3.96 1.32 6 2 C6 2.66 6 3.32 6 4 C1.05 4 -3.9 4 -9 4 C-9 3.34 -9 2.68 -9 2 C-6.03 2 -3.06 2 0 2 C0 1.34 0 0.68 0 0 Z " fill="#89532C" transform="translate(78,86)"/>
<path d="M0 0 C1.65 0 3.3 0 5 0 C4.67 3.3 4.34 6.6 4 10 C3.34 10 2.68 10 2 10 C0.68373308 6.38026598 0 3.90432869 0 0 Z " fill="#B77E0E" transform="translate(53,71)"/>
<path d="M0 0 C-0.93972656 0.54527344 -0.93972656 0.54527344 -1.8984375 1.1015625 C-7.22879144 4.28879099 -7.22879144 4.28879099 -10.5625 9.375 C-10.706875 10.24125 -10.85125 11.1075 -11 12 C-11.33 12 -11.66 12 -12 12 C-12.1953125 5.9453125 -12.1953125 5.9453125 -12 4 C-11.34 3.34 -10.68 2.68 -10 2 C-9.01 2 -8.02 2 -7 2 C-7 1.34 -7 0.68 -7 0 C-3.98968256 -0.93423645 -3.13349732 -1.04449911 0 0 Z " fill="#6D5902" transform="translate(58,46)"/>
<path d="M0 0 C0.33 0.66 0.66 1.32 1 2 C-0.5823006 2.33820166 -2.16589375 2.67035939 -3.75 3 C-5.07257812 3.2784375 -5.07257812 3.2784375 -6.421875 3.5625 C-9 4 -9 4 -13 4 C-13 4.66 -13 5.32 -13 6 C-13.66 5.67 -14.32 5.34 -15 5 C-13.61147985 2.22295969 -12.03211518 1.96617263 -9.1875 0.8125 C-7.87845703 0.26529297 -7.87845703 0.26529297 -6.54296875 -0.29296875 C-3.83418586 -1.04610193 -2.56821323 -1.09076922 0 0 Z " fill="#764602" transform="translate(64,42)"/>
<path d="M0 0 C0.66 0.33 1.32 0.66 2 1 C0.68 3.31 -0.64 5.62 -2 8 C-2.33 7.34 -2.66 6.68 -3 6 C-2.67 5.34 -2.34 4.68 -2 4 C-2.556875 4.20625 -3.11375 4.4125 -3.6875 4.625 C-6.659538 5.10695211 -8.31979941 4.26565028 -11 3 C-9 1 -9 1 -5.875 0.875 C-4.92625 0.91625 -3.9775 0.9575 -3 1 C-3 1.66 -3 2.32 -3 3 C-2.01 2.01 -1.02 1.02 0 0 Z " fill="#8AB70E" transform="translate(96,54)"/>
<path d="M0 0 C2 1 2 1 3.125 4.0625 C3.41375 5.031875 3.7025 6.00125 4 7 C3.01 7.495 3.01 7.495 2 8 C1.34444881 10.52733235 1.34444881 10.52733235 1 13 C0.34 13 -0.32 13 -1 13 C-1.07654536 8.48382401 -1.10228696 4.40914783 0 0 Z " fill="#AF6809" transform="translate(21,27)"/>
<path d="M0 0 C0.33 0.66 0.66 1.32 1 2 C-4.75 5 -4.75 5 -7 5 C-7.33 5.99 -7.66 6.98 -8 8 C-8.33 5.69 -8.66 3.38 -9 1 C-4.545 0.505 -4.545 0.505 0 0 Z " fill="#94BB1D" transform="translate(64,54)"/>
<path d="M0 0 C0 0.66 0 1.32 0 2 C-2.64 2.33 -5.28 2.66 -8 3 C-8 3.66 -8 4.32 -8 5 C-5.36 5 -2.72 5 0 5 C0 5.33 0 5.66 0 6 C-4.455 6.495 -4.455 6.495 -9 7 C-9.33 5.35 -9.66 3.7 -10 2 C-3.375 0 -3.375 0 0 0 Z " fill="#BADD45" transform="translate(94,49)"/>
<path d="M0 0 C0.33 0 0.66 0 1 0 C1.01417969 0.90363281 1.02835937 1.80726562 1.04296875 2.73828125 C1.09066406 3.91777344 1.13835937 5.09726562 1.1875 6.3125 C1.22230469 7.48425781 1.25710937 8.65601563 1.29296875 9.86328125 C1.68863053 13.19681715 1.68863053 13.19681715 4.55078125 14.91796875 C5.35902344 15.27503906 6.16726562 15.63210937 7 16 C2.82412255 17.39195915 0.86525224 15.82323219 -3 14 C-3 13.34 -3 12.68 -3 12 C-2.01 12 -1.02 12 0 12 C0 8.04 0 4.08 0 0 Z " fill="#999F4A" transform="translate(97,34)"/>
<path d="M0 0 C2.97 0.495 2.97 0.495 6 1 C6.33 2.32 6.66 3.64 7 5 C3.36576791 7.32590854 0.22911669 7.16265833 -4 7 C-4 6.67 -4 6.34 -4 6 C-2.02 5.67 -0.04 5.34 2 5 C2 4.01 2 3.02 2 2 C1.34 1.34 0.68 0.68 0 0 Z " fill="#CDCF53" transform="translate(76,51)"/>
<path d="M0 0 C2.64 0 5.28 0 8 0 C7.01 1.485 7.01 1.485 6 3 C6 2.34 6 1.68 6 1 C4.68 1.33 3.36 1.66 2 2 C4.475 3.98 4.475 3.98 7 6 C4.69 6 2.38 6 0 6 C0 5.01 0 4.02 0 3 C-0.66 2.67 -1.32 2.34 -2 2 C-1.34 2 -0.68 2 0 2 C0 1.34 0 0.68 0 0 Z " fill="#8FB020" transform="translate(62,44)"/>
<path d="M0 0 C0.33 0.99 0.66 1.98 1 3 C0.34 3 -0.32 3 -1 3 C-1 3.66 -1 4.32 -1 5 C-3.70879335 6.35439668 -6.00933268 6.06501451 -9 6 C-8.4375 4.125 -8.4375 4.125 -7 2 C-3.375 0.75 -3.375 0.75 0 0 Z " fill="#9A5210" transform="translate(81,33)"/>
<path d="M0 0 C2.97 0.495 2.97 0.495 6 1 C3.6499811 3.72107452 1.44325025 4.96702492 -2 6 C-2.99 5.67 -3.98 5.34 -5 5 C-4 3 -4 3 -1 2 C-0.67 1.34 -0.34 0.68 0 0 Z " fill="#734423" transform="translate(90,83)"/>
<path d="M0 0 C0.33 0 0.66 0 1 0 C1.165 1.051875 1.33 2.10375 1.5 3.1875 C2.47138855 6.76858913 3.96634913 7.94856115 7.125 9.8125 C8.21167969 10.37904297 8.21167969 10.37904297 9.3203125 10.95703125 C9.87460937 11.30121094 10.42890625 11.64539063 11 12 C11 12.66 11 13.32 11 14 C6.51054239 13.73591426 4.14693652 11.91282058 1.16015625 8.765625 C-0.72208614 5.90106757 -0.39525741 3.29381176 0 0 Z " fill="#7F9509" transform="translate(47,54)"/>
<path d="M0 0 C0.33 0 0.66 0 1 0 C1.12375 1.11375 1.2475 2.2275 1.375 3.375 C1.6465813 7.03103677 1.6465813 7.03103677 4 9 C4.26991906 11.68839385 4.08737357 14.29141936 4 17 C0.55482892 12.80587869 -0.14140424 9.61548836 -0.0625 4.25 C-0.05347656 3.45078125 -0.04445313 2.6515625 -0.03515625 1.828125 C-0.02355469 1.22484375 -0.01195313 0.6215625 0 0 Z " fill="#8A5325" transform="translate(18,36)"/>
<path d="M0 0 C0 2.64 0 5.28 0 8 C-1.65 7.67 -3.3 7.34 -5 7 C-5.33 6.01 -5.66 5.02 -6 4 C-1.125 0 -1.125 0 0 0 Z " fill="#82410C" transform="translate(97,36)"/>
<path d="M0 0 C-1.5830577 4.2742558 -4.50568404 6.26531794 -8 9 C-8 7.02 -8 5.04 -8 3 C-2.25 0 -2.25 0 0 0 Z " fill="#6C3D02" transform="translate(103,66)"/>
<path d="M0 0 C0.33 0 0.66 0 1 0 C0.58846263 4.97093824 0.20399168 9.44508386 -2 14 C-2.66 13.01 -3.32 12.02 -4 11 C-3.34 11 -2.68 11 -2 11 C-2.226875 10.29875 -2.45375 9.5975 -2.6875 8.875 C-3.09532639 5.12299725 -1.86377293 3.20568943 0 0 Z " fill="#714521" transform="translate(105,62)"/>
<path d="M0 0 C2.6875 0.875 2.6875 0.875 5 2 C4.01 2.33 3.02 2.66 2 3 C2.33 3.66 2.66 4.32 3 5 C2.01 5 1.02 5 0 5 C0 5.99 0 6.98 0 8 C-1.5 6.6875 -1.5 6.6875 -3 5 C-3 4.01 -3 3.02 -3 2 C-2.01 1.34 -1.02 0.68 0 0 Z " fill="#B8D845" transform="translate(84,56)"/>
<path d="M0 0 C0.66 0 1.32 0 2 0 C2 0.66 2 1.32 2 2 C1.01 2.495 1.01 2.495 0 3 C-0.28875 3.66 -0.5775 4.32 -0.875 5 C-2 7 -2 7 -4.125 7.75 C-5.053125 7.87375 -5.053125 7.87375 -6 8 C-6 8.66 -6 9.32 -6 10 C-6.66 9.67 -7.32 9.34 -8 9 C-6.85459775 7.68712379 -5.70866567 6.37470979 -4.5625 5.0625 C-3.92441406 4.33160156 -3.28632813 3.60070312 -2.62890625 2.84765625 C-1.77458541 1.87860647 -0.91348825 0.91348825 0 0 Z " fill="#B27D37" transform="translate(29,15)"/>
<path d="M0 0 C0.99 0.33 1.98 0.66 3 1 C3.33 3.64 3.66 6.28 4 9 C3.01 8.67 2.02 8.34 1 8 C-0.35439668 5.29120665 -0.06501451 2.99066732 0 0 Z " fill="#D9F369" transform="translate(52,54)"/>
<path d="M0 0 C1.7074998 1.28062485 3.37373596 2.61767557 5 4 C5 4.66 5 5.32 5 6 C5.66 6 6.32 6 7 6 C6.67 7.32 6.34 8.64 6 10 C5.01 9.67 4.02 9.34 3 9 C1.875 6.125 1.875 6.125 1 3 C0.67 2.01 0.34 1.02 0 0 Z " fill="#91500F" transform="translate(19,41)"/>
<path d="M0 0 C1 3 1 3 -0.125 5.625 C-2 8 -2 8 -4.6875 8.8125 C-5.450625 8.874375 -6.21375 8.93625 -7 9 C-7 8.34 -7 7.68 -7 7 C-4 5 -4 5 -1 5 C-1.33 3.68 -1.66 2.36 -2 1 C-1.34 0.67 -0.68 0.34 0 0 Z " fill="#AECB42" transform="translate(66,51)"/>
<path d="M0 0 C1.98 0 3.96 0 6 0 C6 1.32 6 2.64 6 4 C4.35 4 2.7 4 1 4 C0.67 2.68 0.34 1.36 0 0 Z " fill="#E8EA88" transform="translate(69,53)"/>
<path d="M0 0 C-2.88087546 2.40072955 -5.56404834 4.47291037 -9 6 C-9 4.68 -9 3.36 -9 2 C-5.86501708 0.14223235 -3.62528568 -0.20140476 0 0 Z " fill="#FCF0DB" transform="translate(36,11)"/>
<path d="M0 0 C0.66 0 1.32 0 2 0 C3 3 3 3 2.0625 5.1875 C1.5365625 6.0846875 1.5365625 6.0846875 1 7 C-0.32 7 -1.64 7 -3 7 C-3.33 6.01 -3.66 5.02 -4 4 C-2.68 4.33 -1.36 4.66 0 5 C0 3.35 0 1.7 0 0 Z " fill="#7CAB1F" transform="translate(103,51)"/>
<path d="M0 0 C0.66 0.33 1.32 0.66 2 1 C-0.3125 3.5 -0.3125 3.5 -3 6 C-3.99 6 -4.98 6 -6 6 C-6 5.34 -6 4.68 -6 4 C-5.34 4 -4.68 4 -4 4 C-4 3.34 -4 2.68 -4 2 C-2.125 0.9375 -2.125 0.9375 0 0 Z " fill="#AB690A" transform="translate(54,30)"/>
<path d="M0 0 C2.97 0 5.94 0 9 0 C8.34 0.66 7.68 1.32 7 2 C6.3574765 4.06874034 6.3574765 4.06874034 6 6 C5.7525 5.38125 5.505 4.7625 5.25 4.125 C3.98960746 1.54131114 3.98960746 1.54131114 0 0 Z " fill="#85A117" transform="translate(65,43)"/>
<path d="M0 0 C2.97 0.495 2.97 0.495 6 1 C6 1.33 6 1.66 6 2 C4.35 2 2.7 2 1 2 C1.33 2.99 1.66 3.98 2 5 C1.01 5.33 0.02 5.66 -1 6 C-1.33 4.68 -1.66 3.36 -2 2 C-1.34 2 -0.68 2 0 2 C0 1.34 0 0.68 0 0 Z " fill="#89AD11" transform="translate(88,44)"/>
<path d="M0 0 C3.37503669 1.1858237 5.64722731 2.27573689 8 5 C5.69 4.67 3.38 4.34 1 4 C0.67 2.68 0.34 1.36 0 0 Z " fill="#8D5927" transform="translate(81,17)"/>
</svg>
