<?xml version="1.0" encoding="UTF-8"?>
<svg version="1.1" xmlns="http://www.w3.org/2000/svg" width="123" height="112">
<path d="M0 0 C40.59 0 81.18 0 123 0 C123 36.96 123 73.92 123 112 C82.41 112 41.82 112 0 112 C0 75.04 0 38.08 0 0 Z " fill="#FEFEFC" transform="translate(0,0)"/>
<path d="M0 0 C2.69013339 0.18704404 5.29686177 0.08581391 8 0 C8.33 -0.33 8.66 -0.66 9 -1 C12.5 -1.125 12.5 -1.125 16 -1 C16.495 -0.505 16.495 -0.505 17 0 C16.99082617 3.20625479 16.86667517 6.401742 16.7421875 9.60546875 C16.77200886 13.0200864 16.77200886 13.0200864 18.4765625 15.76171875 C20.64818074 20.37779958 20.53288022 24.58194318 20.5 29.625 C20.49572998 30.6061377 20.49145996 31.58727539 20.48706055 32.59814453 C20.30695714 40.28467775 18.94104613 46.31878052 15 53 C14.62746094 53.70640625 14.25492187 54.4128125 13.87109375 55.140625 C7.34537317 66.69137781 -2.77121575 75.65057399 -15.18359375 80.3125 C-22.95450697 82.20942195 -30.53283694 81.64963851 -38 79 C-41.20916171 78.74863967 -41.20916171 78.74863967 -44 79 C-44.495 79.495 -44.495 79.495 -45 80 C-51.52542373 80.23728814 -51.52542373 80.23728814 -54 79 C-54.25816542 76.75865478 -54.40646371 74.50422464 -54.5 72.25 C-54.66672829 67.24842139 -54.66672829 67.24842139 -56.015625 62.4921875 C-60.79130819 50.40137055 -55.63400582 34.4669495 -50.95751953 23.078125 C-48.36196022 17.19857845 -45.14677496 12.92640564 -40 9 C-39.36449219 8.44054688 -38.72898437 7.88109375 -38.07421875 7.3046875 C-36 6 -36 6 -31 6 C-31.66 9.3 -32.32 12.6 -33 16 C-31.39125 15.87625 -29.7825 15.7525 -28.125 15.625 C-26.76761719 15.52058594 -26.76761719 15.52058594 -25.3828125 15.4140625 C-22.82058097 15.20431868 -22.82058097 15.20431868 -21 13 C-20.54188325 11.02764667 -20.54188325 11.02764667 -20.375 8.875 C-20.189375 6.956875 -20.189375 6.956875 -20 5 C-23.3 5 -26.6 5 -30 5 C-29.67 4.01 -29.34 3.02 -29 2 C-21.98521117 -1.42976597 -7.32394284 -3.66197142 0 0 Z " fill="#EBE40B" transform="translate(82,19)"/>
<path d="M0 0 C4.78478822 -0.09764874 9.27685687 0.22887459 14 1 C14.05607422 1.97839844 14.05607422 1.97839844 14.11328125 2.9765625 C14.17902344 3.85054687 14.24476562 4.72453125 14.3125 5.625 C14.37050781 6.48351562 14.42851563 7.34203125 14.48828125 8.2265625 C14.86137089 11.09405463 14.86137089 11.09405463 16.51171875 13.671875 C18.60078659 18.34349127 18.53301919 22.56062875 18.5 27.625 C18.49572998 28.6061377 18.49145996 29.58727539 18.48706055 30.59814453 C18.30695714 38.28467775 16.94104613 44.31878052 13 51 C12.62746094 51.70640625 12.25492187 52.4128125 11.87109375 53.140625 C5.34537317 64.69137781 -4.77121575 73.65057399 -17.18359375 78.3125 C-24.95450697 80.20942195 -32.53283694 79.64963851 -40 77 C-43.20916171 76.74863967 -43.20916171 76.74863967 -46 77 C-46.495 77.495 -46.495 77.495 -47 78 C-53.52542373 78.23728814 -53.52542373 78.23728814 -56 77 C-56.25816542 74.75865478 -56.40646371 72.50422464 -56.5 70.25 C-56.65790295 65.26499168 -56.65790295 65.26499168 -58.0234375 60.53515625 C-59.3502382 57.09078162 -59.21532557 53.81789323 -59.125 50.1875 C-59.11597656 49.49462891 -59.10695313 48.80175781 -59.09765625 48.08789062 C-59.07426157 46.39177605 -59.03839641 44.69584129 -59 43 C-58.67 43 -58.34 43 -58 43 C-57.98582031 43.72445312 -57.97164062 44.44890625 -57.95703125 45.1953125 C-57.62225282 51.98136175 -56.80153494 55.19846506 -52 60 C-52 60.66 -52 61.32 -52 62 C-51.113125 62.268125 -50.22625 62.53625 -49.3125 62.8125 C-46 64 -46 64 -43.6875 65.625 C-37.27802569 68.90426593 -29.72990482 66.90556907 -23.0703125 65.1171875 C-16.19498666 62.61547861 -9.8753719 58.47391086 -5 53 C-4.67 52.01 -4.34 51.02 -4 50 C-2.5625 48.3125 -2.5625 48.3125 -1 47 C-0.34 47 0.32 47 1 47 C1.103125 45.989375 1.20625 44.97875 1.3125 43.9375 C2.01895475 39.89144098 3.36402246 36.7491152 5 33 C6.20070249 27.71213802 6.11525314 22.51393631 6.0625 17.125 C6.05798828 16.24585937 6.05347656 15.36671875 6.04882812 14.4609375 C6.03712337 12.30726197 6.01919069 10.15362183 6 8 C5.34 8 4.68 8 4 8 C3.71125 6.865625 3.4225 5.73125 3.125 4.5625 C2.75375 3.386875 2.3825 2.21125 2 1 C1.34 0.67 0.68 0.34 0 0 Z " fill="#CCCD06" transform="translate(84,21)"/>
<path d="M0 0 C0 0.33 0 0.66 0 1 C-3.3 1 -6.6 1 -10 1 C-10 1.99 -10 2.98 -10 4 C-8.02 4.33 -6.04 4.66 -4 5 C-3.87625 5.5775 -3.7525 6.155 -3.625 6.75 C-2.99351176 9.02335767 -2.11141809 10.9253529 -1 13 C-2.98 13.33 -4.96 13.66 -7 14 C-6.6596875 15.051875 -6.6596875 15.051875 -6.3125 16.125 C-5.89077844 20.00483838 -6.91730583 21.73711247 -9 25 C-13.31578947 29 -13.31578947 29 -16 29 C-16.0928125 29.928125 -16.0928125 29.928125 -16.1875 30.875 C-17 33 -17 33 -19.5625 34.25 C-20.366875 34.4975 -21.17125 34.745 -22 35 C-22 34.34 -22 33.68 -22 33 C-22.76183594 33.09539063 -23.52367188 33.19078125 -24.30859375 33.2890625 C-31.0971248 34.01791852 -36.42850655 33.86192314 -43 32 C-43 31.34 -43 30.68 -43 30 C-44.32 29.67 -45.64 29.34 -47 29 C-49.24480642 34.61201606 -50.83348574 40.07136283 -52 46 C-54.27869062 42.58196407 -54.10055487 41.15369815 -53.48095703 37.20703125 C-52.66907832 33.48145585 -51.39236211 30.01827317 -49.9375 26.5 C-49.63094482 25.7560498 -49.32438965 25.01209961 -49.00854492 24.24560547 C-46.40830262 18.28554365 -43.20838947 13.97341053 -38 10 C-37.36449219 9.44054688 -36.72898437 8.88109375 -36.07421875 8.3046875 C-34 7 -34 7 -29 7 C-29.66 10.3 -30.32 13.6 -31 17 C-29.39125 16.87625 -27.7825 16.7525 -26.125 16.625 C-24.76761719 16.52058594 -24.76761719 16.52058594 -23.3828125 16.4140625 C-20.82058097 16.20431868 -20.82058097 16.20431868 -19 14 C-18.54188325 12.02764667 -18.54188325 12.02764667 -18.375 9.875 C-18.189375 7.956875 -18.189375 7.956875 -18 6 C-21.3 6 -24.6 6 -28 6 C-27.67 5.01 -27.34 4.02 -27 3 C-18.67195863 -1.07185926 -9.00124561 -0.30493555 0 0 Z " fill="#FCFA4C" transform="translate(80,18)"/>
<path d="M0 0 C0.33 0 0.66 0 1 0 C1.01417969 0.72445312 1.02835938 1.44890625 1.04296875 2.1953125 C1.37774718 8.98136175 2.19846506 12.19846506 7 17 C7 17.66 7 18.32 7 19 C7.86625 19.2475 8.7325 19.495 9.625 19.75 C13 21 13 21 15.9375 23.0625 C23.66327159 27.95023305 36.06956369 26.99535463 44.75 25.25 C48.88924661 24.17456957 52.80953594 22.57886147 56.73828125 20.90234375 C58.81638777 20.07325462 60.81911694 19.48408617 63 19 C63 18.01 63 17.02 63 16 C63.99 16.33 64.98 16.66 66 17 C64.94316894 18.25479654 63.87921933 19.50359873 62.8125 20.75 C62.22082031 21.44609375 61.62914062 22.1421875 61.01953125 22.859375 C57.10978571 27.00355402 52.98032856 29.69881227 47.875 32.1875 C46.84117188 32.69667969 45.80734375 33.20585938 44.7421875 33.73046875 C40.33279614 35.77185364 37.02557338 36.16173816 32.1875 36.1875 C30.38345703 36.20876953 30.38345703 36.20876953 28.54296875 36.23046875 C25.00310205 36.00020179 22.31529616 35.20214705 19 34 C15.79083829 33.74863967 15.79083829 33.74863967 13 34 C12.505 34.495 12.505 34.495 12 35 C5.47457627 35.23728814 5.47457627 35.23728814 3 34 C2.74183458 31.75865478 2.59353629 29.50422464 2.5 27.25 C2.34209705 22.26499168 2.34209705 22.26499168 0.9765625 17.53515625 C-0.3502382 14.09078162 -0.21532557 10.81789323 -0.125 7.1875 C-0.11597656 6.49462891 -0.10695313 5.80175781 -0.09765625 5.08789062 C-0.07426157 3.39177605 -0.03839641 1.69584129 0 0 Z " fill="#BBB604" transform="translate(25,64)"/>
<path d="M0 0 C-0.66 3.3 -1.32 6.6 -2 10 C1.63 9.67 5.26 9.34 9 9 C9.83859288 12.88802156 10.3306491 15.22297462 8.75 18.9375 C7.88375 19.9584375 7.88375 19.9584375 7 21 C6.01 21 5.02 21 4 21 C4.33 19.02 4.66 17.04 5 15 C4.01 15.66 3.02 16.32 2 17 C2.33 19.31 2.66 21.62 3 24 C1.68 24 0.36 24 -1 24 C-3.08387097 19.58709677 -3.08387097 19.58709677 -2.6875 16.8125 C-2 15 -2 15 -1 13 C-1.99 12.67 -2.98 12.34 -4 12 C-4 12.99 -4 13.98 -4 15 C-5.875 14.875 -5.875 14.875 -8 14 C-9.25 10.9375 -9.25 10.9375 -10 8 C-10.598125 8.928125 -11.19625 9.85625 -11.8125 10.8125 C-13.48614121 13.25123434 -14.95541146 14.95541146 -17 17 C-18.03357147 18.64605826 -19.04060332 20.30963442 -20 22 C-20 15.51516143 -17.50210403 11.16844113 -13.0625 6.6875 C-11.73653572 5.42796168 -10.38272694 4.19694789 -9 3 C-8.35933594 2.42894531 -7.71867187 1.85789062 -7.05859375 1.26953125 C-5 0 -5 0 0 0 Z " fill="#F8F95E" transform="translate(51,25)"/>
<path d="M0 0 C0.061875 1.093125 0.12375 2.18625 0.1875 3.3125 C0.6179364 7.08821419 0.6179364 7.08821419 3.3125 8.875 C10.39191955 11.83847795 17.55286364 11.52761771 25 10 C25.33 8.35 25.66 6.7 26 5 C26.66 5 27.32 5 28 5 C28.495 6.485 28.495 6.485 29 8 C28.01 8.33 27.02 8.66 26 9 C25.814375 9.9590625 25.814375 9.9590625 25.625 10.9375 C25.41875 11.618125 25.2125 12.29875 25 13 C22.4375 14.25 22.4375 14.25 20 15 C20 14.34 20 13.68 20 13 C19.23816406 13.09539063 18.47632812 13.19078125 17.69140625 13.2890625 C10.9028752 14.01791852 5.57149345 13.86192314 -1 12 C-1 11.34 -1 10.68 -1 10 C-2.32 9.67 -3.64 9.34 -5 9 C-7.24480642 14.61201606 -8.83348574 20.07136283 -10 26 C-12.29201415 22.56197877 -12.10020426 21.03557677 -11.48046875 17.0546875 C-10.78305983 14.0722721 -9.52711518 11.64308396 -8 9 C-7.525625 8.13375 -7.05125 7.2675 -6.5625 6.375 C-2.36842105 0 -2.36842105 0 0 0 Z " fill="#F5F439" transform="translate(38,38)"/>
<path d="M0 0 C0.886875 -0.00257812 1.77375 -0.00515625 2.6875 -0.0078125 C5 0.125 5 0.125 7 1.125 C7.36685438 8.58437249 7.36685438 8.58437249 5.8125 10.875 C3.37151024 12.55844122 1.74808519 12.42687345 -1.1875 12.3125 C-2.08855469 12.28542969 -2.98960938 12.25835937 -3.91796875 12.23046875 C-4.60503906 12.19566406 -5.29210938 12.16085938 -6 12.125 C-6.125 5.375 -6.125 5.375 -5 3.125 C-5.66 2.465 -6.32 1.805 -7 1.125 C-4.51245214 -0.11877393 -2.77344699 -0.00806235 0 0 Z " fill="#FAFA7A" transform="translate(55,22.875)"/>
<path d="M0 0 C2.31 0 4.62 0 7 0 C7.33 0.99 7.66 1.98 8 3 C9.32 3 10.64 3 12 3 C12.97791242 5.64036353 13.03638105 6.87266632 12.25 9.625 C11 12 11 12 8 14 C8.99 15.485 8.99 15.485 10 17 C10.125 19.6875 10.125 19.6875 10 22 C9.34 22 8.68 22 8 22 C8 23.32 8 24.64 8 26 C6.68 26 5.36 26 4 26 C4.33 24.68 4.66 23.36 5 22 C5.66 22 6.32 22 7 22 C6.34 20.88625 5.68 19.7725 5 18.625 C3 15.25 3 15.25 3 13 C3.66 13 4.32 13 5 13 C5.33 12.34 5.66 11.68 6 11 C6.66 11 7.32 11 8 11 C6.68 9.35 5.36 7.7 4 6 C4.66 6 5.32 6 6 6 C6 5.34 6 4.68 6 4 C3.03 3.505 3.03 3.505 0 3 C0 2.01 0 1.02 0 0 Z " fill="#F4EF19" transform="translate(70,19)"/>
<path d="M0 0 C0.33 0 0.66 0 1 0 C1.01417969 0.72445312 1.02835938 1.44890625 1.04296875 2.1953125 C1.37774718 8.98136175 2.19846506 12.19846506 7 17 C7 17.66 7 18.32 7 19 C7.94875 19.268125 8.8975 19.53625 9.875 19.8125 C13 21 13 21 15 24 C13.35 24.33 11.7 24.66 10 25 C10 24.34 10 23.68 10 23 C8.02 23 6.04 23 4 23 C4.05563651 24.83468832 4.05563651 24.83468832 5 27 C6.97956942 28.69088222 8.97945196 30.35830472 11 32 C11.33 32.99 11.66 33.98 12 35 C5.25 35.125 5.25 35.125 3 34 C2.74183458 31.75865478 2.59353629 29.50422464 2.5 27.25 C2.34209705 22.26499168 2.34209705 22.26499168 0.9765625 17.53515625 C-0.3502382 14.09078162 -0.21532557 10.81789323 -0.125 7.1875 C-0.11597656 6.49462891 -0.10695313 5.80175781 -0.09765625 5.08789062 C-0.07426157 3.39177605 -0.03839641 1.69584129 0 0 Z " fill="#CBC218" transform="translate(25,64)"/>
<path d="M0 0 C0.99 0.33 1.98 0.66 3 1 C1.94316894 2.25479654 0.87921933 3.50359873 -0.1875 4.75 C-0.77917969 5.44609375 -1.37085938 6.1421875 -1.98046875 6.859375 C-5.89021429 11.00355402 -10.01967144 13.69881227 -15.125 16.1875 C-16.15882812 16.69667969 -17.19265625 17.20585938 -18.2578125 17.73046875 C-22.66720386 19.77185364 -25.97442662 20.16173816 -30.8125 20.1875 C-32.01519531 20.20167969 -33.21789062 20.21585938 -34.45703125 20.23046875 C-37.98083425 20.00124672 -40.72129528 19.27030979 -44 18 C-44 17.67 -44 17.34 -44 17 C-43.29915283 16.98018066 -42.59830566 16.96036133 -41.8762207 16.93994141 C-38.68794838 16.84443834 -35.50030853 16.73486129 -32.3125 16.625 C-30.65831055 16.57859375 -30.65831055 16.57859375 -28.97070312 16.53125 C-27.3706543 16.47324219 -27.3706543 16.47324219 -25.73828125 16.4140625 C-24.75899658 16.3826416 -23.77971191 16.3512207 -22.77075195 16.31884766 C-19.82584568 15.97995898 -17.64315055 15.33431163 -15 14 C-13.17380913 11.48635244 -13.17380913 11.48635244 -12 9 C-9.525 9.495 -9.525 9.495 -7 10 C-6.690625 9.21625 -6.38125 8.4325 -6.0625 7.625 C-5 5 -5 5 -4 3 C-2.68 3 -1.36 3 0 3 C0 2.01 0 1.02 0 0 Z " fill="#BFBD33" transform="translate(88,80)"/>
<path d="M0 0 C0 0.33 0 0.66 0 1 C-4.62 1.33 -9.24 1.66 -14 2 C-14.433125 4.1965625 -14.433125 4.1965625 -14.875 6.4375 C-15.3671875 8.93359375 -15.3671875 8.93359375 -16 11 C-16.99 11.495 -16.99 11.495 -18 12 C-18 10.02 -18 8.04 -18 6 C-21.3 6 -24.6 6 -28 6 C-27.67 5.01 -27.34 4.02 -27 3 C-18.67195863 -1.07185926 -9.00124561 -0.30493555 0 0 Z " fill="#F9F75B" transform="translate(80,18)"/>
<path d="M0 0 C0.33 0 0.66 0 1 0 C1 2.31 1 4.62 1 7 C3.64 7 6.28 7 9 7 C5.3558226 9.4294516 3.28758728 9.16179575 -1 9 C-1 9.99 -1 10.98 -1 12 C-4.875 11.125 -4.875 11.125 -6 10 C-6.375 7.625 -6.375 7.625 -6 5 C-3.5625 3.3125 -3.5625 3.3125 -1 2 C-0.67 1.34 -0.34 0.68 0 0 Z " fill="#FBFA72" transform="translate(48,28)"/>
<path d="M0 0 C0.25 2.3125 0.25 2.3125 0 5 C-2.23738248 7.40311451 -3.46340904 7.96341425 -6.75 8.1875 C-7.4925 8.125625 -8.235 8.06375 -9 8 C-9.33 6.35 -9.66 4.7 -10 3 C-6.68152292 -0.06320961 -4.44849969 -0.3033068 0 0 Z " fill="#FDFDD6" transform="translate(60,25)"/>
<path d="M0 0 C1.9375 0.8125 1.9375 0.8125 4 2 C4.33 2.99 4.66 3.98 5 5 C3.02 5.33 1.04 5.66 -1 6 C-0.773125 6.70125 -0.54625 7.4025 -0.3125 8.125 C0.09968466 11.91709886 -1.03365871 13.79559197 -3 17 C-3.66 17.33 -4.32 17.66 -5 18 C-5 17.01 -5 16.02 -5 15 C-4.34 15 -3.68 15 -3 15 C-3.66 12.36 -4.32 9.72 -5 7 C-5.66 7 -6.32 7 -7 7 C-7 6.34 -7 5.68 -7 5 C-4.69 5 -2.38 5 0 5 C0 3.35 0 1.7 0 0 Z " fill="#F8F73E" transform="translate(74,26)"/>
<path d="M0 0 C3.5 0.125 3.5 0.125 4.5 1.125 C4.54063832 2.79117115 4.542721 4.45888095 4.5 6.125 C2.9221875 5.63 2.9221875 5.63 1.3125 5.125 C-4.55298373 3.62428164 -10.49092943 3.96011697 -16.5 4.125 C-16.83 3.135 -17.16 2.145 -17.5 1.125 C-16.57316406 1.13660156 -15.64632812 1.14820312 -14.69140625 1.16015625 C-12.89509766 1.17369141 -12.89509766 1.17369141 -11.0625 1.1875 C-9.27005859 1.20490234 -9.27005859 1.20490234 -7.44140625 1.22265625 C-3.85296789 1.10351819 -3.78397341 0.13514191 0 0 Z " fill="#E0E13F" transform="translate(94.5,17.875)"/>
<path d="M0 0 C0.33 0 0.66 0 1 0 C1 7.26 1 14.52 1 22 C0.34 22 -0.32 22 -1 22 C-0.938125 22.70125 -0.87625 23.4025 -0.8125 24.125 C-1.04680862 27.71773219 -2.12643055 29.94677571 -4 33 C-5.485 33.495 -5.485 33.495 -7 34 C-5.28963938 28.58385804 -5.28963938 28.58385804 -4.01171875 26.0078125 C-0.04674324 17.67415488 -0.19742277 9.06170497 0 0 Z " fill="#F1F1B3" transform="translate(102,42)"/>
<path d="M0 0 C0.33 0 0.66 0 1 0 C1.04125 0.721875 1.0825 1.44375 1.125 2.1875 C2.34427719 6.10660527 4.83851352 7.49715654 8 10 C8.33 10.99 8.66 11.98 9 13 C2.25 13.125 2.25 13.125 0 12 C0 8.04 0 4.08 0 0 Z " fill="#C8D12E" transform="translate(28,86)"/>
<path d="M0 0 C1.0730896 3.21926881 0.97410068 4.98163395 0.66015625 8.32421875 C0.56669922 9.35224609 0.47324219 10.38027344 0.37695312 11.43945312 C0.22129883 13.04723633 0.22129883 13.04723633 0.0625 14.6875 C-0.03740234 15.77095703 -0.13730469 16.85441406 -0.24023438 17.97070312 C-0.48788698 20.64770991 -0.74136251 23.32403586 -1 26 C-1.66 26 -2.32 26 -3 26 C-3 19.73 -3 13.46 -3 7 C-2.34 7 -1.68 7 -1 7 C-0.67 4.69 -0.34 2.38 0 0 Z " fill="#FEFDCE" transform="translate(26,53)"/>
<path d="M0 0 C0.66 0.33 1.32 0.66 2 1 C1.67 3.31 1.34 5.62 1 8 C1.66 8 2.32 8 3 8 C3.33 7.34 3.66 6.68 4 6 C4.99 6 5.98 6 7 6 C7 6.66 7 7.32 7 8 C6.34 8 5.68 8 5 8 C5 8.66 5 9.32 5 10 C3.35 10.33 1.7 10.66 0 11 C0 10.01 0 9.02 0 8 C-1.32 7.67 -2.64 7.34 -4 7 C-4 6.34 -4 5.68 -4 5 C-3.34 5 -2.68 5 -2 5 C-1.34 3.35 -0.68 1.7 0 0 Z " fill="#DCD70A" transform="translate(78,60)"/>
<path d="M0 0 C0.66 0 1.32 0 2 0 C2.33 0.99 2.66 1.98 3 3 C2.01 3.33 1.02 3.66 0 4 C-0.12375 4.639375 -0.2475 5.27875 -0.375 5.9375 C-0.684375 6.9584375 -0.684375 6.9584375 -1 8 C-3.5625 9.25 -3.5625 9.25 -6 10 C-6 9.34 -6 8.68 -6 8 C-6.84304687 8.09539063 -7.68609375 8.19078125 -8.5546875 8.2890625 C-9.65039062 8.39992188 -10.74609375 8.51078125 -11.875 8.625 C-12.96554688 8.74101563 -14.05609375 8.85703125 -15.1796875 8.9765625 C-16.57574219 8.98816406 -16.57574219 8.98816406 -18 9 C-18.66 8.34 -19.32 7.68 -20 7 C-19.13117187 6.93941406 -18.26234375 6.87882812 -17.3671875 6.81640625 C-16.21476562 6.73261719 -15.06234375 6.64882813 -13.875 6.5625 C-12.16957031 6.44068359 -12.16957031 6.44068359 -10.4296875 6.31640625 C-7.2459522 6.02269035 -4.14489093 5.56875687 -1 5 C-0.67 3.35 -0.34 1.7 0 0 Z " fill="#F5F224" transform="translate(64,43)"/>
<path d="M0 0 C0 1.98 0 3.96 0 6 C-2.31 6.33 -4.62 6.66 -7 7 C-7.33 6.01 -7.66 5.02 -8 4 C-6.4425489 0.88509781 -3.40085499 0 0 0 Z " fill="#F6F126" transform="translate(56,58)"/>
<path d="M0 0 C2.23612531 1.07665293 4.29752033 2.19573706 6.375 3.5625 C9.28462614 5.1558667 11.72480174 5.61916299 15 6 C15 6.66 15 7.32 15 8 C10.545 8.495 10.545 8.495 6 9 C5.34 7.68 4.68 6.36 4 5 C2.67607028 3.98758315 1.34400833 2.98560611 0 2 C0 1.34 0 0.68 0 0 Z " fill="#AAAF15" transform="translate(29,89)"/>
<path d="M0 0 C0.33 0 0.66 0 1 0 C1.31424507 3.45669582 1.37956836 5.39901677 -0.5 8.375 C-4.13251074 10.73613198 -6.71843297 10.2854378 -11 10 C-11 7.69 -11 5.38 -11 3 C-10.34 4.32 -9.68 5.64 -9 7 C-5.535 6.505 -5.535 6.505 -2 6 C-1.34 4.02 -0.68 2.04 0 0 Z " fill="#F9FAA5" transform="translate(60,25)"/>
<path d="M0 0 C1.65 0 3.3 0 5 0 C5 0.99 5 1.98 5 3 C7.97 3.495 7.97 3.495 11 4 C11 4.66 11 5.32 11 6 C8 7 8 7 5 6 C5 5.34 5 4.68 5 4 C3.68 4.33 2.36 4.66 1 5 C0.67 3.35 0.34 1.7 0 0 Z " fill="#F9F639" transform="translate(65,19)"/>
<path d="M0 0 C2.875 0.3125 2.875 0.3125 6 1 C8 4 8 4 8 8 C8.66 8 9.32 8 10 8 C9.67 8.99 9.34 9.98 9 11 C8.01 10.67 7.02 10.34 6 10 C5.690625 8.88625 5.38125 7.7725 5.0625 6.625 C3.952319 2.83732365 3.33625014 1.89054174 0 0 Z " fill="#E2DE03" transform="translate(80,21)"/>
<path d="M0 0 C2.125 0.9375 2.125 0.9375 4 2 C4.33 1.34 4.66 0.68 5 0 C5.66 0.33 6.32 0.66 7 1 C6.67 2.65 6.34 4.3 6 6 C0.25 4.375 0.25 4.375 -2 1 C-1.34 0.67 -0.68 0.34 0 0 Z " fill="#F8F324" transform="translate(30,63)"/>
<path d="M0 0 C-1.41519715 2.0343459 -2.54982123 2.90410393 -4.98046875 3.421875 C-6.98176954 3.66273952 -8.9909944 3.83532741 -11 4 C-10.67 3.01 -10.34 2.02 -10 1 C-6.34742296 -0.62336757 -3.80637601 -1.46399077 0 0 Z " fill="#F5F76E" transform="translate(63,20)"/>
<path d="M0 0 C0.99 0 1.98 0 3 0 C3 1.32 3 2.64 3 4 C2.34 4 1.68 4 1 4 C1 5.32 1 6.64 1 8 C-0.32 8 -1.64 8 -3 8 C-2.67 6.68 -2.34 5.36 -2 4 C-1.34 4 -0.68 4 0 4 C0 2.68 0 1.36 0 0 Z " fill="#F4ED2C" transform="translate(77,37)"/>
<path d="M0 0 C1.04005702 3.38018531 1.08004482 6.4780279 1 10 C-1.31 9.67 -3.62 9.34 -6 9 C-4.73046875 7.53515625 -3.4609375 6.0703125 -2.19140625 4.60546875 C-0.79128769 2.89287029 -0.79128769 2.89287029 0 0 Z " fill="#EFEE0E" transform="translate(73,37)"/>
<path d="M0 0 C1.09658936 3.28976808 0.79953138 4.71303767 0 8 C-1.65 6.35 -3.3 4.7 -5 3 C-3 1 -3 1 0 0 Z " fill="#B9C00E" transform="translate(97,22)"/>
<path d="M0 0 C0.66 0.33 1.32 0.66 2 1 C-2.296875 5.00390625 -2.296875 5.00390625 -4 6 C-6.203125 5.65234375 -6.203125 5.65234375 -8 5 C-6.71475739 4.13619741 -5.42157581 3.28419631 -4.125 2.4375 C-3.04605469 1.72400391 -3.04605469 1.72400391 -1.9453125 0.99609375 C-1.30335937 0.66738281 -0.66140625 0.33867188 0 0 Z " fill="#D7D301" transform="translate(72,80)"/>
<path d="M0 0 C0.33 0 0.66 0 1 0 C1.12375 1.03125 1.2475 2.0625 1.375 3.125 C1.93889814 6.62116846 2.78682059 9.68397627 4 13 C2.68 12.34 1.36 11.68 0 11 C0 7.37 0 3.74 0 0 Z " fill="#CBD041" transform="translate(97,25)"/>
<path d="M0 0 C2.97 0.33 5.94 0.66 9 1 C8.34 2.32 7.68 3.64 7 5 C7 4.34 7 3.68 7 3 C4.69 2.67 2.38 2.34 0 2 C0 1.34 0 0.68 0 0 Z " fill="#FCFCDD" transform="translate(28,98)"/>
<path d="M0 0 C1.98 0.495 1.98 0.495 4 1 C4 2.32 4 3.64 4 5 C2.35 4.67 0.7 4.34 -1 4 C-0.67 2.68 -0.34 1.36 0 0 Z " fill="#F4EE21" transform="translate(64,50)"/>
<path d="M0 0 C1.22589844 0.15275391 1.22589844 0.15275391 2.4765625 0.30859375 C3.41628906 0.43427734 3.41628906 0.43427734 4.375 0.5625 C4.375 0.8925 4.375 1.2225 4.375 1.5625 C3.26125 1.871875 2.1475 2.18125 1 2.5 C-2.4195155 3.38576483 -2.4195155 3.38576483 -4.625 4.5625 C-4.625 3.9025 -4.625 3.2425 -4.625 2.5625 C-5.285 1.9025 -5.945 1.2425 -6.625 0.5625 C-4.10446405 -0.69776798 -2.7707902 -0.35624445 0 0 Z " fill="#F6F986" transform="translate(54.625,23.4375)"/>
<path d="M0 0 C1.9375 0.8125 1.9375 0.8125 4 2 C4.33 2.99 4.66 3.98 5 5 C3.35 5.33 1.7 5.66 0 6 C0 4.02 0 2.04 0 0 Z " fill="#F7F431" transform="translate(74,26)"/>
<path d="M0 0 C1.32 0.33 2.64 0.66 4 1 C3.67 2.32 3.34 3.64 3 5 C2.01 5 1.02 5 0 5 C0 3.35 0 1.7 0 0 Z " fill="#FCF95D" transform="translate(70,25)"/>
</svg>
