<?xml version="1.0" encoding="UTF-8"?>
<svg version="1.1" xmlns="http://www.w3.org/2000/svg" width="1072" height="895">
<path d="M0 0 C353.76 0 707.52 0 1072 0 C1072 295.35 1072 590.7 1072 895 C718.24 895 364.48 895 0 895 C0 599.65 0 304.3 0 0 Z " fill="#FEFEFE" transform="translate(0,0)"/>
<path d="M0 0 C1.41564915 -0.00982588 2.83127538 -0.02421345 4.24682617 -0.0435791 C13.40375975 -0.15541146 21.88192217 0.0023861 29.5958252 5.39910889 C30.44016113 6.23184326 31.28449707 7.06457764 32.15441895 7.92254639 C32.63419189 8.38620605 33.11396484 8.84986572 33.60827637 9.32757568 C35.28976402 10.96490359 36.94116721 12.62924304 38.59191895 14.29754639 C40.02372776 15.7290191 41.45604906 17.15997933 42.88879395 18.59051514 C45.11413809 20.81369899 47.33545917 23.03994424 49.54138184 25.28240967 C50.22450439 25.9744751 50.90762695 26.66654053 51.6114502 27.37957764 C52.21062256 27.99035156 52.80979492 28.60112549 53.42712402 29.23040771 C54.49869751 30.25364136 54.49869751 30.25364136 55.59191895 31.29754639 C56.05965257 31.78905717 56.52738619 32.28056795 57.00929356 32.786973 C60.98038938 36.65097157 63.77444358 37.98636474 69.30921936 38.06309509 C70.14581589 38.04459 70.98241241 38.0260849 71.84436035 38.00701904 C72.74443314 38.0112236 73.64450592 38.01542816 74.57185364 38.01976013 C77.52975784 38.02743424 80.48576922 37.99395026 83.44348145 37.96160889 C85.50658574 37.96270324 87.56969061 37.96701399 89.63278198 37.97439575 C95.05290044 37.98778369 100.47235443 37.96899713 105.89239502 37.93994141 C114.57407673 37.89451595 123.2554037 37.87895436 131.93717575 37.89948654 C134.96702902 37.89911368 137.99595389 37.87334978 141.02566528 37.84579468 C142.88319896 37.84510984 144.74073336 37.84541268 146.5982666 37.84686279 C147.43891159 37.83240616 148.27955658 37.81794952 149.14567566 37.80305481 C153.11035748 37.82972359 155.1033332 37.99192179 158.54074097 40.14212036 C163.04196785 44.87211536 163.80343016 49.19726144 164.02941895 55.54754639 C163.75316526 66.00915349 160.02137348 74.86809185 152.59191895 82.29754639 C150.24938113 82.39247361 147.9364579 82.4231443 145.59362793 82.41107178 C144.4961322 82.41129082 144.4961322 82.41129082 143.37646484 82.41151428 C140.94695111 82.41081505 138.51751311 82.40302223 136.0880127 82.39520264 C134.40792381 82.39333849 132.72783438 82.39191457 131.04774475 82.39091492 C126.61718251 82.38708946 122.18665285 82.37725894 117.75610352 82.36621094 C113.23848918 82.35599741 108.72086961 82.35141742 104.20324707 82.34637451 C95.33279002 82.3356367 86.46235719 82.31855995 77.59191895 82.29754639 C79.9118997 107.58016668 82.30909578 132.85285231 84.86529064 158.1127367 C86.3716805 172.9996178 87.85200865 187.88813182 89.25438118 202.78521347 C89.51030801 205.50213345 89.76721601 208.21895913 90.0243988 210.9357605 C90.75388293 218.6419901 91.48285291 226.34826675 92.20837402 234.05487061 C92.65623237 238.81134377 93.10616649 243.56761665 93.55746269 248.3237648 C93.72767473 250.12177391 93.89711561 251.9198562 94.06575203 253.71801376 C94.30045558 256.21981266 94.53780646 258.72134748 94.77575684 261.22283936 C94.84382538 261.95530884 94.91189392 262.68777832 94.98202515 263.44244385 C95.26793675 266.42391527 95.60247376 269.35510198 96.14292908 272.30221558 C96.69963408 276.01614273 96.61956245 279.54159762 96.59191895 283.29754639 C135.42134668 283.21576443 174.25073651 283.12359089 213.08010569 283.01749478 C217.66501655 283.00497601 222.24992763 282.99254322 226.83483887 282.98016357 C227.74760619 282.97769758 228.66037352 282.97523159 229.60080046 282.97269087 C244.3771899 282.93297496 259.15358698 282.90022244 273.92999863 282.87004657 C289.09370143 282.83892466 304.25737184 282.80031208 319.42103821 282.75475633 C328.77664847 282.72688533 338.13223505 282.70484626 347.48787565 282.69028388 C353.90473146 282.67973593 360.32154142 282.66190726 366.73836266 282.63837935 C370.43965259 282.6250224 374.14087828 282.61485065 377.8421936 282.61333275 C381.85910767 282.61160131 385.87581317 282.59452572 389.89268494 282.57601929 C391.63930684 282.57892139 391.63930684 282.57892139 393.42121404 282.58188212 C403.62195734 282.51161928 412.97485374 281.68743596 420.59191895 274.29754639 C423.47263769 270.3186226 425.82874861 266.12235923 428.19152832 261.82098389 C430.41081012 257.82194332 432.718497 253.87457214 435.01306152 249.918396 C436.97165099 246.53938253 438.92187223 243.15568112 440.8692627 239.77020264 C441.49945312 238.67466064 442.12964355 237.57911865 442.77893066 236.45037842 C443.92390685 234.45923615 445.0687777 232.46803329 446.21350098 230.47674561 C451.23209769 221.75150797 456.26371218 213.05722631 461.6427002 204.54754639 C463.87202854 200.83050996 465.93288751 197.03888317 467.99694824 193.22821045 C470.56211457 188.51486948 473.20030976 183.84335711 475.84191895 179.17254639 C476.40838135 178.17046143 476.97484375 177.16837646 477.55847168 176.13592529 C481.26397228 169.59791225 485.03100856 163.10061265 488.8614502 156.63519287 C492.07687727 151.19949795 495.21770371 145.72360158 498.34191895 140.23504639 C502.69871783 132.5870543 507.09465946 124.96311233 511.52941895 117.36004639 C512.04149902 116.48146973 512.5535791 115.60289307 513.08117676 114.69769287 C519.20970861 104.20646149 525.40643271 93.75525421 531.59191895 83.29754639 C530.22794983 83.30207069 530.22794983 83.30207069 528.83642578 83.3066864 C520.24437791 83.3289812 511.65316157 83.31765851 503.06121063 83.26908016 C498.64445165 83.24528021 494.22844548 83.23423582 489.81164551 83.25286865 C485.54472796 83.27039111 481.27915919 83.25371956 477.0124054 83.21386909 C475.38904645 83.20461326 473.76556985 83.20743952 472.14225769 83.22285271 C457.84318903 83.34537781 457.84318903 83.34537781 452.65637207 79.0067749 C447.7069457 73.82955343 446.48245617 67.90079282 446.15441895 60.92254639 C446.42344527 52.5827304 448.82979602 45.45152388 454.8357029 39.59869003 C457.74748623 37.44141081 460.77646136 37.41832602 464.25866699 37.43280029 C465.37464516 37.40222534 465.37464516 37.40222534 466.51316833 37.37103271 C468.96030177 37.31090899 471.40586326 37.29225166 473.8536377 37.27410889 C475.56754117 37.24036754 477.28139587 37.20406067 478.99519348 37.16531372 C483.50349475 37.07039532 488.01159934 37.01077782 492.52056885 36.95843506 C497.07796991 36.89914983 501.63465269 36.80567654 506.19152832 36.71551514 C515.65796732 36.53519944 525.12422555 36.39158411 534.59191895 36.29754639 C535.72830307 36.2845752 536.86468719 36.271604 538.0355072 36.25823975 C539.01785843 36.2513916 540.00020966 36.24454346 541.0123291 36.23748779 C541.8343985 36.23101227 542.6564679 36.22453674 543.50344849 36.21786499 C548.24009499 36.39858223 552.31303812 38.4271767 556.59191895 40.29754639 C557.2673877 40.5514917 557.94285645 40.80543701 558.63879395 41.06707764 C566.52314046 44.37394198 575.2579185 51.92721471 579.21691895 59.54754639 C581.98291501 67.09117201 582.93165042 73.14470759 582.90441895 81.17254639 C582.92053223 82.11485107 582.93664551 83.05715576 582.95324707 84.02801514 C582.95959246 93.20344168 580.84217396 100.00713541 575.65441895 107.61004639 C574.8454715 108.82161835 574.03966003 110.03528809 573.2364502 111.25067139 C572.80799805 111.89842529 572.3795459 112.5461792 571.93811035 113.21356201 C569.47044111 117.03366078 567.16474441 120.95081772 564.84191895 124.86004639 C560.75800301 131.71222384 556.61761967 138.52409622 552.40441895 145.29754639 C547.33422636 153.45527755 542.32210039 161.64713541 537.34191895 169.86004639 C536.80901749 170.73883453 536.80901749 170.73883453 536.26535034 171.63537598 C534.44555953 174.63683111 532.62647619 177.63871428 530.80773926 180.64080811 C527.11433355 186.73686498 523.41575006 192.82978041 519.71691895 198.92254639 C519.35997955 199.51054016 519.00304016 200.09853394 518.63528442 200.7043457 C509.06434158 216.46956889 499.48233592 232.22948988 489.7364502 247.88739014 C488.66715473 249.60726503 487.59815549 251.32732412 486.52941895 253.04754639 C485.7083667 254.36879517 485.7083667 254.36879517 484.87072754 255.71673584 C481.11275409 261.78536239 477.43368801 267.89717174 473.78479004 274.03192139 C457.84476322 300.82430625 442.05336577 320.75957683 410.7781744 329.34439182 C404.35311891 330.73862537 397.92817494 330.57558524 391.38136292 330.55583191 C389.9468666 330.55869018 388.51237182 330.56243015 387.07787985 330.56697041 C383.15378809 330.57691213 379.22978615 330.57458838 375.30568779 330.57024348 C371.06618767 330.56775999 366.82671072 330.57684514 362.58721924 330.58462524 C355.24385742 330.59665514 347.90051728 330.60177741 340.55714607 330.60250664 C329.92034628 330.60383489 319.28359888 330.61897031 308.64681762 330.63800181 C291.36216713 330.66883035 274.07751531 330.69299968 256.79284668 330.71087646 C255.2419765 330.71248549 255.2419765 330.71248549 253.65977561 330.71412701 C242.13532683 330.72593682 230.61087752 330.73614341 219.08642578 330.74456787 C214.91239419 330.74764164 210.73836261 330.75073047 206.56433105 330.75384521 C205.53441137 330.75461055 204.50449168 330.75537589 203.4433623 330.75616442 C186.23287964 330.76927377 169.02243481 330.79395314 151.81198019 330.82758862 C141.21127459 330.84781303 130.61065009 330.85817708 120.00992506 330.85559941 C112.73527726 330.8545595 105.46069332 330.86427855 98.18606783 330.88223844 C93.99750458 330.89222179 89.80908273 330.89747867 85.62051201 330.88947105 C56.29943579 329.09899824 56.29943579 329.09899824 30.76379395 340.00848389 C30.2945752 340.55762451 29.82535645 341.10676514 29.34191895 341.67254639 C28.8623877 342.21653076 28.38285645 342.76051514 27.88879395 343.32098389 C23.37361093 350.202558 23.92975902 358.40885098 24.59191895 366.29754639 C26.65260746 374.81877186 30.83405076 380.84096296 38.25269222 385.42447662 C45.60882794 389.32672032 52.86501915 389.11412415 60.95704651 389.0166626 C62.60108959 389.01911678 64.24513046 389.0242263 65.88915819 389.03174353 C70.38314927 389.0447869 74.87628045 389.0207581 79.37016022 388.99052882 C84.22569081 388.96452343 89.0811721 388.97344085 93.93675232 388.97828674 C102.34370013 388.98218908 110.75038656 388.9648924 119.15727425 388.93373108 C131.32297955 388.88919522 143.48847116 388.88354907 155.65424591 388.88843817 C175.40833071 388.89588236 195.16232517 388.88101616 214.91638184 388.84783936 C216.09780289 388.8458631 217.27922395 388.84388684 218.49644565 388.8418507 C226.88243782 388.82767658 235.2684285 388.8127037 243.65441895 388.79754639 C253.23555411 388.78022985 262.81668973 388.76327644 272.39782715 388.74725342 C273.5781074 388.74527165 274.75838765 388.74328989 275.97443397 388.74124807 C295.65739734 388.70892902 315.34030422 388.70009326 335.02329153 388.70800447 C347.15822476 388.71174102 359.29277577 388.6942301 371.42762815 388.64926398 C379.74082982 388.61979621 388.05387805 388.61148574 396.36712725 388.6197871 C401.16245979 388.62380936 405.95725368 388.61792181 410.752491 388.58568764 C415.14514222 388.55631319 419.53691037 388.55469926 423.92960566 388.5748089 C425.51560073 388.57717809 427.10165121 388.56943646 428.68753339 388.55036515 C437.93109925 388.44548007 445.30869095 389.03463953 452.59191895 395.29754639 C457.52166018 400.71290548 458.89402587 405.51687745 458.81066895 412.66473389 C458.30262632 418.77938976 455.93787085 423.95159448 451.59191895 428.29754639 C449.53740332 429.71403861 447.45160105 431.01988489 445.2989502 432.28192139 C443.62344696 433.183974 443.62344696 433.183974 442.59191895 434.29754639 C439.78215377 434.45771805 436.99418298 434.55705173 434.1817627 434.61395264 C433.33972794 434.63473373 432.49769318 434.65551483 431.63014221 434.67692566 C428.92998716 434.74251451 426.22973177 434.80134914 423.52941895 434.86004639 C421.70323653 434.90322275 419.87706441 434.94683674 418.05090332 434.99090576 C413.56467903 435.09820533 409.07835345 435.19944605 404.59191895 435.29754639 C405.70143921 435.98373047 405.70143921 435.98373047 406.83337402 436.68377686 C407.81201416 437.29624268 408.7906543 437.9087085 409.7989502 438.53973389 C410.76550537 439.14156494 411.73206055 439.743396 412.72790527 440.36346436 C426.25012647 449.49508454 434.53708835 464.75834644 438.3380127 480.36004639 C441.35257773 496.32684601 439.98626835 513.17497742 431.59191895 527.29754639 C430.99379395 528.45254639 430.39566895 529.60754639 429.77941895 530.79754639 C420.43667906 546.61692666 405.95003373 556.28024369 388.65441895 561.78973389 C369.56370425 566.49009925 350.38304094 563.08727933 333.59191895 553.29754639 C318.39942769 543.46983135 308.18002493 527.95752226 303.9083252 510.50457764 C300.04770285 490.77546618 303.39547352 472.08742562 314.59191895 455.29754639 C320.87633801 446.98179995 328.12916213 441.644614 336.59191895 435.29754639 C273.56191895 435.29754639 210.53191895 435.29754639 145.59191895 435.29754639 C148.56191895 437.27754639 148.56191895 437.27754639 151.59191895 439.29754639 C164.54235652 449.33358769 174.02551861 464.54035408 177.1505127 480.69598389 C179.59399276 500.63305129 175.44988888 517.42963 164.59191895 534.29754639 C162.12910068 537.25111073 159.48611754 539.77618123 156.59191895 542.29754639 C155.82879395 543.14317139 155.06566895 543.98879639 154.27941895 544.86004639 C139.04208556 558.67995341 120.67976563 562.26246699 100.80822754 561.45428467 C85.05938612 560.34051994 69.36886657 551.54220964 58.59191895 540.29754639 C45.51375773 524.72373606 39.05970747 506.89695346 40.37316895 486.62860107 C42.07012821 468.54537896 50.6124214 452.78055575 64.3145752 440.94598389 C70.70719354 435.73990909 70.70719354 435.73990909 73.59191895 434.29754639 C72.77626465 434.27772705 71.96061035 434.25790771 71.12023926 434.23748779 C68.0335891 434.15842132 64.94726527 434.07170965 61.86096191 433.98016357 C59.89252952 433.92399065 57.92386133 433.87628168 55.9552002 433.82879639 C45.09625832 433.49806719 34.57329238 432.81762383 24.59191895 428.23504639 C23.91749756 427.92978027 23.24307617 427.62451416 22.54821777 427.30999756 C4.24229006 418.66751872 -8.96886684 403.12125866 -16.30651855 384.46942139 C-20.61172135 372.07288001 -20.98703299 360.27690722 -20.40808105 347.29754639 C-20.35587402 345.67526123 -20.35587402 345.67526123 -20.3026123 344.02020264 C-18.96108356 330.15773898 -9.44117654 315.50960297 0.59191895 306.29754639 C1.91256348 305.04264404 1.91256348 305.04264404 3.2598877 303.76239014 C17.50952195 291.01271738 33.62424947 285.09014353 52.59191895 284.29754639 C51.55019245 267.20645637 49.87669114 250.27890404 47.64065552 233.30404663 C46.70455363 226.19464494 45.79492389 219.08193168 44.88776779 211.96879005 C44.1726744 206.36480247 43.45456948 200.76119959 42.73694611 195.15753555 C42.46888727 193.06292685 42.20135083 190.96825195 41.93389893 188.87356567 C41.42427338 184.88432074 40.91058966 180.8956072 40.39660645 176.90692139 C40.24461792 175.71418106 40.09262939 174.52144073 39.93603516 173.29255676 C39.24003119 167.91207004 38.48763332 162.55704128 37.56677246 157.21014404 C36.53914058 151.18966941 35.83426997 145.15858856 35.1895752 139.08660889 C35.00472816 137.39246353 35.00472816 137.39246353 34.81614685 135.66409302 C34.42568189 132.08391841 34.03954256 128.50329923 33.65441895 124.92254639 C33.14884192 120.22684248 32.64017702 115.53149673 32.1270752 110.83660889 C32.00240875 109.6917804 31.87774231 108.5469519 31.7492981 107.36743164 C30.83127513 99.08477848 29.76139226 90.83095803 28.50282288 82.59286499 C27.65438937 76.79150217 27.44536045 71.15765003 27.59191895 65.29754639 C26.10691895 64.80254639 26.10691895 64.80254639 24.59191895 64.29754639 C23.08410645 62.76629639 23.08410645 62.76629639 21.46691895 60.79754639 C17.98232179 56.66378445 14.21629068 52.91923149 10.3145752 49.18035889 C8.59191895 47.29754639 8.59191895 47.29754639 8.59191895 45.29754639 C7.43204468 45.30864944 6.27217041 45.3197525 5.07714844 45.33119202 C-5.86908422 45.4326783 -16.81522105 45.50756487 -27.76181793 45.55660725 C-33.38922275 45.58266843 -39.01624687 45.61800356 -44.64343262 45.67474365 C-50.07697781 45.72918655 -55.5101575 45.75899309 -60.94395447 45.7719326 C-63.01396943 45.78115038 -65.08396505 45.79915074 -67.15382385 45.82619667 C-70.05997486 45.86264982 -72.96462776 45.8674849 -75.87097168 45.86517334 C-76.72117889 45.88314972 -77.57138611 45.9011261 -78.44735718 45.91964722 C-85.60753911 45.85827731 -90.24162142 43.18761675 -95.4666748 38.41864014 C-95.92171387 37.8630542 -96.37675293 37.30746826 -96.84558105 36.73504639 C-97.31866699 36.17688232 -97.79175293 35.61871826 -98.2791748 35.04364014 C-101.22660507 30.484812 -101.12497259 24.51838691 -100.40808105 19.29754639 C-99.12442292 16.31830998 -97.61287912 13.68941822 -95.40808105 11.29754639 C-94.74808105 11.29754639 -94.08808105 11.29754639 -93.40808105 11.29754639 C-93.22245605 10.69942139 -93.03683105 10.10129639 -92.84558105 9.48504639 C-90.76439214 6.31801977 -87.87049939 5.44537906 -84.40808105 4.29754639 C-83.46376221 3.96593506 -82.51944336 3.63432373 -81.54650879 3.29266357 C-76.15167184 1.77012601 -70.61814011 1.82765856 -65.04870605 1.66473389 C-63.84252121 1.6229451 -62.63633636 1.58115631 -61.39360046 1.5381012 C-58.15060362 1.42867281 -54.90750737 1.32757326 -51.66407394 1.23208237 C-49.65559013 1.17247246 -47.64720414 1.11022524 -45.63882446 1.04721069 C-30.43031124 0.57221384 -15.21630347 0.10052639 0 0 Z " fill="#010101" transform="translate(295.4080810546875,214.70245361328125)"/>
<path d="M0 0 C0.87205078 -0.00386719 1.74410156 -0.00773438 2.64257812 -0.01171875 C8.27447893 -0.0033192 13.72561374 0.41178048 19.3125 1.125 C19.3125 1.785 19.3125 2.445 19.3125 3.125 C20.488125 3.063125 21.66375 3.00125 22.875 2.9375 C27.28518222 2.9375 30.29903023 4.25666063 34.3125 6.125 C35.91072075 6.60365495 37.515544 7.06060094 39.125 7.5 C43.72607977 8.82857926 47.78293381 10.72380688 52.015625 12.9453125 C54.46181529 14.24708266 54.46181529 14.24708266 57.75 15.5 C63.70747569 18.21744505 70.15860486 21.39931233 74.26953125 26.6015625 C76.6354485 29.52390006 79.17363133 31.0746419 82.3125 33.125 C98.92411665 48.37727493 98.92411665 48.37727493 101.3125 59.125 C101.9725 59.125 102.6325 59.125 103.3125 59.125 C103.3125 59.785 103.3125 60.445 103.3125 61.125 C103.9725 61.125 104.6325 61.125 105.3125 61.125 C109.90700067 67.37731019 113.02514353 74.4072757 115.75 81.625 C116.0087793 82.30691406 116.26755859 82.98882812 116.53417969 83.69140625 C117.7597848 87.0740091 118.3125 89.47767756 118.3125 93.125 C118.9725 93.125 119.6325 93.125 120.3125 93.125 C121.97851223 101.23020061 122.8726697 109.24977375 123.4375 117.5 C123.56705078 119.16482422 123.56705078 119.16482422 123.69921875 120.86328125 C124.46608387 131.6846001 124.3125 142.18804842 124.3125 153.125 C59.9625 153.125 -4.3875 153.125 -70.6875 153.125 C-69.06497992 169.69982794 -69.06497992 169.69982794 -64.6875 185.125 C-64.28144531 186.259375 -63.87539063 187.39375 -63.45703125 188.5625 C-61.29049489 194.42881383 -58.90030857 199.77031905 -55.6875 205.125 C-55.6875 205.785 -55.6875 206.445 -55.6875 207.125 C-55.0275 207.125 -54.3675 207.125 -53.6875 207.125 C-53.171875 208.176875 -52.65625 209.22875 -52.125 210.3125 C-50.07827297 213.95685208 -47.71140834 215.83422919 -44.17578125 217.984375 C-42.6875 219.125 -42.6875 219.125 -41.6875 222.125 C-28.83567534 232.80468528 -11.4841436 237.29953832 4.89648438 236.39453125 C14.69058114 235.3018996 23.72342575 230.52405445 31.39453125 224.54296875 C33.3125 223.125 33.3125 223.125 36.3125 222.125 C36.9725 221.135 37.6325 220.145 38.3125 219.125 C38.9725 219.125 39.6325 219.125 40.3125 219.125 C40.3125 218.465 40.3125 217.805 40.3125 217.125 C40.93125 217.063125 41.55 217.00125 42.1875 216.9375 C44.55037497 216.31806477 44.55037497 216.31806477 45.375 213.8125 C45.684375 212.925625 45.99375 212.03875 46.3125 211.125 C47.8125 208.8125 47.8125 208.8125 49.3125 207.125 C49.9725 207.125 50.6325 207.125 51.3125 207.125 C51.580625 206.320625 51.84875 205.51625 52.125 204.6875 C52.516875 203.841875 52.90875 202.99625 53.3125 202.125 C54.3025 201.795 55.2925 201.465 56.3125 201.125 C57.00189809 198.79828146 57.66716922 196.46432406 58.3125 194.125 C59.29100195 193.10395449 60.29230427 192.1043879 61.3125 191.125 C62.45059601 188.83328849 63.36845866 186.50758052 64.3125 184.125 C71.0770577 183.36048928 77.78532154 182.92700117 84.58984375 182.7734375 C85.52300919 182.75028473 86.45617462 182.72713196 87.4176178 182.70327759 C89.36959337 182.65605081 91.32161701 182.61077282 93.27368164 182.56738281 C96.26664412 182.49962318 99.25924852 182.42199704 102.25195312 182.34375 C104.1562361 182.29888545 106.06053269 182.2545939 107.96484375 182.2109375 C109.30542091 182.17509048 109.30542091 182.17509048 110.67308044 182.13851929 C111.50146927 182.1216507 112.32985809 182.1047821 113.18334961 182.08740234 C114.27394936 182.06194839 114.27394936 182.06194839 115.38658142 182.03598022 C117.3125 182.125 117.3125 182.125 120.3125 183.125 C119.98160892 196.1801571 114.64445379 207.19741375 108.08203125 218.1640625 C106.71310177 220.45467739 105.45718475 222.71822693 104.3125 225.125 C103.6525 225.125 102.9925 225.125 102.3125 225.125 C101.9825 226.445 101.6525 227.765 101.3125 229.125 C100.6525 229.125 99.9925 229.125 99.3125 229.125 C99.06242188 229.84558594 98.81234375 230.56617188 98.5546875 231.30859375 C91.90957532 246.37502735 73.34586034 261.39822698 59.3125 269.125 C58.6525 269.125 57.9925 269.125 57.3125 269.125 C57.3125 269.785 57.3125 270.445 57.3125 271.125 C54.6725 271.785 52.0325 272.445 49.3125 273.125 C49.3125 273.785 49.3125 274.445 49.3125 275.125 C15.98616671 288.95335406 -18.43609926 292.26471865 -52.6875 279.125 C-54.70621056 278.16333079 -56.70626974 277.16169025 -58.6875 276.125 C-59.85925781 275.52042969 -61.03101563 274.91585938 -62.23828125 274.29296875 C-80.83433252 264.54926478 -80.83433252 264.54926478 -87.6875 257.125 C-88.81478516 255.99771484 -88.81478516 255.99771484 -89.96484375 254.84765625 C-102.48862744 242.32387256 -111.27938895 229.43353609 -119.0234375 213.4609375 C-120.61108932 210.10423764 -120.61108932 210.10423764 -122.6875 207.125 C-123.28438499 205.22780274 -123.81653402 203.30985852 -124.30859375 201.3828125 C-124.60443359 200.23296875 -124.90027344 199.083125 -125.20507812 197.8984375 C-125.50865234 196.69445312 -125.81222656 195.49046875 -126.125 194.25 C-126.57456055 192.50203125 -126.57456055 192.50203125 -127.03320312 190.71875 C-135.96480036 155.76733698 -133.70053047 125.15165591 -125.6875 90.125 C-125.0275 90.125 -124.3675 90.125 -123.6875 90.125 C-123.55601562 89.56683594 -123.42453125 89.00867188 -123.2890625 88.43359375 C-119.71511992 74.71800892 -112.92574579 62.78451438 -103.6875 52.125 C-103.09195312 51.43148437 -102.49640625 50.73796875 -101.8828125 50.0234375 C-101.34398437 49.39695313 -100.80515625 48.77046875 -100.25 48.125 C-97.73952579 45.42977522 -97.73952579 45.42977522 -96.6875 43.125 C-96.0275 43.125 -95.3675 43.125 -94.6875 43.125 C-94.6875 42.465 -94.6875 41.805 -94.6875 41.125 C-91.201101 37.28085484 -87.31829739 34.1629941 -83.1875 31.0625 C-76.2950407 26.12151097 -76.2950407 26.12151097 -70.125 20.375 C-68.6875 19.125 -68.6875 19.125 -64.6875 19.125 C-64.1925 17.64 -64.1925 17.64 -63.6875 16.125 C-61.578125 14.80859375 -61.578125 14.80859375 -58.9375 13.5625 C-58.07640625 13.14871094 -57.2153125 12.73492187 -56.328125 12.30859375 C-53.80479029 11.17757242 -51.26321207 10.13026892 -48.6875 9.125 C-48.6875 8.465 -48.6875 7.805 -48.6875 7.125 C-44.60756224 6.13132018 -40.52305116 5.1578184 -36.4375 4.1875 C-35.29796875 3.90970703 -34.1584375 3.63191406 -32.984375 3.34570312 C-21.97168607 0.74896113 -11.28648787 -0.05072579 0 0 Z " fill="#11CF06" transform="translate(602.6875,144.875)"/>
<path d="M0 0 C0.95310059 0.00499512 1.90620117 0.00999023 2.88818359 0.01513672 C20.18136265 0.43438283 36.39196653 7.18306724 49.4375 18.5 C50.30375 19.2425 51.17 19.985 52.0625 20.75 C59.13285739 28.93672961 65.4375 39.35365234 65.4375 50.5 C24.1875 50.5 -17.0625 50.5 -59.5625 50.5 C-62.08819362 44.18576595 -61.08276295 41.56083996 -58.5625 35.5 C-56.77796565 32.02086804 -54.93962726 28.61211646 -52.5625 25.5 C-51.9025 25.5 -51.2425 25.5 -50.5625 25.5 C-50.315 24.736875 -50.0675 23.97375 -49.8125 23.1875 C-48.44119328 20.23919055 -47.3273921 19.14165468 -44.5625 17.5 C-43.9025 17.5 -43.2425 17.5 -42.5625 17.5 C-42.335625 16.9225 -42.10875 16.345 -41.875 15.75 C-38.86141727 10.58385818 -33.75618337 8.48510926 -28.375 6.4375 C-27.76591797 6.19451172 -27.15683594 5.95152344 -26.52929688 5.70117188 C-24.55230256 4.92881244 -22.56427949 4.20563827 -20.5625 3.5 C-19.7883374 3.22494629 -19.0141748 2.94989258 -18.21655273 2.66650391 C-12.07528286 0.64055533 -6.4526636 -0.04510735 0 0 Z " fill="#FCFEFC" transform="translate(596.5625,208.5)"/>
<path d="M0 0 C3.54235573 0.00259044 7.08470931 0.00016685 10.62706518 -0.00138617 C16.59273769 -0.00319407 22.55839775 -0.00084361 28.52406836 0.00395441 C34.55109487 0.0087477 40.57809659 0.00881226 46.60512304 0.00395441 C80.24728657 -0.02254368 113.8697915 0.04723494 147.49867773 1.1343255 C147.49867773 1.4643255 147.49867773 1.7943255 147.49867773 2.1343255 C83.47867773 2.1343255 19.45867773 2.1343255 -46.50132227 2.1343255 C-45.59797963 8.83321129 -45.59797963 8.83321129 -43.50132227 15.1343255 C-43.29515001 17.04714591 -43.13500134 18.96507596 -43.00132227 20.8843255 C-42.68824807 25.01889273 -42.29385511 29.05844232 -41.50132227 33.1343255 C-47.49299387 27.14265391 -47.54518375 14.67411089 -47.56382227 6.6968255 C-47.54474753 4.84263991 -47.52419988 2.98846807 -47.50132227 1.1343255 C-31.66388687 0.11781414 -15.86645347 -0.01532505 0 0 Z " fill="#C0FBBB" transform="translate(579.5013222694397,296.865674495697)"/>
<path d="M0 0 C2 2 2 2 2 6 C2.66 6 3.32 6 4 6 C5.66601223 14.10520061 6.5601697 22.12477375 7.125 30.375 C7.21136719 31.48488281 7.29773438 32.59476562 7.38671875 33.73828125 C8.15358387 44.5596001 8 55.06304842 8 66 C-56.35 66 -120.7 66 -187 66 C-184.529477 63.529477 -183.11505278 63.75327869 -179.74277246 63.71566427 C-178.6367543 63.71856637 -178.6367543 63.71856637 -177.50839233 63.7215271 C-176.33589131 63.7128385 -176.33589131 63.7128385 -175.13970339 63.70397437 C-172.50634316 63.68689608 -169.87315734 63.68409118 -167.23974609 63.68115234 C-165.35769721 63.67185956 -163.47565247 63.66169187 -161.59361267 63.65071106 C-156.47200243 63.62332372 -151.35041983 63.60823587 -146.22875547 63.59528303 C-140.88087498 63.57969057 -135.53305126 63.55288806 -130.18521118 63.5272522 C-120.05279082 63.4803954 -109.92035986 63.44368476 -99.78788626 63.41057932 C-88.25477158 63.3724066 -76.72171381 63.3229838 -65.18864703 63.27259517 C-41.45914016 63.16917271 -17.72959675 63.07994595 6 63 C5.88074095 58.87386703 5.7564388 54.7479182 5.62768555 50.62207031 C5.58466974 49.22172048 5.54297507 47.82132936 5.50268555 46.42089844 C6.2470124 34.44994989 6.2470124 34.44994989 3 24 C2.81346805 22.14948461 2.67634713 20.29390519 2.5625 18.4375 C2.28521004 14.67619585 1.91569818 11.14413266 0.9375 7.5 C0 4 0 4 0 0 Z " fill="#35BC2B" transform="translate(719,232)"/>
<path d="M0 0 C-0.886875 0.4125 -1.77375 0.825 -2.6875 1.25 C-7.52781281 3.80714639 -11.21197466 7.0897803 -15 11 C-15.61875 11.5775 -16.2375 12.155 -16.875 12.75 C-23.81347394 20.09661947 -29.22496417 28.66618895 -30 39 C-29.67 39.66 -29.34 40.32 -29 41 C12.25 41.33 53.5 41.66 96 42 C96 42.66 96 43.32 96 44 C79.60618387 44.02333758 63.21237311 44.04098341 46.81854439 44.05181217 C39.20698619 44.0569733 31.5954383 44.06401252 23.98388672 44.07543945 C17.35136752 44.08539187 10.71885579 44.09185476 4.08632934 44.09408849 C0.57292563 44.09539465 -2.94045673 44.09847452 -6.45385361 44.10573006 C-10.37142087 44.11375498 -14.28896704 44.11399078 -18.20654297 44.11352539 C-19.37754547 44.11712067 -20.54854797 44.12071594 -21.7550354 44.12442017 C-23.34943451 44.12235817 -23.34943451 44.12235817 -24.9760437 44.12025452 C-26.36702931 44.12163721 -26.36702931 44.12163721 -27.78611565 44.12304783 C-30 44 -30 44 -32 43 C-32.02712153 41.083412 -32.04645097 39.1667127 -32.0625 37.25 C-32.07410156 36.18265625 -32.08570313 35.1153125 -32.09765625 34.015625 C-32.01510087 31.46631499 -31.74617558 29.42066409 -31 27 C-30.34 27 -29.68 27 -29 27 C-28.01 23.7 -27.02 20.4 -26 17 C-25.01 17 -24.02 17 -23 17 C-21.79371992 14.66785852 -20.8345262 12.50357861 -20 10 C-18.68 10 -17.36 10 -16 10 C-15.71125 9.21625 -15.4225 8.4325 -15.125 7.625 C-14 5 -14 5 -12 3 C-11.01 3 -10.02 3 -9 3 C-9 2.34 -9 1.68 -9 1 C-5.57367167 -0.61798838 -3.61944899 -1.34053666 0 0 Z " fill="#39C62D" transform="translate(566,217)"/>
<path d="M0 0 C0.87205078 -0.00386719 1.74410156 -0.00773438 2.64257812 -0.01171875 C8.27447893 -0.0033192 13.72561374 0.41178048 19.3125 1.125 C19.3125 1.785 19.3125 2.445 19.3125 3.125 C20.488125 3.063125 21.66375 3.00125 22.875 2.9375 C27.28518222 2.9375 30.29903023 4.25666063 34.3125 6.125 C35.91072075 6.60365495 37.515544 7.06060094 39.125 7.5 C43.71267185 8.82470768 47.7593744 10.71219949 51.98046875 12.92578125 C54.06367666 13.99704562 56.14503825 14.9284628 58.3125 15.8125 C61.3125 17.125 61.3125 17.125 63.3125 19.125 C60.6725 18.795 58.0325 18.465 55.3125 18.125 C55.3125 17.465 55.3125 16.805 55.3125 16.125 C54.219375 16.00125 53.12625 15.8775 52 15.75 C48.3125 15.125 48.3125 15.125 45.3125 13.125 C43.32450182 12.42335358 41.32551483 11.75127128 39.3125 11.125 C39.3125 10.465 39.3125 9.805 39.3125 9.125 C37.3634375 8.9703125 37.3634375 8.9703125 35.375 8.8125 C32.0495415 8.44991107 29.142158 7.82696389 26 6.6875 C15.95176057 3.10801535 5.56796034 2.78419802 -5 2.8125 C-6.22267578 2.79638672 -7.44535156 2.78027344 -8.70507812 2.76367188 C-15.21761305 2.76013438 -19.92923237 3.05950217 -25.6875 6.125 C-27.34407833 6.65747161 -29.01029883 7.16156283 -30.6875 7.625 C-33.74551486 8.49412001 -36.24606623 9.39920524 -39.125 10.8125 C-44.0201146 12.61596327 -48.5280463 12.37690823 -53.6875 12.125 C-52.3125 10.625 -52.3125 10.625 -50.6875 9.125 C-50.0275 9.125 -49.3675 9.125 -48.6875 9.125 C-48.6875 8.465 -48.6875 7.805 -48.6875 7.125 C-44.60756224 6.13132018 -40.52305116 5.1578184 -36.4375 4.1875 C-35.29796875 3.90970703 -34.1584375 3.63191406 -32.984375 3.34570312 C-21.97168607 0.74896113 -11.28648787 -0.05072579 0 0 Z M53.3125 18.125 C55.3125 19.125 55.3125 19.125 55.3125 19.125 Z " fill="#50D647" transform="translate(602.6875,144.875)"/>
<path d="M0 0 C1.2770858 -0.0049926 1.2770858 -0.0049926 2.57997131 -0.01008606 C4.367355 -0.01511247 6.15474793 -0.01749572 7.94213867 -0.01733398 C10.64973626 -0.01952283 13.3569272 -0.03773092 16.06445312 -0.05664062 C24.53522258 -0.0832663 32.47207022 -0.00867178 40.72265625 2.16796875 C40.72265625 2.82796875 40.72265625 3.48796875 40.72265625 4.16796875 C41.50640625 4.08546875 42.29015625 4.00296875 43.09765625 3.91796875 C48.13299794 4.26523369 52.12523783 6.18424302 56.72265625 8.16796875 C58.59553714 8.92324497 60.47046384 9.67347318 62.34765625 10.41796875 C63.80598958 11.00130208 65.26432292 11.58463542 66.72265625 12.16796875 C66.72265625 13.15796875 66.72265625 14.14796875 66.72265625 15.16796875 C67.71265625 15.16796875 68.70265625 15.16796875 69.72265625 15.16796875 C70.21765625 16.65296875 70.21765625 16.65296875 70.72265625 18.16796875 C66.05099207 17.10622689 62.16699018 15.44402239 57.91015625 13.23046875 C53.28546443 10.8485786 48.84191442 9.10898447 43.828125 7.75390625 C41.72265625 7.16796875 41.72265625 7.16796875 39.09765625 6.04296875 C35.67935302 4.78359388 32.34358484 4.53619878 28.72265625 4.16796875 C28.72265625 3.50796875 28.72265625 2.84796875 28.72265625 2.16796875 C6.63428281 1.88754995 -13.68390202 3.01953241 -35.27734375 8.16796875 C-32.16324295 4.51097387 -29.76073942 3.4458988 -25.08984375 2.48046875 C-24.02378906 2.24972656 -22.95773437 2.01898438 -21.859375 1.78125 C-14.56610359 0.53256558 -7.39437084 0.01032283 0 0 Z " fill="#BBF8B9" transform="translate(593.27734375,143.83203125)"/>
<path d="M0 0 C1.32 0 2.64 0 4 0 C6.9503226 6.13387227 9.52641634 12.10907126 11.2265625 18.7109375 C11.93188728 21.09063149 11.93188728 21.09063149 13.453125 23.31640625 C15.34491311 26.59837199 16.24370887 29.91395472 17.125 33.5625 C17.29386719 34.20251953 17.46273437 34.84253906 17.63671875 35.50195312 C20.67551768 47.76482283 19.99751271 60.24245514 19.5625 72.75 C19.5091386 74.4296677 19.45639981 76.10935529 19.40429688 77.7890625 C19.27669716 81.85963968 19.14071288 85.92985589 19 90 C18.67 90 18.34 90 18 90 C17.96463638 89.39500671 17.92927277 88.79001343 17.89283752 88.16668701 C17.52417331 81.87240547 17.1502222 75.57845389 16.77319336 69.28466797 C16.6331628 66.93546471 16.49448248 64.58618056 16.35717773 62.23681641 C16.15963615 58.86078086 15.95724766 55.48506556 15.75390625 52.109375 C15.6934462 51.05820496 15.63298615 50.00703491 15.57069397 48.92401123 C15.51070724 47.94329651 15.45072052 46.96258179 15.38891602 45.95214844 C15.33784195 45.09055115 15.28676788 44.22895386 15.23414612 43.34124756 C15.05990765 41.02558035 15.05990765 41.02558035 14.479599 38.92486572 C13.7412851 35.96165039 13.94159973 33.03681422 14 30 C13.34 30 12.68 30 12 30 C11.8141333 29.43603516 11.6282666 28.87207031 11.43676758 28.29101562 C10.57278771 25.69028979 9.69277238 23.09525438 8.8125 20.5 C8.37454102 19.1696875 8.37454102 19.1696875 7.92773438 17.8125 C6.14412075 12.59590961 4.08921459 8.12518123 0.9597168 3.57617188 C0 2 0 2 0 0 Z " fill="#CAFAC7" transform="translate(709,208)"/>
<path d="M0 0 C1.52427612 -0.00326294 1.52427612 -0.00326294 3.0793457 -0.0065918 C4.15917725 -0.00183838 5.23900879 0.00291504 6.3515625 0.0078125 C7.98581177 0.01397583 7.98581177 0.01397583 9.65307617 0.02026367 C29.9448853 0.16137922 29.9448853 0.16137922 32.58203125 2.64453125 C33.04222656 3.13566406 33.50242187 3.62679687 33.9765625 4.1328125 C35.4615625 4.3803125 35.4615625 4.3803125 36.9765625 4.6328125 C39.9765625 5.1328125 39.9765625 5.1328125 41.4140625 6.6953125 C43.07603415 8.53148805 43.07603415 8.53148805 46.6640625 8.3203125 C47.7571875 8.2584375 48.8503125 8.1965625 49.9765625 8.1328125 C51.9765625 13.8828125 51.9765625 13.8828125 51.9765625 16.1328125 C52.6365625 16.1328125 53.2965625 16.1328125 53.9765625 16.1328125 C53.6465625 16.7928125 53.3165625 17.4528125 52.9765625 18.1328125 C52.06777344 17.54113281 51.15898438 16.94945312 50.22265625 16.33984375 C33.21425164 5.5457851 13.50584677 -0.64277346 -6.77783203 3.72607422 C-10.82739118 4.87803253 -14.74504224 6.28686204 -18.6640625 7.8203125 C-22.0234375 9.1328125 -22.0234375 9.1328125 -24.0234375 9.1328125 C-24.0234375 8.4728125 -24.0234375 7.8128125 -24.0234375 7.1328125 C-20.46625531 4.56848523 -17.082383 3.46787844 -12.8359375 2.5078125 C-1.91156968 0.00234713 -1.91156968 0.00234713 0 0 Z " fill="#35C82B" transform="translate(590.0234375,206.8671875)"/>
<path d="M0 0 C0.66 0 1.32 0 2 0 C2 0.66 2 1.32 2 2 C1.34 2 0.68 2 0 2 C-0.1546875 2.9590625 -0.1546875 2.9590625 -0.3125 3.9375 C-1.23903073 8.06477326 -2.61660629 12.00642949 -4 16 C-4.66 16 -5.32 16 -6 16 C-6 18.31 -6 20.62 -6 23 C33.6 23 73.2 23 114 23 C114 19.04 114 15.08 114 11 C116 14 116 14 118 25 C76.75 25 35.5 25 -7 25 C-9.52569362 18.68576595 -8.52026295 16.06083996 -6 10 C-4.21546565 6.52086804 -2.37712726 3.11211646 0 0 Z " fill="#B8FDB2" transform="translate(544,234)"/>
<path d="M0 0 C0.33 0 0.66 0 1 0 C1.0093457 1.20833496 1.01869141 2.41666992 1.02832031 3.66162109 C1.06883086 8.23569815 1.13474299 12.80914469 1.20751953 17.3828125 C1.23538113 19.34529389 1.25676456 21.30788025 1.27099609 23.27050781 C1.37156073 36.37072756 2.60789323 48.33648481 6 61 C6.8537597 64.20723119 7.1063885 66.9144739 7.0625 70.25 C7.05347656 71.14203125 7.04445313 72.0340625 7.03515625 72.953125 C7.02355469 73.62859375 7.01195312 74.3040625 7 75 C5.20470766 72.30706149 4.63434206 71.07133972 4 68.05078125 C3.835 67.28443359 3.67 66.51808594 3.5 65.72851562 C3.335 64.93123047 3.17 64.13394531 3 63.3125 C2.6677237 61.74586918 2.33439696 60.17946078 2 58.61328125 C1.83677246 57.84516113 1.67354492 57.07704102 1.50537109 56.28564453 C1.01286106 54.05816677 0.4746361 51.84795505 -0.0859375 49.63671875 C-3.9517833 34.25593909 -2.83726877 15.49768656 0 0 Z " fill="#3DC733" transform="translate(471,266)"/>
<path d="M0 0 C2 2 2 2 2 6 C2.66 6 3.32 6 4 6 C5.66601223 14.10520061 6.5601697 22.12477375 7.125 30.375 C7.21136719 31.48488281 7.29773438 32.59476562 7.38671875 33.73828125 C8.15358387 44.5596001 8 55.06304842 8 66 C-5.86 66 -19.72 66 -34 66 C-34 65.67 -34 65.34 -34 65 C-21.13 64.67 -8.26 64.34 5 64 C5.0309375 56.575 5.0309375 56.575 5.0625 49 C5.071604 47.45441406 5.08070801 45.90882813 5.09008789 44.31640625 C5.13674864 34.61650536 5.13674864 34.61650536 4 25 C3.67 24.67 3.34 24.34 3 24 C2.81346805 22.14948461 2.67634713 20.29390519 2.5625 18.4375 C2.28521004 14.67619585 1.91569818 11.14413266 0.9375 7.5 C0 4 0 4 0 0 Z " fill="#2FC224" transform="translate(719,232)"/>
<path d="M0 0 C0.763125 0.309375 1.52625 0.61875 2.3125 0.9375 C4.18789677 1.67893593 6.08684652 2.36228217 8 3 C8.33 2.01 8.66 1.02 9 0 C9.99 0.33 10.98 0.66 12 1 C-0.57534247 11 -0.57534247 11 -4 11 C-4 11.66 -4 12.32 -4 13 C-6.64 13.66 -9.28 14.32 -12 15 C-12 15.66 -12 16.32 -12 17 C-25.12114901 22.44446017 -37.61134358 27.48148986 -52 28 C-49.31013816 25.31013816 -46.40662851 24.99565223 -42.8125 24.1875 C-37.00111495 22.80800969 -31.29641891 21.25153657 -25.625 19.375 C-24.40039062 18.97023438 -23.17578125 18.56546875 -21.9140625 18.1484375 C-18.93055874 17.19629016 -18.93055874 17.19629016 -17 15 C-15.34183216 14.31246699 -13.67540664 13.64438717 -12 13 C-11.67 12.67 -11.34 12.34 -11 12 C-9.00041636 11.95919217 -6.99954746 11.95745644 -5 12 C-5.495 10.515 -5.495 10.515 -6 9 C-4.02 8.01 -2.04 7.02 0 6 C0 4.02 0 2.04 0 0 Z " fill="#30C626" transform="translate(664,403)"/>
<path d="M0 0 C0.66 0 1.32 0 2 0 C2.09796875 1.22074219 2.1959375 2.44148438 2.296875 3.69921875 C3.16479295 13.59207212 4.5203924 22.63365899 8 32 C8.41765625 33.15757812 8.8353125 34.31515625 9.265625 35.5078125 C11.57805061 41.80671695 11.57805061 41.80671695 14.65234375 47.75 C16 50 16 50 16 52 C15.34 52 14.68 52 14 52 C13.67 51.34 13.34 50.68 13 50 C12.02933594 49.6596875 12.02933594 49.6596875 11.0390625 49.3125 C9 48 9 48 8.0234375 44.8125 C7.80945313 43.554375 7.59546875 42.29625 7.375 41 C6.7370474 35.97049464 6.7370474 35.97049464 4 32 C3.42440161 30.49903768 2.90869583 28.97443718 2.4375 27.4375 C1.66788364 24.4574868 1.66788364 24.4574868 0 22 C-0.08700342 20.36527118 -0.10701063 18.72685945 -0.09765625 17.08984375 C-0.09443359 16.10048828 -0.09121094 15.11113281 -0.08789062 14.09179688 C-0.07951172 13.05087891 -0.07113281 12.00996094 -0.0625 10.9375 C-0.05798828 9.89271484 -0.05347656 8.84792969 -0.04882812 7.77148438 C-0.03699913 5.1809334 -0.02051689 2.59049441 0 0 Z " fill="#36C62F" transform="translate(530,298)"/>
<path d="M0 0 C7.742852 6.253842 13.78381067 12.027148 16 22 C16.66 22 17.32 22 18 22 C18 22.66 18 23.32 18 24 C18.66 24 19.32 24 20 24 C24.86636266 30.86804385 28.99802613 38.78601898 31 47 C30.67 47.66 30.34 48.32 30 49 C29.59007812 48.24074219 29.18015625 47.48148438 28.7578125 46.69921875 C28.21898437 45.70535156 27.68015625 44.71148437 27.125 43.6875 C26.59132813 42.70136719 26.05765625 41.71523437 25.5078125 40.69921875 C23.99277874 37.90413542 23.99277874 37.90413542 22 35 C22 34.01 22 33.02 22 32 C21.34 32 20.68 32 20 32 C19.67 30.02 19.34 28.04 19 26 C17.68 25.67 16.36 25.34 15 25 C14.938125 24.2575 14.87625 23.515 14.8125 22.75 C13.74892315 19.15020144 11.91332438 18.28904059 9 16 C7.96838392 14.01612292 6.96476382 12.01723344 6 10 C5.01 9.34 4.02 8.68 3 8 C3 6.68 3 5.36 3 4 C2.34 4 1.68 4 1 4 C0.67 2.68 0.34 1.36 0 0 Z " fill="#53D04F" transform="translate(688,182)"/>
<path d="M0 0 C-0.11398665 1.62580966 -0.24155659 3.25067157 -0.375 4.875 C-0.44460938 5.77992188 -0.51421875 6.68484375 -0.5859375 7.6171875 C-1 10 -1 10 -3 12 C-3 9.03 -3 6.06 -3 3 C-18.95586098 1.53038123 -34.99477279 1.90535482 -51 2 C-51 2.66 -51 3.32 -51 4 C-51.61875 4.103125 -52.2375 4.20625 -52.875 4.3125 C-55.36526484 4.87525373 -55.36526484 4.87525373 -57 8 C-58 5 -58 5 -57.32055664 2.85717773 C-56 1 -56 1 -54.17749023 0.41040039 C-53.03582397 0.34840454 -53.03582397 0.34840454 -51.87109375 0.28515625 C-50.97374512 0.2298877 -50.07639648 0.17461914 -49.15185547 0.11767578 C-48.11174316 0.07884277 -47.07163086 0.04000977 -46 0 C-44.79875488 -0.0530127 -43.59750977 -0.10602539 -42.35986328 -0.16064453 C-38.96596601 -0.29448719 -35.5730658 -0.40701047 -32.17797852 -0.50268555 C-30.06968625 -0.56229681 -27.96161779 -0.62739689 -25.85351562 -0.69335938 C-4.07030982 -1.35676994 -4.07030982 -1.35676994 0 0 Z " fill="#46BF3F" transform="translate(723,328)"/>
<path d="M0 0 C-0.886875 0.4125 -1.77375 0.825 -2.6875 1.25 C-7.52781281 3.80714639 -11.21197466 7.0897803 -15 11 C-15.61875 11.5775 -16.2375 12.155 -16.875 12.75 C-23.80484069 20.08747838 -29.24448578 28.67463895 -30 39 C-29.67 39.99 -29.34 40.98 -29 42 C-30.485 42.495 -30.485 42.495 -32 43 C-32.02712153 41.083412 -32.04645097 39.1667127 -32.0625 37.25 C-32.07410156 36.18265625 -32.08570313 35.1153125 -32.09765625 34.015625 C-32.01510087 31.46631499 -31.74617558 29.42066409 -31 27 C-30.34 27 -29.68 27 -29 27 C-28.01 23.7 -27.02 20.4 -26 17 C-25.01 17 -24.02 17 -23 17 C-21.79371992 14.66785852 -20.8345262 12.50357861 -20 10 C-18.68 10 -17.36 10 -16 10 C-15.71125 9.21625 -15.4225 8.4325 -15.125 7.625 C-14 5 -14 5 -12 3 C-11.01 3 -10.02 3 -9 3 C-9 2.34 -9 1.68 -9 1 C-5.57367167 -0.61798838 -3.61944899 -1.34053666 0 0 Z " fill="#31C029" transform="translate(566,217)"/>
<path d="M0 0 C12.793967 -0.49954752 24.50444826 1.99871221 35.82421875 7.96484375 C38.38915076 9.18514354 40.99997509 10.08257182 43.6875 11 C47.77757152 12.43152503 50.83399068 13.94316341 54 17 C51.36 16.67 48.72 16.34 46 16 C46 15.34 46 14.68 46 14 C44.906875 13.87625 43.81375 13.7525 42.6875 13.625 C39 13 39 13 36 11 C34.01200182 10.29835358 32.01301483 9.62627128 30 9 C30 8.34 30 7.68 30 7 C28.0509375 6.8453125 28.0509375 6.8453125 26.0625 6.6875 C22.7370415 6.32491107 19.829658 5.70196389 16.6875 4.5625 C11.26320966 2.60052264 5.69134743 1.81855251 0 1 C0 0.67 0 0.34 0 0 Z M44 16 C46 17 46 17 46 17 Z " fill="#3FCD37" transform="translate(612,147)"/>
<path d="M0 0 C0.33 0.99 0.66 1.98 1 3 C0.34 3.66 -0.32 4.32 -1 5 C-1.99 5 -2.98 5 -4 5 C-4.433125 6.36125 -4.433125 6.36125 -4.875 7.75 C-5.76531776 10.32202908 -6.71494413 12.61346766 -8 15 C-8.66 15 -9.32 15 -10 15 C-10 15.99 -10 16.98 -10 18 C-10.66 18 -11.32 18 -12 18 C-12.0825 18.598125 -12.165 19.19625 -12.25 19.8125 C-13.20939363 22.61073143 -14.64049521 23.30410593 -17 25 C-17.33 25.99 -17.66 26.98 -18 28 C-18.66 28 -19.32 28 -20 28 C-20 28.66 -20 29.32 -20 30 C-20.66 30 -21.32 30 -22 30 C-22.33 31.32 -22.66 32.64 -23 34 C-23.66 34 -24.32 34 -25 34 C-22.44293734 24.02745561 -14.52276011 14.48413941 -7.32421875 7.3359375 C-5.87784421 6.01572635 -5.87784421 6.01572635 -5 4 C-4.34 4 -3.68 4 -3 4 C-3 3.34 -3 2.68 -3 2 C-2.01 1.34 -1.02 0.68 0 0 Z " fill="#32C927" transform="translate(511,184)"/>
<path d="M0 0 C1 2 1 2 0.1796875 4.5390625 C-2.15366933 10.05808016 -4.54905721 15.24471403 -7.86328125 20.2421875 C-9.46567554 22.72011681 -10.73540158 25.33768753 -12 28 C-12.66 28 -13.32 28 -14 28 C-14.33 29.32 -14.66 30.64 -15 32 C-15.66 32 -16.32 32 -17 32 C-17.25523437 32.72574219 -17.51046875 33.45148438 -17.7734375 34.19921875 C-19.06801074 37.1552984 -20.60455104 39.30564666 -22.625 41.8125 C-23.25664063 42.60269531 -23.88828125 43.39289063 -24.5390625 44.20703125 C-25.02117188 44.79871094 -25.50328125 45.39039063 -26 46 C-26.33 44.68 -26.66 43.36 -27 42 C-26.34 42 -25.68 42 -25 42 C-24.87625 41.071875 -24.87625 41.071875 -24.75 40.125 C-24.5025 39.42375 -24.255 38.7225 -24 38 C-23.360625 37.731875 -22.72125 37.46375 -22.0625 37.1875 C-19.57546681 36.05610979 -19.57546681 36.05610979 -18.75 32.375 C-18.37875 30.704375 -18.37875 30.704375 -18 29 C-17.01 29 -16.02 29 -15 29 C-14.896875 28.46375 -14.79375 27.9275 -14.6875 27.375 C-13.81907303 24.37497956 -12.44379704 21.7620465 -11 19 C-10.34 19 -9.68 19 -9 19 C-8.87625 18.071875 -8.7525 17.14375 -8.625 16.1875 C-8 13 -8 13 -6 10 C-5.34 10 -4.68 10 -4 10 C-3.896875 9.0925 -3.79375 8.185 -3.6875 7.25 C-2.99585051 3.98038425 -2.17865079 2.46282263 0 0 Z " fill="#36BF2D" transform="translate(719,342)"/>
<path d="M0 0 C1.11761719 -0.00193359 1.11761719 -0.00193359 2.2578125 -0.00390625 C3.41023437 0.00189453 3.41023437 0.00189453 4.5859375 0.0078125 C5.36195313 0.00394531 6.13796875 0.00007813 6.9375 -0.00390625 C12.70753484 0.00611117 12.70753484 0.00611117 14.9609375 1.1328125 C14.9609375 1.7928125 14.9609375 2.4528125 14.9609375 3.1328125 C13.65012207 3.15786865 12.33930664 3.1829248 10.98876953 3.20874023 C6.08715415 3.30349931 1.18565808 3.40354778 -3.71582031 3.50512695 C-5.83004956 3.5482185 -7.94430787 3.58990956 -10.05859375 3.63012695 C-13.11206794 3.68845983 -16.16539929 3.75196658 -19.21875 3.81640625 C-20.61781082 3.84147499 -20.61781082 3.84147499 -22.0451355 3.86705017 C-28.08468822 4.00086831 -34.03764431 4.44328031 -40.0390625 5.1328125 C-40.6990625 7.1128125 -41.3590625 9.0928125 -42.0390625 11.1328125 C-42.3690625 11.1328125 -42.6990625 11.1328125 -43.0390625 11.1328125 C-42.7090625 8.1628125 -42.3790625 5.1928125 -42.0390625 2.1328125 C-41.03004883 2.10775635 -40.02103516 2.0827002 -38.98144531 2.05688477 C-35.23164554 1.96258841 -31.48202142 1.86242229 -27.73242188 1.76049805 C-26.11071893 1.71723319 -24.48897292 1.67555222 -22.8671875 1.63549805 C-20.53372223 1.57759036 -18.20047207 1.51395552 -15.8671875 1.44921875 C-15.14412415 1.43250626 -14.42106079 1.41579376 -13.67608643 1.39857483 C-9.00431812 1.26162748 -4.63557938 0.00770578 0 0 Z " fill="#CBFCC4" transform="translate(707.0390625,324.8671875)"/>
<path d="M0 0 C1.98 0 3.96 0 6 0 C5.01 0.66 4.02 1.32 3 2 C2.3503125 2.7734375 2.3503125 2.7734375 1.6875 3.5625 C0 5 0 5 -3.0625 5.4375 C-4.031875 5.623125 -5.00125 5.80875 -6 6 C-6.26039063 6.5671875 -6.52078125 7.134375 -6.7890625 7.71875 C-8.54806474 11.03248326 -11.35709339 12.87464628 -14.3125 15.0625 C-14.88162109 15.49626953 -15.45074219 15.93003906 -16.03710938 16.37695312 C-19.24936194 18.79997257 -22.50205973 20.99836439 -26 23 C-26 22.01 -26 21.02 -26 20 C-25.34 20 -24.68 20 -24 20 C-23.896875 19.360625 -23.79375 18.72125 -23.6875 18.0625 C-23.460625 17.381875 -23.23375 16.70125 -23 16 C-22.01 15.67 -21.02 15.34 -20 15 C-19.3162955 13.67532254 -18.65035814 12.34136367 -18 11 C-14.77208445 8.8480563 -13.71599191 8.79913557 -10 9 C-10 8.01 -10 7.02 -10 6 C-7 4 -7 4 -3.875 3 C-0.87488938 2.3313327 -0.87488938 2.3313327 0 0 Z " fill="#C6F8BE" transform="translate(538,159)"/>
<path d="M0 0 C0.66 0 1.32 0 2 0 C1.86722656 0.969375 1.73445313 1.93875 1.59765625 2.9375 C-0.76657258 20.6535739 -1.14534442 38.14723345 -1 56 C-1.33 56 -1.66 56 -2 56 C-3.18660913 51.29815049 -3.17874556 46.7111752 -3.203125 41.89453125 C-3.20882507 41.01528488 -3.21452515 40.13603851 -3.22039795 39.23014832 C-3.2298242 37.37178745 -3.23637247 35.51341005 -3.24023438 33.6550293 C-3.24990766 30.83937678 -3.28094019 28.02446484 -3.3125 25.20898438 C-3.36362157 16.293917 -3.37191106 8.4031573 0 0 Z " fill="#C8FDC5" transform="translate(471,256)"/>
<path d="M0 0 C0 1.65 0 3.3 0 5 C-0.78375 5.2475 -1.5675 5.495 -2.375 5.75 C-5.4904717 7.23355795 -5.52738881 8.03279834 -7 11 C-8.5859375 12.5625 -8.5859375 12.5625 -10.375 14 C-12.41893295 15.66963247 -14.21336013 17.23336265 -16 19.1875 C-18.7976634 21.72288246 -21.43581185 22.7459338 -25 24 C-25.66 23.67 -26.32 23.34 -27 23 C-26.46632813 22.59910156 -25.93265625 22.19820313 -25.3828125 21.78515625 C-17.14486839 15.49980443 -9.46842048 8.67664337 -2.27734375 1.21484375 C-1 0 -1 0 0 0 Z " fill="#DEFDDA" transform="translate(694,387)"/>
<path d="M0 0 C4 0 4 0 6.75 2.375 C9 5 9 5 9 7 C9.76054688 7.19722656 10.52109375 7.39445313 11.3046875 7.59765625 C15.00529925 9.523047 15.5685656 11.62295994 17.125 15.4375 C18.72807279 19.3152031 19.91919104 22.15753443 23 25 C23.6875 27.6875 23.6875 27.6875 24 30 C23.67 29.34 23.34 28.68 23 28 C22.34 28 21.68 28 21 28 C21 27.34 21 26.68 21 26 C20.34 26 19.68 26 19 26 C17.38408141 23.64345205 16.14832612 21.46674361 15.28125 18.73828125 C13.5102562 14.95332193 10.88592214 12.35621203 8 9.375 C6.91487379 8.23868859 5.83147358 7.10072583 4.75 5.9609375 C4.27046875 5.46384277 3.7909375 4.96674805 3.296875 4.45458984 C2 3 2 3 0 0 Z " fill="#D3FDD0" transform="translate(685,178)"/>
<path d="M0 0 C6.84941521 5.38168338 12.0298139 11.21232726 16 19 C16 19.66 16 20.32 16 21 C15.01 20.67 14.02 20.34 13 20 C13 18.68 13 17.36 13 16 C11.68 15.67 10.36 15.34 9 15 C9 14.01 9 13.02 9 12 C8.13375 12.2165625 8.13375 12.2165625 7.25 12.4375 C5.16666667 12.95833333 3.08333333 13.47916667 1 14 C1 12.35 1 10.7 1 9 C1.99 8.67 2.98 8.34 4 8 C4 7.01 4 6.02 4 5 C2.68 5 1.36 5 0 5 C0 3.35 0 1.7 0 0 Z " fill="#F4FEEE" transform="translate(642,224)"/>
<path d="M0 0 C0.33 0 0.66 0 1 0 C1.28353207 5.29259864 0.89892608 8.69913133 -1.2109375 13.6484375 C-2.5687136 17.69487915 -2.89923135 21.91712855 -3.375 26.14453125 C-4.02932315 29.13397016 -4.62220661 30.1585024 -7 32 C-8.36864756 27.59500967 -7.25962436 24.03438869 -6.125 19.6875 C-4.79481951 14.46310144 -3.66482477 9.35396117 -3 4 C-2.34 4 -1.68 4 -1 4 C-0.67 2.68 -0.34 1.36 0 0 Z " fill="#32C628" transform="translate(480,231)"/>
<path d="M0 0 C2.50148082 0.08803755 4.99986366 0.19502905 7.5 0.3125 C8.54414062 0.34633789 8.54414062 0.34633789 9.609375 0.38085938 C13.32559637 0.57011139 16.32511767 1.015676 19.75 2.5 C25.15733301 4.71420964 30.72934691 4.56670284 36.5 4.6875 C37.60859375 4.72166016 38.7171875 4.75582031 39.859375 4.79101562 C42.57281543 4.87288667 45.28595747 4.94223404 48 5 C48 5.33 48 5.66 48 6 C13.46846065 6.70487283 13.46846065 6.70487283 0 1 C0 0.67 0 0.34 0 0 Z " fill="#3BC734" transform="translate(560,426)"/>
<path d="M0 0 C6.05745816 -0.63762717 10.57486695 1.65912626 16 4 C17.87288089 4.75527622 19.74780759 5.50550443 21.625 6.25 C23.08333333 6.83333333 24.54166667 7.41666667 26 8 C26 8.99 26 9.98 26 11 C26.99 11 27.98 11 29 11 C29.33 11.99 29.66 12.98 30 14 C23.71860495 12.49792727 16.06616245 10.23695665 11.52734375 5.4453125 C9.47271575 3.50103537 7.52361958 3.05189625 4.8125 2.3125 C3.91144531 2.06113281 3.01039063 1.80976563 2.08203125 1.55078125 C1.39496094 1.36902344 0.70789063 1.18726563 0 1 C0 0.67 0 0.34 0 0 Z " fill="#E0FEDF" transform="translate(634,148)"/>
<path d="M0 0 C0.33 0 0.66 0 1 0 C1.22155127 2.93705131 1.42774197 5.87380363 1.625 8.8125 C1.68945312 9.64587891 1.75390625 10.47925781 1.8203125 11.33789062 C1.871875 12.14033203 1.9234375 12.94277344 1.9765625 13.76953125 C2.02893066 14.50792236 2.08129883 15.24631348 2.13525391 16.00708008 C2 18 2 18 0 21 C-3.05712568 21.19506644 -5.89796207 21.20588431 -8.9453125 21.07421875 C-9.8303244 21.04777786 -10.7153363 21.02133698 -11.62716675 20.99409485 C-14.46045082 20.90615715 -17.2924779 20.79707022 -20.125 20.6875 C-22.04292337 20.62425932 -23.96089257 20.56239267 -25.87890625 20.50195312 C-30.58661795 20.35058836 -35.2933093 20.18024952 -40 20 C-40 19.67 -40 19.34 -40 19 C-27.13 18.67 -14.26 18.34 -1 18 C-0.67 12.06 -0.34 6.12 0 0 Z " fill="#EBFEE9" transform="translate(728,280)"/>
<path d="M0 0 C1.69771392 3.39542784 2.67926752 6.39199409 3.59887695 10.04296875 C5.71774116 18.43757301 8.51650707 25.77028168 12.64453125 33.375 C14 36 14 36 14 38 C13.01 38 12.02 38 11 38 C3 19.31225296 3 19.31225296 3 14 C2.34 14 1.68 14 1 14 C0.67 9.38 0.34 4.76 0 0 Z " fill="#CFFAC6" transform="translate(474,330)"/>
<path d="M0 0 C1.17219543 0.78345715 2.33763668 1.57702836 3.5 2.375 C4.47453125 3.03628906 4.47453125 3.03628906 5.46875 3.7109375 C5.9740625 4.13632812 6.479375 4.56171875 7 5 C7 5.66 7 6.32 7 7 C7.71542969 7.26039063 8.43085937 7.52078125 9.16796875 7.7890625 C12.13623994 9.05825432 14.62369157 10.59283754 17.3125 12.375 C21.76169588 15.26275722 26.20568978 17.73853292 31 20 C31 20.33 31 20.66 31 21 C29.02 21 27.04 21 25 21 C25 20.34 25 19.68 25 19 C24.4225 18.855625 23.845 18.71125 23.25 18.5625 C21.16666667 18.04166667 19.08333333 17.52083333 17 17 C17 16.34 17 15.68 17 15 C15.02 14.34 13.04 13.68 11 13 C11 12.01 11 11.02 11 10 C10.195625 9.731875 9.39125 9.46375 8.5625 9.1875 C7.716875 8.795625 6.87125 8.40375 6 8 C5.67 7.01 5.34 6.02 5 5 C2.98491642 4.26676204 2.98491642 4.26676204 1 4 C0.67 2.68 0.34 1.36 0 0 Z " fill="#D1FBD0" transform="translate(513,400)"/>
<path d="M0 0 C1.74627478 2.61941217 2.38722388 4.03824877 3 7 C0.69 7 -1.62 7 -4 7 C-5.4606285 9.64738916 -6 10.89448334 -6 14 C-6.33 13.67 -6.66 13.34 -7 13 C-9.67058851 12.85884839 -12.32432238 12.95752893 -15 13 C-15 13.66 -15 14.32 -15 15 C-16.98 15.33 -18.96 15.66 -21 16 C-18.18024053 13.69292407 -15.31675815 11.46104523 -12.375 9.3125 C-11.80523438 8.89613281 -11.23546875 8.47976563 -10.6484375 8.05078125 C-9 7 -9 7 -6 6 C-5.34 5.01 -4.68 4.02 -4 3 C-3.34 3 -2.68 3 -2 3 C-2 2.34 -2 1.68 -2 1 C-1.34 0.67 -0.68 0.34 0 0 Z " fill="#30C726" transform="translate(645,361)"/>
<path d="M0 0 C2.625 0.375 2.625 0.375 5 1 C-3.75721504 9.75721504 -23.09767106 12.57108725 -35 13 C-32.31013816 10.31013816 -29.40662851 9.99565223 -25.8125 9.1875 C-20.00111495 7.80800969 -14.29641891 6.25153657 -8.625 4.375 C-7.40039062 3.97023438 -6.17578125 3.56546875 -4.9140625 3.1484375 C-1.93055874 2.19629016 -1.93055874 2.19629016 0 0 Z " fill="#3EC138" transform="translate(647,418)"/>
<path d="M0 0 C1.60517097 0.08733576 3.20921662 0.19552224 4.8125 0.3125 C6.15248047 0.39951172 6.15248047 0.39951172 7.51953125 0.48828125 C10.37746878 1.07787151 11.03944292 1.95230705 13 4 C16.62535976 4.2503577 16.62535976 4.2503577 20 4 C22 9.75 22 9.75 22 12 C22.66 12 23.32 12 24 12 C23.67 12.66 23.34 13.32 23 14 C20.66103978 12.55008333 18.32900732 11.09074592 16 9.625 C15.33226562 9.2125 14.66453125 8.8 13.9765625 8.375 C12.28272806 7.30339045 10.63691136 6.15669501 9 5 C9 4.34 9 3.68 9 3 C4.545 2.01 4.545 2.01 0 1 C0 0.67 0 0.34 0 0 Z " fill="#25C71A" transform="translate(620,211)"/>
<path d="M0 0 C2.50094092 0.76788599 5.0009124 1.53861917 7.5 2.3125 C8.23959961 2.54106689 8.97919922 2.76963379 9.74121094 3.00512695 C13.30221768 4.11627111 16.80140892 5.25795583 20.25 6.6875 C25.39812681 8.48934438 30.61254007 9.23677651 36 10 C36 10.33 36 10.66 36 11 C28.77266029 11.40213946 22.88311241 11.56421793 16.40625 8.14453125 C12.33594616 6.20849387 7.96636848 5.19810631 3.625 4.02734375 C2.75875 3.68832031 1.8925 3.34929687 1 3 C0.67 2.01 0.34 1.02 0 0 Z " fill="#CBFCC3" transform="translate(544,421)"/>
<path d="M0 0 C0.53625 0.226875 1.0725 0.45375 1.625 0.6875 C-1.375 2.6875 -1.375 2.6875 -4.5 3.6875 C-7.50011062 4.3561673 -7.50011062 4.3561673 -8.375 6.6875 C-16.26322406 9.4242308 -24.09474022 9.86000541 -32.375 9.6875 C-32.375 9.3575 -32.375 9.0275 -32.375 8.6875 C-31.41013672 8.54054688 -31.41013672 8.54054688 -30.42578125 8.390625 C-21.76201767 6.95696369 -13.0038216 5.04378796 -5.13671875 1.0390625 C-2.375 -0.3125 -2.375 -0.3125 0 0 Z " fill="#CAF8C6" transform="translate(648.375,421.3125)"/>
<path d="M0 0 C0.33 0 0.66 0 1 0 C1 6.93 1 13.86 1 21 C-12.86 21 -26.72 21 -41 21 C-41 20.67 -41 20.34 -41 20 C-39.82381104 19.97494385 -38.64762207 19.9498877 -37.43579102 19.92407227 C-33.08785378 19.83017194 -28.74008284 19.72990952 -24.39233398 19.62768555 C-22.50760782 19.58427067 -20.62284064 19.54260057 -18.73803711 19.50268555 C-16.03486751 19.44514107 -13.33190564 19.38140196 -10.62890625 19.31640625 C-9.78099014 19.29969376 -8.93307404 19.28298126 -8.0594635 19.26576233 C-4.21707924 19.53590805 -4.21707924 19.53590805 -1 18 C-0.84417697 16.65984779 -0.74955858 15.31241097 -0.68359375 13.96484375 C-0.62075195 12.75151367 -0.62075195 12.75151367 -0.55664062 11.51367188 C-0.51732422 10.66353516 -0.47800781 9.81339844 -0.4375 8.9375 C-0.37272461 7.65649414 -0.37272461 7.65649414 -0.30664062 6.34960938 C-0.20023298 4.23327963 -0.09958269 2.11666187 0 0 Z " fill="#5BC753" transform="translate(726,277)"/>
<path d="M0 0 C2.97 0 5.94 0 9 0 C9 0.33 9 0.66 9 1 C6.36 1 3.72 1 1 1 C1.30871122 2.79232337 1.62209064 4.58384321 1.9375 6.375 C2.11152344 7.37273437 2.28554688 8.37046875 2.46484375 9.3984375 C2.87712062 11.96909656 2.87712062 11.96909656 4 14 C4.20617226 15.9128204 4.36632093 17.83075046 4.5 19.75 C4.8130742 23.88456723 5.20746716 27.92411682 6 32 C0.0083284 26.0083284 -0.04386148 13.53978539 -0.0625 5.5625 C-0.04657422 3.70828469 -0.02740022 1.85408125 0 0 Z " fill="#D2FDCD" transform="translate(532,298)"/>
<path d="M0 0 C5.91813291 2.73144596 10.47149487 6.36104352 15 11 C17.30220199 13.03730427 19.64452676 15.02466077 22 17 C21.01 17.33 20.02 17.66 19 18 C18.01 17.34 17.02 16.68 16 16 C16 15.01 16 14.02 16 13 C15.071875 12.71125 14.14375 12.4225 13.1875 12.125 C10 11 10 11 7 9 C7 8.01 7 7.02 7 6 C6.030625 5.7525 5.06125 5.505 4.0625 5.25 C3.051875 4.8375 2.04125 4.425 1 4 C0.125 1.875 0.125 1.875 0 0 Z " fill="#2FC82B" transform="translate(666,164)"/>
<path d="M0 0 C0 3 0 3 -1 6 C-1.66 6 -2.32 6 -3 6 C-2.938125 6.886875 -2.87625 7.77375 -2.8125 8.6875 C-2.77589792 14.5926351 -4.56365929 20.31448468 -6 26 C-6.33 26 -6.66 26 -7 26 C-7.21898357 19.92928872 -7.03166487 13.97310794 -6.3125 7.9375 C-6.12107422 6.31134766 -6.12107422 6.31134766 -5.92578125 4.65234375 C-5 2 -5 2 -2.41796875 0.62890625 C-1.62003906 0.42136719 -0.82210938 0.21382812 0 0 Z " fill="#C2F9BF" transform="translate(480,229)"/>
<path d="M0 0 C1.32 0.33 2.64 0.66 4 1 C1.90185329 3.15202209 -0.20302055 5.29663616 -2.3125 7.4375 C-3.20485352 8.35499023 -3.20485352 8.35499023 -4.11523438 9.29101562 C-4.69208984 9.87431641 -5.26894531 10.45761719 -5.86328125 11.05859375 C-6.65665894 11.86768188 -6.65665894 11.86768188 -7.46606445 12.69311523 C-9 14 -9 14 -12 15 C-11.67 13.68 -11.34 12.36 -11 11 C-10.34 11 -9.68 11 -9 11 C-8.79375 10.071875 -8.5875 9.14375 -8.375 8.1875 C-6.63911662 4.1634067 -4.92996334 3.67232483 -1 2 C-0.67 1.34 -0.34 0.68 0 0 Z " fill="#38BC2F" transform="translate(688,388)"/>
<path d="M0 0 C0.66 0.33 1.32 0.66 2 1 C0.625 2.5 0.625 2.5 -1 4 C-1.66 4 -2.32 4 -3 4 C-3 4.66 -3 5.32 -3 6 C-5.64868371 9.0410813 -8.43657669 11.12451405 -12 13 C-12.66 13 -13.32 13 -14 13 C-13.4375 9.6875 -13.4375 9.6875 -12 6 C-8.6875 4.25 -8.6875 4.25 -5 3 C-4.071875 2.4225 -3.14375 1.845 -2.1875 1.25 C-1.1046875 0.63125 -1.1046875 0.63125 0 0 Z " fill="#D1F9CC" transform="translate(646,358)"/>
<path d="M0 0 C6.22144658 0.77768082 11.78150204 2.52100136 17 6 C17.99 6 18.98 6 20 6 C20 6.66 20 7.32 20 8 C22.31 8.33 24.62 8.66 27 9 C26.67 9.66 26.34 10.32 26 11 C19.69941506 10.54995822 15.48876361 9.01188473 10 6 C8.1698239 5.07704586 6.33642664 4.16045377 4.5 3.25 C3 2.5 1.5 1.75 0 1 C0 0.67 0 0.34 0 0 Z " fill="#40C539" transform="translate(534,415)"/>
<path d="M0 0 C0.66 0.33 1.32 0.66 2 1 C1.67 2.32 1.34 3.64 1 5 C-0.32 5 -1.64 5 -3 5 C-3 5.66 -3 6.32 -3 7 C-3.99 7.33 -4.98 7.66 -6 8 C-6.433125 8.928125 -6.433125 8.928125 -6.875 9.875 C-8.38528566 12.72776181 -10.13555155 13.60270807 -13 15 C-13.99 15 -14.98 15 -16 15 C-14.48136687 10.84274179 -11.48262435 8.839121 -8 6.375 C-3.82493515 3.40148021 -3.82493515 3.40148021 0 0 Z " fill="#3CCB34" transform="translate(528,169)"/>
<path d="M0 0 C0.33 0 0.66 0 1 0 C0.15225213 18.91354736 0.15225213 18.91354736 -6 25 C-6.33 25.99 -6.66 26.98 -7 28 C-7.66 27.67 -8.32 27.34 -9 27 C-8.51789062 25.80503906 -8.03578125 24.61007812 -7.5390625 23.37890625 C-6.90068661 21.77357865 -6.26268584 20.16810184 -5.625 18.5625 C-5.30789063 17.77939453 -4.99078125 16.99628906 -4.6640625 16.18945312 C-2.55191723 10.84308541 -1.11789107 5.64026859 0 0 Z " fill="#C8FBC5" transform="translate(723,329)"/>
<path d="M0 0 C0.99 0.33 1.98 0.66 3 1 C3.38063221 3.3260857 3.71269945 5.66055264 4 8 C3.67 8.33 3.34 8.66 3 9 C3.66 9.33 4.32 9.66 5 10 C5.625 12.5625 5.625 12.5625 6 15 C4 15 4 15 2.37890625 13.42578125 C-0.76103948 9.77264008 -3.72665989 6.27922844 -6 2 C-4.35 1.67 -2.7 1.34 -1 1 C-0.67 2.98 -0.34 4.96 0 7 C0.66 7 1.32 7 2 7 C1.34 4.69 0.68 2.38 0 0 Z " fill="#27CD20" transform="translate(508,385)"/>
<path d="M0 0 C-2.43707838 0.9802271 -4.87463945 1.95922171 -7.3125 2.9375 C-8.34793945 3.35418945 -8.34793945 3.35418945 -9.40429688 3.77929688 C-17.75929038 7.12936673 -17.75929038 7.12936673 -22.23046875 7.09765625 C-23.03291016 7.09443359 -23.83535156 7.09121094 -24.66210938 7.08789062 C-25.49548828 7.07951172 -26.32886719 7.07113281 -27.1875 7.0625 C-28.4549707 7.05573242 -28.4549707 7.05573242 -29.74804688 7.04882812 C-31.83206155 7.03705403 -33.91603977 7.0191189 -36 7 C-36 6.67 -36 6.34 -36 6 C-26.1 5.505 -26.1 5.505 -16 5 C-16 4.34 -16 3.68 -16 3 C-12.25 1.875 -12.25 1.875 -10 3 C-10 2.34 -10 1.68 -10 1 C-6.16112237 -0.48320272 -3.93795909 -1.22419163 0 0 Z " fill="#BFF7B7" transform="translate(628,375)"/>
<path d="M0 0 C0.97582031 0.00064453 1.95164062 0.00128906 2.95703125 0.00195312 C7.42003504 0.02935219 11.50516183 0.20812089 15.875 1.1875 C15.875 1.5175 15.875 1.8475 15.875 2.1875 C8.945 1.8575 2.015 1.5275 -5.125 1.1875 C-5.125 1.8475 -5.125 2.5075 -5.125 3.1875 C-13.045 3.6825 -13.045 3.6825 -21.125 4.1875 C-14.44400409 -0.26649727 -7.78260074 -0.09844834 0 0 Z " fill="#B7F7AF" transform="translate(597.125,208.8125)"/>
<path d="M0 0 C0.66 0.33 1.32 0.66 2 1 C0.21132827 5.65054651 -1.23960265 8.61564239 -5 12 C-5.33 12.66 -5.66 13.32 -6 14 C-6.66 14 -7.32 14 -8 14 C-8.66 15.32 -9.32 16.64 -10 18 C-11.125 14.25 -11.125 14.25 -10 12 C-9.34 12 -8.68 12 -8 12 C-8 11.01 -8 10.02 -8 9 C-7.01 9 -6.02 9 -5 9 C-3.88941214 6.92690266 -3.02601506 5.11381589 -2.5 2.8125 C-2.335 2.214375 -2.17 1.61625 -2 1 C-1.34 0.67 -0.68 0.34 0 0 Z " fill="#D4FBD4" transform="translate(660,338)"/>
<path d="M0 0 C3.64144889 0.47913801 6.92107213 1.30396079 10.375 2.5 C17.40383743 4.70998723 24.69018597 4.7369918 32 5 C32 5.33 32 5.66 32 6 C8.52329749 6.46953405 8.52329749 6.46953405 2 4 C0.6875 1.921875 0.6875 1.921875 0 0 Z " fill="#3CC135" transform="translate(576,377)"/>
<path d="M0 0 C3 1 3 1 4.5625 3.75 C8 11.52173913 8 11.52173913 8 15 C8.66 15 9.32 15 10 15 C10.69965443 16.26418246 11.38434763 17.53665402 12.0625 18.8125 C12.44535156 19.52019531 12.82820313 20.22789062 13.22265625 20.95703125 C14 23 14 23 13 26 C11.38636955 23.17195988 9.78590517 20.33666898 8.1875 17.5 C7.73568359 16.70851563 7.28386719 15.91703125 6.81835938 15.1015625 C4.05149791 10.17372165 1.84453081 5.34362414 0 0 Z " fill="#37BE2C" transform="translate(481,352)"/>
<path d="M0 0 C5.46829686 4.26793901 11.75582558 9.26747674 14 16 C12.35 15.67 10.7 15.34 9 15 C9 14.01 9 13.02 9 12 C8.360625 11.7525 7.72125 11.505 7.0625 11.25 C5 10 5 10 4.25 7.875 C4.12625 6.946875 4.12625 6.946875 4 6 C2.68 5.67 1.36 5.34 0 5 C0 3.35 0 1.7 0 0 Z " fill="#D6FBD5" transform="translate(498,384)"/>
<path d="M0 0 C-0.11398665 1.62580966 -0.24155659 3.25067157 -0.375 4.875 C-0.44460938 5.77992188 -0.51421875 6.68484375 -0.5859375 7.6171875 C-1 10 -1 10 -3 12 C-3 9.03 -3 6.06 -3 3 C-8.28 2.67 -13.56 2.34 -19 2 C-19 1.67 -19 1.34 -19 1 C-12.65758005 -0.15316726 -6.43311296 -0.09507063 0 0 Z " fill="#32BF2C" transform="translate(723,328)"/>
<path d="M0 0 C1.32 0 2.64 0 4 0 C3.34 1.32 2.68 2.64 2 4 C1.34 4 0.68 4 0 4 C0 4.66 0 5.32 0 6 C-0.66 6 -1.32 6 -2 6 C-2.226875 6.721875 -2.45375 7.44375 -2.6875 8.1875 C-4.76903697 12.64793636 -7.95315756 15.30210504 -12 18 C-12 16.68 -12 15.36 -12 14 C-11.01 14 -10.02 14 -9 14 C-8.67 12.68 -8.34 11.36 -8 10 C-6.68 9.67 -5.36 9.34 -4 9 C-3.67 7.35 -3.34 5.7 -3 4 C-2.34 4 -1.68 4 -1 4 C-0.67 2.68 -0.34 1.36 0 0 Z " fill="#CAFBC5" transform="translate(508,182)"/>
<path d="M0 0 C-4.49984564 2.41858656 -9.19402018 3.46347319 -14.125 4.6875 C-15.04410156 4.92533203 -15.96320312 5.16316406 -16.91015625 5.40820312 C-17.78800781 5.62798828 -18.66585937 5.84777344 -19.5703125 6.07421875 C-20.77324951 6.37718872 -20.77324951 6.37718872 -22.00048828 6.6862793 C-24 7 -24 7 -26 6 C-19.11796915 0.05112587 -8.73439744 -0.4441219 0 0 Z " fill="#CCFDC9" transform="translate(584,145)"/>
<path d="M0 0 C6.15234375 0.5859375 6.15234375 0.5859375 8 1 C8.33 1.66 8.66 2.32 9 3 C9.99 3.33 10.98 3.66 12 4 C13.02611949 5.65071396 14.02308143 7.31970006 15 9 C16.29579647 10.36984198 17.61992749 11.7151049 19 13 C18.01 13.495 18.01 13.495 17 14 C16.38125 13.319375 15.7625 12.63875 15.125 11.9375 C11.85141866 8.6356168 8.04650252 6.14688551 4.20703125 3.55078125 C2 2 2 2 0 0 Z " fill="#D8FDD4" transform="translate(664,162)"/>
<path d="M0 0 C1.125 3.75 1.125 3.75 0 6 C-0.66 6 -1.32 6 -2 6 C-2.25523437 6.72574219 -2.51046875 7.45148438 -2.7734375 8.19921875 C-4.06801074 11.1552984 -5.60455104 13.30564666 -7.625 15.8125 C-8.25664063 16.60269531 -8.88828125 17.39289063 -9.5390625 18.20703125 C-10.02117188 18.79871094 -10.50328125 19.39039063 -11 20 C-11.33 18.68 -11.66 17.36 -12 16 C-11.34 16 -10.68 16 -10 16 C-9.9175 15.38125 -9.835 14.7625 -9.75 14.125 C-9.5025 13.42375 -9.255 12.7225 -9 12 C-8.0409375 11.5978125 -8.0409375 11.5978125 -7.0625 11.1875 C-4.57546681 10.05610979 -4.57546681 10.05610979 -3.75 6.375 C-3.37875 4.704375 -3.37875 4.704375 -3 3 C-2.01 3 -1.02 3 0 3 C0 2.01 0 1.02 0 0 Z " fill="#33BE29" transform="translate(704,368)"/>
<path d="M0 0 C12.54 0 25.08 0 38 0 C38 0.33 38 0.66 38 1 C37.04633545 1.02505615 36.0926709 1.0501123 35.11010742 1.07592773 C31.57090893 1.17012071 28.03190125 1.27031231 24.49291992 1.37231445 C22.96138982 1.41561833 21.42981285 1.45729667 19.89819336 1.49731445 C17.69630818 1.55512732 15.49465789 1.61878969 13.29296875 1.68359375 C12.60849167 1.70030624 11.92401459 1.71701874 11.21879578 1.73423767 C8.22879896 1.8273555 5.85937689 2.04687437 3 3 C2.01 2.01 1.02 1.02 0 0 Z " fill="#E8E8E8" transform="translate(699,649)"/>
<path d="M0 0 C0.66 0 1.32 0 2 0 C2 0.66 2 1.32 2 2 C1.34 2 0.68 2 0 2 C-0.103125 2.639375 -0.20625 3.27875 -0.3125 3.9375 C-1.23903073 8.06477326 -2.61660629 12.00642949 -4 16 C-4.66 16 -5.32 16 -6 16 C-6.33 16.66 -6.66 17.32 -7 18 C-7.33833293 13.1409633 -6.49919492 10.37861527 -4.0625 6.1875 C-3.51722656 5.23230469 -2.97195313 4.27710938 -2.41015625 3.29296875 C-1 1 -1 1 0 0 Z " fill="#C2F5B9" transform="translate(544,234)"/>
<path d="M0 0 C0.061875 0.928125 0.061875 0.928125 0.125 1.875 C0.41375 2.57625 0.7025 3.2775 1 4 C3.99615946 5.3045656 3.99615946 5.3045656 7 6 C6.67 6.66 6.34 7.32 6 8 C5.4225 7.79375 4.845 7.5875 4.25 7.375 C1.48032433 6.91338739 0.35438733 7.57055055 -2 9 C-1.67 6.69 -1.34 4.38 -1 2 C-4.34252724 1.92572162 -6.8035914 1.93453047 -10 3 C-10 2.01 -10 1.02 -10 0 C-6.7169902 -1.6415049 -3.57454967 -0.51888624 0 0 Z " fill="#1FC913" transform="translate(666,164)"/>
<path d="M0 0 C2 2 2 2 2 6 C2.66 6 3.32 6 4 6 C5.22899346 12.06815522 6.27560214 17.79895188 6 24 C3.82585124 20.23931026 2.89756093 16.18113804 1.875 12 C1.69324219 11.2884375 1.51148438 10.576875 1.32421875 9.84375 C0.47681609 6.42865356 0 3.54154278 0 0 Z " fill="#65D960" transform="translate(719,232)"/>
<path d="M0 0 C0.66 0 1.32 0 2 0 C1.67 3.3 1.34 6.6 1 10 C0.34 10 -0.32 10 -1 10 C-1.33 15.94 -1.66 21.88 -2 28 C-2.33 28 -2.66 28 -3 28 C-3.57446809 8.46808511 -3.57446809 8.46808511 0 0 Z " fill="#DDFDD8" transform="translate(471,256)"/>
<path d="M0 0 C0.99 0.33 1.98 0.66 3 1 C3 1.99 3 2.98 3 4 C3.99 4.33 4.98 4.66 6 5 C6.94921875 7.51171875 6.94921875 7.51171875 7.6875 10.6875 C7.93886719 11.72261719 8.19023438 12.75773438 8.44921875 13.82421875 C8.99200113 16.95387884 9.09977125 19.83107515 9 23 C6.33161342 18.99742013 5.40403457 14.82797602 4.09765625 10.2265625 C3.05057467 7.14866433 1.70433671 4.74830364 0 2 C0 1.34 0 0.68 0 0 Z " fill="#37BE2C" transform="translate(654,236)"/>
<path d="M0 0 C-0.886875 0.4125 -1.77375 0.825 -2.6875 1.25 C-7.52386716 3.80506189 -11.21976346 7.07975469 -15 11 C-15.33 10.01 -15.66 9.02 -16 8 C-14.25 5.3125 -14.25 5.3125 -12 3 C-11.01 3 -10.02 3 -9 3 C-9 2.34 -9 1.68 -9 1 C-5.57367167 -0.61798838 -3.61944899 -1.34053666 0 0 Z " fill="#3AC535" transform="translate(566,217)"/>
<path d="M0 0 C0.66 0.99 1.32 1.98 2 3 C2.66 3 3.32 3 4 3 C3 6 3 6 1.25 7.125 C-1.15292138 8.05946943 -3.46046361 8.57674394 -6 9 C-4.47291037 5.56404834 -2.40072955 2.88087546 0 0 Z " fill="#D6F8D7" transform="translate(700,378)"/>
<path d="M0 0 C5.94 0 11.88 0 18 0 C18 0.33 18 0.66 18 1 C13.71 1 9.42 1 5 1 C5 1.66 5 2.32 5 3 C4.071875 3.1546875 4.071875 3.1546875 3.125 3.3125 C0.63473516 3.87525373 0.63473516 3.87525373 -1 7 C-1.33 6.01 -1.66 5.02 -2 4 C-1.34 2.68 -0.68 1.36 0 0 Z " fill="#34C028" transform="translate(667,329)"/>
<path d="M0 0 C-2.2235486 0.99793249 -4.44921571 1.99026977 -6.6796875 2.97265625 C-8.39902367 3.73391115 -10.10858028 4.51733746 -11.8125 5.3125 C-14.30672032 6.09639781 -15.57617669 5.89771234 -18 5 C-16.35 4.34 -14.7 3.68 -13 3 C-13 2.34 -13 1.68 -13 1 C-11.58622218 0.63447197 -10.16879424 0.28304505 -8.75 -0.0625 C-7.96109375 -0.25972656 -7.1721875 -0.45695313 -6.359375 -0.66015625 C-3.89605178 -1.01497267 -2.34395868 -0.76877544 0 0 Z " fill="#7EE478" transform="translate(567,151)"/>
<path d="M0 0 C1.32 0 2.64 0 4 0 C4 0.66 4 1.32 4 2 C6.97 2 9.94 2 13 2 C13 2.99 13 3.98 13 5 C13.99 5 14.98 5 16 5 C16.33 5.99 16.66 6.98 17 8 C10.85326729 6.53012914 5.57765673 3.94033413 0 1 C0 0.67 0 0.34 0 0 Z " fill="#B8F3B5" transform="translate(647,154)"/>
<path d="M0 0 C0.97582031 0.00902344 1.95164062 0.01804688 2.95703125 0.02734375 C4.06111328 0.04474609 4.06111328 0.04474609 5.1875 0.0625 C5.1875 0.3925 5.1875 0.7225 5.1875 1.0625 C0.83159432 2.69099969 -3.05184612 3.40368446 -7.6875 3.6875 C-8.83992187 3.76226562 -9.99234375 3.83703125 -11.1796875 3.9140625 C-12.04851563 3.96304688 -12.91734375 4.01203125 -13.8125 4.0625 C-12.8225 3.7325 -11.8325 3.4025 -10.8125 3.0625 C-10.8125 2.4025 -10.8125 1.7425 -10.8125 1.0625 C-7.13862505 0.20951624 -3.7677607 -0.04539471 0 0 Z " fill="#44D03B" transform="translate(577.8125,147.9375)"/>
<path d="M0 0 C1.32 0.33 2.64 0.66 4 1 C3.67 3.97 3.34 6.94 3 10 C3.66 10 4.32 10 5 10 C4.67 10.99 4.34 11.98 4 13 C3.34 13 2.68 13 2 13 C2 14.32 2 15.64 2 17 C1.34 17 0.68 17 0 17 C0.08378906 15.94039063 0.16757812 14.88078125 0.25390625 13.7890625 C0.35706832 12.40106375 0.45991663 11.01304165 0.5625 9.625 C0.61857422 8.92632812 0.67464844 8.22765625 0.73242188 7.5078125 C1.11499904 3.63471135 1.11499904 3.63471135 0 0 Z " fill="#F1FDEC" transform="translate(722,327)"/>
<path d="M0 0 C0.66 0 1.32 0 2 0 C1.42194191 3.9018921 -0.355027 6.13461258 -3 9 C-5.75 10.8125 -5.75 10.8125 -8 12 C-8 11.01 -8 10.02 -8 9 C-7.34 9 -6.68 9 -6 9 C-5.896875 8.360625 -5.79375 7.72125 -5.6875 7.0625 C-5.460625 6.381875 -5.23375 5.70125 -5 5 C-4.01 4.67 -3.02 4.34 -2 4 C-0.79117904 1.99983534 -0.79117904 1.99983534 0 0 Z " fill="#D4FDD3" transform="translate(520,170)"/>
<path d="M0 0 C-0.33 1.32 -0.66 2.64 -1 4 C-1.66 4 -2.32 4 -3 4 C-3 4.66 -3 5.32 -3 6 C-9.625 8 -9.625 8 -13 8 C-11.25 6 -11.25 6 -9 4 C-7.68 4 -6.36 4 -5 4 C-4.67 3.01 -4.34 2.02 -4 1 C-2 0 -2 0 0 0 Z " fill="#50D048" transform="translate(543,160)"/>
<path d="M0 0 C1.77722161 3.55444321 3.00593805 6.84570798 4.1875 10.625 C4.55230469 11.77226562 4.91710937 12.91953125 5.29296875 14.1015625 C6 17 6 17 5 19 C4.34 18.34 3.68 17.68 3 17 C3 16.01 3 15.02 3 14 C2.34 14 1.68 14 1 14 C0.67 9.38 0.34 4.76 0 0 Z " fill="#B9F6B6" transform="translate(474,330)"/>
<path d="M0 0 C2.31 0.33 4.62 0.66 7 1 C7.28875 1.928125 7.5775 2.85625 7.875 3.8125 C8.8875 7.09791667 8.8875 7.09791667 11 10 C8.50638429 8.79618552 6.31856917 7.54571278 4 6 C4 5.01 4 4.02 4 3 C2.68 2.34 1.36 1.68 0 1 C0 0.67 0 0.34 0 0 Z " fill="#C9F5C4" transform="translate(556,361)"/>
<path d="M0 0 C0.33 0.66 0.66 1.32 1 2 C1.66 2 2.32 2 3 2 C3.598125 3.093125 4.19625 4.18625 4.8125 5.3125 C6.29044697 7.91074129 7.69822933 10.04349493 10 12 C7.525 11.01 7.525 11.01 5 10 C5 9.34 5 8.68 5 8 C3.68 7.67 2.36 7.34 1 7 C0.67 4.69 0.34 2.38 0 0 Z " fill="#37C62C" transform="translate(546,350)"/>
<path d="M0 0 C-3.12752591 1.64528614 -6.3053057 2.91702499 -9.625 4.125 C-10.58664062 4.47820312 -11.54828125 4.83140625 -12.5390625 5.1953125 C-15 6 -15 6 -17 6 C-17 5.34 -17 4.68 -17 4 C-11.47022674 0.05016196 -6.65256939 -0.13044254 0 0 Z " fill="#3EC436" transform="translate(583,210)"/>
<path d="M0 0 C1.65 0 3.3 0 5 0 C5.226875 0.639375 5.45375 1.27875 5.6875 1.9375 C6.85250896 4.27193661 6.85250896 4.27193661 9.625 4.75 C10.40875 4.8325 11.1925 4.915 12 5 C12 5.99 12 6.98 12 8 C7.44328408 6.48109469 3.68276708 4.04597738 0 1 C0 0.67 0 0.34 0 0 Z " fill="#40C63B" transform="translate(522,407)"/>
<path d="M0 0 C-0.33 0.99 -0.66 1.98 -1 3 C-2.32 3 -3.64 3 -5 3 C-5 3.66 -5 4.32 -5 5 C-7.97 5 -10.94 5 -14 5 C-9.4407093 1.96047287 -5.52837581 0 0 0 Z " fill="#36C433" transform="translate(624,377)"/>
<path d="M0 0 C0.5 2.1875 0.5 2.1875 0 5 C-2.43100182 7.10353811 -5.03640346 8.75029061 -8 10 C-8.66 9.67 -9.32 9.34 -10 9 C-8.52386015 7.49702124 -7.04400843 5.99768715 -5.5625 4.5 C-4.73878906 3.6646875 -3.91507813 2.829375 -3.06640625 1.96875 C-1 0 -1 0 0 0 Z " fill="#C5F9C3" transform="translate(694,387)"/>
<path d="M0 0 C0 0.66 0 1.32 0 2 C-0.66 2 -1.32 2 -2 2 C-2 2.66 -2 3.32 -2 4 C-3.98 4.33 -5.96 4.66 -8 5 C-8 5.66 -8 6.32 -8 7 C-9.65 7.33 -11.3 7.66 -13 8 C-9.4918251 4.18228025 -5.53544278 0 0 0 Z " fill="#BBF5B9" transform="translate(568,216)"/>
<path d="M0 0 C2.50535913 2.34877419 3.90564909 4.0911787 4.265625 7.55859375 C4.25149142 10.04963675 4.17369194 12.51524028 4 15 C2.25674553 12.3851183 1.58412043 10.9946567 0.875 8.0625 C0.70742188 7.39347656 0.53984375 6.72445313 0.3671875 6.03515625 C0 4 0 4 0 0 Z " fill="#33BF2A" transform="translate(474,326)"/>
<path d="M0 0 C1.32 0 2.64 0 4 0 C7 5.625 7 5.625 7 9 C6.01 9 5.02 9 4 9 C0 2.25 0 2.25 0 0 Z " fill="#DBFDD0" transform="translate(709,208)"/>
<path d="M0 0 C1.2065625 0.0309375 1.2065625 0.0309375 2.4375 0.0625 C0.93526416 4.26876034 -1.84800034 5.80150021 -5.5625 8.0625 C-3.38616071 0.08258929 -3.38616071 0.08258929 0 0 Z " fill="#B7F2B2" transform="translate(525.5625,167.9375)"/>
<path d="M0 0 C0.33 0.66 0.66 1.32 1 2 C0.00390625 4.3828125 0.00390625 4.3828125 -1.4375 7.125 C-1.91058594 8.03507812 -2.38367188 8.94515625 -2.87109375 9.8828125 C-3.24363281 10.58148438 -3.61617187 11.28015625 -4 12 C-4.66 12 -5.32 12 -6 12 C-5.5020163 8.26512223 -5.12508244 6.18762365 -3 3 C-2.34 3 -1.68 3 -1 3 C-0.67 2.01 -0.34 1.02 0 0 Z " fill="#41C437" transform="translate(711,358)"/>
<path d="M0 0 C2.97 0.495 2.97 0.495 6 1 C6 2.65 6 4.3 6 6 C6.99 6 7.98 6 9 6 C9.33 7.65 9.66 9.3 10 11 C5.67760044 7.65996398 2.82522609 4.67248931 0 0 Z " fill="#3AC639" transform="translate(644,225)"/>
<path d="M0 0 C4 0 4 0 6.8125 2.25 C7.8953125 3.61125 7.8953125 3.61125 9 5 C8.63671875 7.171875 8.63671875 7.171875 8 9 C6.66368764 7.6905332 5.33102075 6.37734515 4 5.0625 C3.2575 4.33160156 2.515 3.60070312 1.75 2.84765625 C0 1 0 1 0 0 Z " fill="#CBFBC2" transform="translate(685,178)"/>
<path d="M0 0 C1.4370809 -0.05422947 2.87475462 -0.09289723 4.3125 -0.125 C5.11300781 -0.14820313 5.91351562 -0.17140625 6.73828125 -0.1953125 C9 0 9 0 12 2 C12 2.66 12 3.32 12 4 C7.80530429 3.40075776 3.99000166 2.42500059 0 1 C0 0.67 0 0.34 0 0 Z " fill="#D8FDD0" transform="translate(576,376)"/>
<path d="M0 0 C0 3.90617433 -1.31784596 6.50629545 -3 10 C-3.99 10.495 -3.99 10.495 -5 11 C-5.65213292 13.02463255 -5.65213292 13.02463255 -6 15 C-6.99 15 -7.98 15 -9 15 C-8.1875 12.5625 -8.1875 12.5625 -7 10 C-6.01 9.67 -5.02 9.34 -4 9 C-3.2833793 6.68152126 -2.61757973 4.34680297 -2 2 C-1.34 1.34 -0.68 0.68 0 0 Z " fill="#4EC64B" transform="translate(663,337)"/>
<path d="M0 0 C1.62276158 2.43414237 2.61744792 4.31319446 3.625 7 C3.88539063 7.680625 4.14578125 8.36125 4.4140625 9.0625 C5 11 5 11 5 14 C4.34 14 3.68 14 3 14 C2.690625 13.195625 2.38125 12.39125 2.0625 11.5625 C1.23664655 9.10919595 1.23664655 9.10919595 0 8 C-0.14115161 5.32941149 -0.04247107 2.67567762 0 0 Z " fill="#4DC146" transform="translate(534,322)"/>
<path d="M0 0 C1.4391134 0.28359887 2.87625518 0.57721399 4.3125 0.875 C5.11300781 1.03742188 5.91351562 1.19984375 6.73828125 1.3671875 C9 2 9 2 12 4 C8.37 4 4.74 4 1 4 C0.67 2.68 0.34 1.36 0 0 Z " fill="#DCFED8" transform="translate(613,211)"/>
<path d="M0 0 C1 2 1 2 0.0625 5.125 C-0.288125 6.07375 -0.63875 7.0225 -1 8 C-1.66 8 -2.32 8 -3 8 C-3.33 9.32 -3.66 10.64 -4 12 C-4.66 12 -5.32 12 -6 12 C-4.68139111 7.38486888 -2.78644563 3.90102388 0 0 Z " fill="#4BC73C" transform="translate(492,206)"/>
<path d="M0 0 C1.17487036 0.75827092 2.33972592 1.53207755 3.5 2.3125 C4.47453125 2.95638672 4.47453125 2.95638672 5.46875 3.61328125 C5.9740625 4.07089844 6.479375 4.52851563 7 5 C7 5.99 7 6.98 7 8 C7.66 8 8.32 8 9 8 C9.33 9.32 9.66 10.64 10 12 C8.68 11.67 7.36 11.34 6 11 C5.938125 10.2575 5.87625 9.515 5.8125 8.75 C4.75812 5.18132923 2.92604058 4.17577376 0 2 C0 1.34 0 0.68 0 0 Z " fill="#2AC81F" transform="translate(697,196)"/>
<path d="M0 0 C4.79149131 2.21145753 9.04108784 4.56163176 12 9 C11.484375 8.731875 10.96875 8.46375 10.4375 8.1875 C7.83375294 6.87061199 7.83375294 6.87061199 4.3125 5.625 C1 4 1 4 0.0625 1.8125 C0.041875 1.214375 0.02125 0.61625 0 0 Z " fill="#65DA5E" transform="translate(666,164)"/>
<path d="M0 0 C0.33 0 0.66 0 1 0 C1.33 3.96 1.66 7.92 2 12 C0.02 12.99 0.02 12.99 -2 14 C-1.34 9.38 -0.68 4.76 0 0 Z " fill="#D4D4D4" transform="translate(754,622)"/>
<path d="M0 0 C-0.78375 0.185625 -1.5675 0.37125 -2.375 0.5625 C-5.38980156 1.81551249 -5.38980156 1.81551249 -6.0625 5.5 C-6.371875 6.655 -6.68125 7.81 -7 9 C-9.125 10.4375 -9.125 10.4375 -11 11 C-10.67 9.68 -10.34 8.36 -10 7 C-9.34 7 -8.68 7 -8 7 C-7.62875 5.576875 -7.62875 5.576875 -7.25 4.125 C-6 1 -6 1 -4 -0.4375 C-2 -1 -2 -1 0 0 Z " fill="#2AC41E" transform="translate(687,392)"/>
<path d="M0 0 C7.57142857 4.14285714 7.57142857 4.14285714 10 7 C7 8 7 8 4.3125 6.75 C3.549375 6.1725 2.78625 5.595 2 5 C2 4.01 2 3.02 2 2 C1.34 2 0.68 2 0 2 C0 1.34 0 0.68 0 0 Z " fill="#27C21E" transform="translate(560,367)"/>
<path d="M0 0 C1.16801612 3.50404837 0.59818813 5.41087121 0 9 C0.33 9.99 0.66 10.98 1 12 C0.01 12.33 -0.98 12.66 -2 13 C-2 9.04 -2 5.08 -2 1 C-1.34 0.67 -0.68 0.34 0 0 Z " fill="#38C133" transform="translate(536,247)"/>
<path d="M0 0 C0.33 0 0.66 0 1 0 C1.34833144 4.87664009 0.41685712 7.77050005 -2 12 C-2.66 11.67 -3.32 11.34 -4 11 C-3.52269162 9.5410574 -3.04308958 8.08286504 -2.5625 6.625 C-2.29566406 5.81289062 -2.02882813 5.00078125 -1.75390625 4.1640625 C-1 2 -1 2 0 0 Z " fill="#3FC536" transform="translate(485,218)"/>
<path d="M0 0 C3.50647501 2.8689341 6.85281112 5.7317654 10 9 C9.67 9.66 9.34 10.32 9 11 C7.88625 9.7934375 7.88625 9.7934375 6.75 8.5625 C4.24695171 6.23011409 3.2819045 5.36465606 0 5 C0 3.35 0 1.7 0 0 Z " fill="#C7F7C7" transform="translate(642,224)"/>
<path d="M0 0 C-3.14573677 2.09715785 -5.01456251 2.52004559 -8.6875 3.125 C-9.68136719 3.29257812 -10.67523437 3.46015625 -11.69921875 3.6328125 C-12.45847656 3.75398438 -13.21773437 3.87515625 -14 4 C-10.36524602 -0.02142994 -5.27556445 -2.11022578 0 0 Z " fill="#E3FDDF" transform="translate(632,372)"/>
<path d="M0 0 C0.66 0 1.32 0 2 0 C2.33 0.99 2.66 1.98 3 3 C2.67 3.66 2.34 4.32 2 5 C0.68 5 -0.64 5 -2 5 C-2.33 6.32 -2.66 7.64 -3 9 C-3.66 9 -4.32 9 -5 9 C-3.7580393 5.56072421 -2.44259716 2.74792181 0 0 Z " fill="#3AC732" transform="translate(652,352)"/>
<path d="M0 0 C-1.875 3.875 -1.875 3.875 -3 5 C-4.66617115 5.04063832 -6.33388095 5.042721 -8 5 C-5.96115496 0.48541456 -5.19128917 0 0 0 Z " fill="#08D601" transform="translate(541,167)"/>
<path d="M0 0 C0.66 0.33 1.32 0.66 2 1 C-2.93654267 7.70459519 -2.93654267 7.70459519 -7.375 8.9375 C-8.24125 8.958125 -9.1075 8.97875 -10 9 C-6.85281112 5.7317654 -3.50647501 2.8689341 0 0 Z " fill="#C5F8C2" transform="translate(677,402)"/>
<path d="M0 0 C0 0.33 0 0.66 0 1 C-2.33163378 1.67258667 -4.6652039 2.33847444 -7 3 C-7.7425 3.268125 -8.485 3.53625 -9.25 3.8125 C-9.8275 3.874375 -10.405 3.93625 -11 4 C-12.75 2.5625 -12.75 2.5625 -14 1 C-9.23692563 0.04738513 -4.8333472 -0.08333357 0 0 Z " fill="#EEFDE9" transform="translate(588,212)"/>
<path d="M0 0 C6.89608177 4.19761499 6.89608177 4.19761499 8 8 C7.67 8.99 7.34 9.98 7 11 C7 10.34 7 9.68 7 9 C6.34 9 5.68 9 5 9 C5 8.34 5 7.68 5 7 C4.34 7 3.68 7 3 7 C0 2.61538462 0 2.61538462 0 0 Z " fill="#9CED94" transform="translate(701,197)"/>
<path d="M0 0 C2.1519437 3.22791555 2.20086443 4.28400809 2 8 C-2.875 3.25 -2.875 3.25 -4 1 C-2.68 0.67 -1.36 0.34 0 0 Z " fill="#2DC526" transform="translate(506,386)"/>
<path d="M0 0 C1.32 0 2.64 0 4 0 C6.0625 2.3125 6.0625 2.3125 8 5 C8.98230498 6.0173873 9.97469597 7.02596117 11 8 C10.01 8.495 10.01 8.495 9 9 C6 6 3 3 0 0 Z " fill="#B4F7B0" transform="translate(672,167)"/>
<path d="M0 0 C3.96 0 7.92 0 12 0 C12 0.33 12 0.66 12 1 C7.73383684 2.13764351 4.43513689 3 0 3 C0 2.01 0 1.02 0 0 Z " fill="#1DC811" transform="translate(608,428)"/>
<path d="M0 0 C0.99 0 1.98 0 3 0 C3 0.66 3 1.32 3 2 C5.31 2.33 7.62 2.66 10 3 C9.67 3.66 9.34 4.32 9 5 C6.36 4.67 3.72 4.34 1 4 C0.67 2.68 0.34 1.36 0 0 Z " fill="#2EC729" transform="translate(551,421)"/>
<path d="M0 0 C3.08089673 2.77280706 4.68775452 5.06326356 6 9 C5.34 9 4.68 9 4 9 C3.67 8.34 3.34 7.68 3 7 C2.01 6.67 1.02 6.34 0 6 C0 4.02 0 2.04 0 0 Z " fill="#CAFBC4" transform="translate(492,375)"/>
<path d="M0 0 C1 2 1 2 0.546875 3.91015625 C0.28390625 4.62042969 0.0209375 5.33070313 -0.25 6.0625 C-0.62898437 7.13177734 -0.62898437 7.13177734 -1.015625 8.22265625 C-2 10 -2 10 -5 11 C-3.77472971 6.94718288 -2.30119506 3.55639236 0 0 Z " fill="#C6F9BF" transform="translate(713,357)"/>
<path d="M0 0 C3.48331435 3.01887244 4.79157144 5.56909529 6 10 C5.01 9.67 4.02 9.34 3 9 C3 7.68 3 6.36 3 5 C2.01 5 1.02 5 0 5 C0 3.35 0 1.7 0 0 Z " fill="#BBF6B6" transform="translate(652,235)"/>
<path d="M0 0 C1.6396875 0.0928125 1.6396875 0.0928125 3.3125 0.1875 C3.3125 0.8475 3.3125 1.5075 3.3125 2.1875 C0.0125 2.5175 -3.2875 2.8475 -6.6875 3.1875 C-3.6875 0.1875 -3.6875 0.1875 0 0 Z " fill="#08D500" transform="translate(572.6875,421.8125)"/>
<path d="M0 0 C0.66 0.33 1.32 0.66 2 1 C-0.51830747 4.12270126 -1.7261549 4.94523098 -5.75 5.75 C-7.35875 5.87375 -7.35875 5.87375 -9 6 C-7.68 5.67 -6.36 5.34 -5 5 C-5 4.34 -5 3.68 -5 3 C-2.625 1.3125 -2.625 1.3125 0 0 Z " fill="#C5F6C0" transform="translate(665,411)"/>
<path d="M0 0 C1.65 0.33 3.3 0.66 5 1 C4.01 1.33 3.02 1.66 2 2 C0.79117904 4.00016466 0.79117904 4.00016466 0 6 C-0.99 5.67 -1.98 5.34 -3 5 C-2.01 3.35 -1.02 1.7 0 0 Z " fill="#EEEEEE" transform="translate(858,342)"/>
<path d="M0 0 C2.86724686 0.57344937 3.8614515 0.8614515 6 3 C5.625 5.125 5.625 5.125 5 7 C1.18461538 4.53846154 1.18461538 4.53846154 0.25 1.8125 C0.1675 1.214375 0.085 0.61625 0 0 Z " fill="#49CE3F" transform="translate(695,192)"/>
<path d="M0 0 C-3.04117196 2.02744797 -5.48143999 3.06650449 -9 4 C-11.19140625 3.55078125 -11.19140625 3.55078125 -13 3 C-11.5903653 2.29819469 -10.17192359 1.61406042 -8.75 0.9375 C-7.96109375 0.55464844 -7.1721875 0.17179687 -6.359375 -0.22265625 C-3.74006478 -1.08564091 -2.55144824 -0.93045933 0 0 Z " fill="#B2F6AC" transform="translate(650,422)"/>
<path d="M0 0 C0.66 0 1.32 0 2 0 C2 0.66 2 1.32 2 2 C2.9590625 2.3403125 2.9590625 2.3403125 3.9375 2.6875 C6 4 6 4 6.75 6.625 C6.8325 7.40875 6.915 8.1925 7 9 C4.03595495 6.19195732 1.55500981 3.81684226 0 0 Z " fill="#3BC335" transform="translate(495,378)"/>
<path d="M0 0 C0.99 0 1.98 0 3 0 C2.67 1.98 2.34 3.96 2 6 C1.34 6 0.68 6 0 6 C-0.33 6.66 -0.66 7.32 -1 8 C-1.125 2.25 -1.125 2.25 0 0 Z " fill="#CAFAC4" transform="translate(538,244)"/>
<path d="M0 0 C4 6 4 6 3.625 8.1875 C3.41875 8.785625 3.2125 9.38375 3 10 C2.34 10 1.68 10 1 10 C0.67 6.7 0.34 3.4 0 0 Z " fill="#27C71D" transform="translate(715,225)"/>
<path d="M0 0 C0.66 0.66 1.32 1.32 2 2 C3.32 1.34 4.64 0.68 6 0 C5.38722388 2.96175123 4.74627478 4.38058783 3 7 C3 6.01 3 5.02 3 4 C2.01 4 1.02 4 0 4 C0 2.68 0 1.36 0 0 Z " fill="#17CC10" transform="translate(650,227)"/>
<path d="M0 0 C0.66 0 1.32 0 2 0 C0.84414715 3.91211733 -0.35534962 6.8745041 -3 10 C-3 8.02 -3 6.04 -3 4 C-2.01 3.67 -1.02 3.34 0 3 C0 2.01 0 1.02 0 0 Z " fill="#DBFED1" transform="translate(488,208)"/>
<path d="M0 0 C3.96 0 7.92 0 12 0 C12 0.33 12 0.66 12 1 C10.56853622 1.41713515 9.12941114 1.8080497 7.6875 2.1875 C6.88699219 2.40792969 6.08648438 2.62835937 5.26171875 2.85546875 C4.14216797 2.92701172 4.14216797 2.92701172 3 3 C2.01 2.01 1.02 1.02 0 0 Z " fill="#E2E2E2" transform="translate(699,649)"/>
<path d="M0 0 C0.33 0.99 0.66 1.98 1 3 C-0.65 4.65 -2.3 6.3 -4 8 C-4.99 7.67 -5.98 7.34 -7 7 C-4.66666667 4.66666667 -2.33333333 2.33333333 0 0 Z " fill="#D4D4D4" transform="translate(751,516)"/>
<path d="M0 0 C5.875 4.625 5.875 4.625 7 8 C6.34 8 5.68 8 5 8 C4.67 7.34 4.34 6.68 4 6 C1.97536745 5.34786708 1.97536745 5.34786708 0 5 C0 3.35 0 1.7 0 0 Z " fill="#CAF6C3" transform="translate(498,384)"/>
<path d="M0 0 C0.99 0.33 1.98 0.66 3 1 C3 4.3 3 7.6 3 11 C2.67 11 2.34 11 2 11 C1.34 7.37 0.68 3.74 0 0 Z " fill="#38C02C" transform="translate(478,341)"/>
<path d="M0 0 C0.99 0.33 1.98 0.66 3 1 C3 1.99 3 2.98 3 4 C3.99 4.33 4.98 4.66 6 5 C6 5.99 6 6.98 6 8 C2.24623848 6.74874616 1.75926711 5.4347596 0 2 C0 1.34 0 0.68 0 0 Z " fill="#2CC423" transform="translate(654,236)"/>
<path d="M0 0 C1.98 0 3.96 0 6 0 C6.66 1.65 7.32 3.3 8 5 C4.62496331 3.8141763 2.35277269 2.72426311 0 0 Z " fill="#4DCC41" transform="translate(632,217)"/>
<path d="M0 0 C1.98 0.66 3.96 1.32 6 2 C6.33 3.98 6.66 5.96 7 8 C5.5 6.625 5.5 6.625 4 5 C4 4.34 4 3.68 4 3 C2.68 2.34 1.36 1.68 0 1 C0 0.67 0 0.34 0 0 Z " fill="#E2FEDD" transform="translate(678,170)"/>
<path d="M0 0 C-0.99 1.485 -0.99 1.485 -2 3 C-5.625 3.1875 -5.625 3.1875 -9 3 C-6.38997624 -0.48003168 -4.1689578 -0.27793052 0 0 Z " fill="#3FCA37" transform="translate(553,157)"/>
<path d="M0 0 C2.31 0 4.62 0 7 0 C5.8125 1.5 5.8125 1.5 4 3 C1.3125 3.1875 1.3125 3.1875 -1 3 C-0.67 2.01 -0.34 1.02 0 0 Z " fill="#07D501" transform="translate(637,419)"/>
<path d="M0 0 C0.99 0.66 1.98 1.32 3 2 C3 2.66 3 3.32 3 4 C2.34 4 1.68 4 1 4 C0.67 4.66 0.34 5.32 0 6 C-0.99 5.67 -1.98 5.34 -3 5 C-2.01 3.35 -1.02 1.7 0 0 Z " fill="#E6E6E6" transform="translate(826,394)"/>
<path d="M0 0 C0.99 0 1.98 0 3 0 C1.70700306 2.88437779 0.34058637 4.87219421 -2 7 C-2 5.35 -2 3.7 -2 2 C-1.34 2 -0.68 2 0 2 C0 1.34 0 0.68 0 0 Z " fill="#D8FDD3" transform="translate(493,200)"/>
<path d="M0 0 C0.33 0.99 0.66 1.98 1 3 C0.34 3.66 -0.32 4.32 -1 5 C-1.99 5 -2.98 5 -4 5 C-4.33 5.99 -4.66 6.98 -5 8 C-5.33 7.34 -5.66 6.68 -6 6 C-5.67 5.34 -5.34 4.68 -5 4 C-4.34 4 -3.68 4 -3 4 C-3 3.34 -3 2.68 -3 2 C-2.01 1.34 -1.02 0.68 0 0 Z " fill="#61D258" transform="translate(511,184)"/>
<path d="M0 0 C1.134375 0.020625 2.26875 0.04125 3.4375 0.0625 C2.4375 2.0625 2.4375 2.0625 0.8125 2.6875 C-2.3285575 3.18345645 -5.38851831 3.12353811 -8.5625 3.0625 C-7.923125 2.753125 -7.28375 2.44375 -6.625 2.125 C-2.58814103 0.04540598 -2.58814103 0.04540598 0 0 Z " fill="#F2FEF3" transform="translate(700.5625,323.9375)"/>
<path d="M0 0 C4.40114397 0.50298788 6.71195019 2.08772731 10 5 C6.05140217 4.4359146 3.29120954 3.2568294 0 1 C0 0.67 0 0.34 0 0 Z " fill="#D0FEC8" transform="translate(625,215)"/>
<path d="M0 0 C1.98 1.65 3.96 3.3 6 5 C5.01 5.33 4.02 5.66 3 6 C2.01 5.34 1.02 4.68 0 4 C0 2.68 0 1.36 0 0 Z " fill="#4FD048" transform="translate(682,176)"/>
</svg>
