<?xml version="1.0" encoding="UTF-8"?>
<svg version="1.1" xmlns="http://www.w3.org/2000/svg" width="48" height="48">
<path d="M0 0 C0 0.66 0 1.32 0 2 C1.32 2 2.64 2 4 2 C4.33333333 3.33333333 4.66666667 4.66666667 5 6 C5.20625 6.639375 5.4125 7.27875 5.625 7.9375 C6.1158851 10.63736806 5.86797563 12.39607311 5 15 C2.26514133 17.73485867 -0.21547645 18.47437173 -4 19 C-3.773125 20.03125 -3.54625 21.0625 -3.3125 22.125 C-2.93626363 26.79033103 -3.37849933 28.14485195 -6 32 C-15.22669377 42.10382005 -15.22669377 42.10382005 -21.625 42.5 C-27.1173509 42.48405704 -29.67291202 40.47276611 -33.50390625 36.7265625 C-36.48906233 33.28155208 -36.51491177 30.09730988 -36.4765625 25.66796875 C-35.61720526 20.85697699 -32.48484584 18.20094802 -29 15 C-28.52175781 14.47019531 -28.04351562 13.94039062 -27.55078125 13.39453125 C-25.3557557 11.14918993 -23.51615621 10.05976546 -20.40234375 9.69921875 C-17.9128583 9.68871459 -15.47887158 9.77954699 -13 10 C-12.7525 8.906875 -12.505 7.81375 -12.25 6.6875 C-11 3 -11 3 -9.3125 1.0625 C-6.14094996 -0.39469867 -3.44315277 -0.19864343 0 0 Z " fill="#E48501" transform="translate(39,3)"/>
<path d="M0 0 C0 0.66 0 1.32 0 2 C1.32 2 2.64 2 4 2 C4.33333333 3.33333333 4.66666667 4.66666667 5 6 C5.20625 6.639375 5.4125 7.27875 5.625 7.9375 C6.1158851 10.63736806 5.86797563 12.39607311 5 15 C2.65087088 17.62018248 1.11743553 17.98042741 -2.375 18.5625 C-6.5643358 17.91243065 -8.15033658 16.90458949 -10.890625 13.78125 C-12.82628382 10.67329077 -12.70391904 8.5195952 -12 5 C-8.52254958 0.04726758 -5.9082216 -0.57923741 0 0 Z " fill="#186039" transform="translate(39,3)"/>
<path d="M0 0 C0.33 0.99 0.66 1.98 1 3 C-1.84302259 6.44608799 -3.1749229 7.88812514 -7.6875 8.5 C-8.780625 8.335 -9.87375 8.17 -11 8 C-11.66 7.01 -12.32 6.02 -13 5 C-8.71146306 3.11304374 -4.47238653 1.41807378 0 0 Z " fill="#34C07D" transform="translate(44,13)"/>
<path d="M0 0 C0.99 0.33 1.98 0.66 3 1 C1.35 5.29 -0.3 9.58 -2 14 C-2.99 13.34 -3.98 12.68 -5 12 C-5.5 8.6875 -5.5 8.6875 -5 5 C-2.5 2.0625 -2.5 2.0625 0 0 Z " fill="#33C27E" transform="translate(32,3)"/>
<path d="M0 0 C2.31 0 4.62 0 7 0 C7.33 2.31 7.66 4.62 8 7 C5.36 7 2.72 7 0 7 C0 4.69 0 2.38 0 0 Z " fill="#FED100" transform="translate(28,22)"/>
<path d="M0 0 C2.31 0 4.62 0 7 0 C7 2.31 7 4.62 7 7 C4.69 7 2.38 7 0 7 C0 4.69 0 2.38 0 0 Z " fill="#FAC500" transform="translate(19,31)"/>
<path d="M0 0 C2.31 0 4.62 0 7 0 C7 2.31 7 4.62 7 7 C4.69 7 2.38 7 0 7 C0 4.69 0 2.38 0 0 Z " fill="#FAC500" transform="translate(10,31)"/>
<path d="M0 0 C2.31 0 4.62 0 7 0 C7 2.31 7 4.62 7 7 C4.69 7 2.38 7 0 7 C0 4.69 0 2.38 0 0 Z " fill="#FED100" transform="translate(19,22)"/>
<path d="M0 0 C2.31 0 4.62 0 7 0 C7 2.31 7 4.62 7 7 C4.69 7 2.38 7 0 7 C0 4.69 0 2.38 0 0 Z " fill="#FED100" transform="translate(10,22)"/>
<path d="M0 0 C2.31 0 4.62 0 7 0 C7 2.31 7 4.62 7 7 C4.69 7 2.38 7 0 7 C0 4.69 0 2.38 0 0 Z " fill="#FDD000" transform="translate(19,13)"/>
<path d="M0 0 C2.31 0 4.62 0 7 0 C5.08864614 3.53600465 3.37357234 5.78972846 0 8 C0 5.36 0 2.72 0 0 Z " fill="#FAC500" transform="translate(28,31)"/>
<path d="M0 0 C0 2.31 0 4.62 0 7 C-2.64 7 -5.28 7 -8 7 C-2.34042553 0 -2.34042553 0 0 0 Z " fill="#FDD000" transform="translate(17,13)"/>
<path d="M0 0 C2.31 0 4.62 0 7 0 C7 1.65 7 3.3 7 5 C4.69 4.67 2.38 4.34 0 4 C0 2.68 0 1.36 0 0 Z " fill="#F4B300" transform="translate(10,40)"/>
<path d="M0 0 C1.65 0 3.3 0 5 0 C5 2.31 5 4.62 5 7 C3.68 7 2.36 7 1 7 C0.67 4.69 0.34 2.38 0 0 Z " fill="#FAC300" transform="translate(3,31)"/>
<path d="M0 0 C-1.81309003 3.77727089 -3.9073259 7.37269822 -6 11 C-6.66 11 -7.32 11 -8 11 C-7.57781184 9.3501725 -7.13675575 7.70516335 -6.6875 6.0625 C-6.44386719 5.14597656 -6.20023438 4.22945313 -5.94921875 3.28515625 C-5.47935547 2.15400391 -5.47935547 2.15400391 -5 1 C-2 0 -2 0 0 0 Z " fill="#107942" transform="translate(39,3)"/>
<path d="M0 0 C0.33 0.99 0.66 1.98 1 3 C-1.34591852 5.7710688 -3.14776201 6.52059284 -6.6875 7.1875 C-7.49574219 7.34605469 -8.30398437 7.50460938 -9.13671875 7.66796875 C-10.05904297 7.83232422 -10.05904297 7.83232422 -11 8 C-8.80861021 5.64270057 -6.56068027 3.97942902 -3.8125 2.3125 C-3.09707031 1.87550781 -2.38164063 1.43851563 -1.64453125 0.98828125 C-1.10183594 0.66214844 -0.55914062 0.33601562 0 0 Z " fill="#0F7A43" transform="translate(44,9)"/>
<path d="M0 0 C2.64 0 5.28 0 8 0 C5.6875 2.5 5.6875 2.5 3 5 C2.01 5 1.02 5 0 5 C0 3.35 0 1.7 0 0 Z " fill="#F4B600" transform="translate(19,40)"/>
<path d="M0 0 C0 2.64 0 5.28 0 8 C-1.65 8 -3.3 8 -5 8 C-3.91891892 0 -3.91891892 0 0 0 Z " fill="#FDD100" transform="translate(8,21)"/>
</svg>
