<?xml version="1.0" encoding="UTF-8"?>
<svg version="1.1" xmlns="http://www.w3.org/2000/svg" width="48" height="48">
<path d="M0 0 C1.06347656 -0.01417969 2.12695312 -0.02835937 3.22265625 -0.04296875 C5.9375 0.1875 5.9375 0.1875 7.9375 2.1875 C9.92571313 2.58514263 11.92694339 2.92525349 13.9375 3.1875 C16.25296395 10.75134891 18.1381867 18.36744978 15.9375 26.1875 C13.20215153 31.17779523 9.02707296 34.45637141 3.7734375 36.52734375 C0.08173065 37.38670802 -3.53834892 37.61941627 -7.3125 37.6875 C-7.99812012 37.70611084 -8.68374023 37.72472168 -9.39013672 37.74389648 C-12.74326197 37.70174712 -15.02413962 37.20734157 -18.0078125 35.6640625 C-20.82455203 32.26898102 -20.81949376 29.28814646 -20.6875 25.0625 C-20.67348145 24.30420898 -20.65946289 23.54591797 -20.64501953 22.76464844 C-20.33584384 15.55670171 -18.49357146 9.86732414 -13.5 4.51171875 C-9.16313309 0.66274937 -5.6316701 0.03421428 0 0 Z " fill="#EB3B40" transform="translate(26.0625,5.8125)"/>
<path d="M0 0 C2.875 -0.125 2.875 -0.125 6 0 C6.66 0.66 7.32 1.32 8 2 C9.98821313 2.39764263 11.98944339 2.73775349 14 3 C15.43023178 7.67209049 16.40380045 12.13103697 17 17 C16.21625 17.103125 15.4325 17.20625 14.625 17.3125 C11.66954819 17.77595022 11.66954819 17.77595022 10 21 C9.01 20.67 8.02 20.34 7 20 C6.3125 17.9375 6.3125 17.9375 6 16 C4.02 16.33 2.04 16.66 0 17 C0.33 15.02 0.66 13.04 1 11 C-1.475 10.01 -1.475 10.01 -4 9 C-3.34 7.68 -2.68 6.36 -2 5 C-1.34 5 -0.68 5 0 5 C0 3.35 0 1.7 0 0 Z " fill="#1EA15A" transform="translate(26,6)"/>
</svg>
